<?xml version="1.0" standalone="no"?>
<!DOCTYPE svg PUBLIC "-//W3C//DTD SVG 1.1//EN" "http://www.w3.org/Graphics/SVG/1.1/DTD/svg11.dtd" >
<svg xmlns="http://www.w3.org/2000/svg" xmlns:xlink="http://www.w3.org/1999/xlink" version="1.1">
<metadata>
Created by FontForge 20160407 at Wed Sep  7 23:21:30 2016
 By Jimmy Warting
Copyright (C) 1996, 2007 Hoefler &#38; Co. http://www.typography.com
</metadata>
<defs>
<font id="Verlag-Book" horiz-adv-x="440" >
  <font-face 
    font-family="Verlag Book"
    font-weight="325"
    font-stretch="normal"
    units-per-em="1000"
    panose-1="0 0 0 0 0 0 0 0 0 0"
    ascent="800"
    descent="-200"
    x-height="420"
    cap-height="733"
    bbox="-56 -288 1125 1108"
    underline-thickness="50"
    underline-position="-100"
    stemh="68"
    stemv="79"
    unicode-range="U+0020-FB04"
  />
<missing-glyph horiz-adv-x="500" 
 />
    <glyph glyph-name="f_f_i" unicode="ffi" horiz-adv-x="795" 
d="M321 731l-13 -68c-12 3 -27 5 -39 5c-74 0 -100 -31 -100 -119v-129h124v-68h-124v-352h-78v352h-65v10l65 65v111c0 130 54 202 165 202c25 0 42 -2 65 -9zM616 731l-13 -68c-12 3 -27 5 -39 5c-74 0 -100 -31 -100 -119v-129h124v-68h-124v-352h-78v352h-65v10l65 65
v111c0 130 54 202 165 202c25 0 42 -2 65 -9zM745 565c0 -27 -22 -50 -50 -50s-50 23 -50 50c0 28 22 51 50 51s50 -23 50 -51zM734 0h-79v420h79v-420z" />
    <glyph glyph-name="f_f_l" unicode="ffl" horiz-adv-x="799" 
d="M321 731l-13 -68c-12 3 -27 5 -39 5c-74 0 -100 -31 -100 -119v-129h124v-68h-124v-352h-78v352h-65v10l65 65v111c0 130 54 202 165 202c25 0 42 -2 65 -9zM616 731l-13 -68c-12 3 -27 5 -39 5c-74 0 -100 -31 -100 -119v-129h124v-68h-124v-352h-78v352h-65v10l65 65
v111c0 130 54 202 165 202c25 0 42 -2 65 -9zM734 0h-79v733h79v-733z" />
    <glyph glyph-name="f_f" unicode="ff" horiz-adv-x="590" 
d="M321 731l-13 -68c-12 3 -27 5 -39 5c-74 0 -100 -31 -100 -119v-129h124v-68h-124v-352h-78v352h-65v10l65 65v111c0 130 54 202 165 202c25 0 42 -2 65 -9zM616 731l-13 -68c-12 3 -27 5 -39 5c-74 0 -100 -31 -100 -119v-129h124v-68h-124v-352h-78v352h-65v10l65 65
v111c0 130 54 202 165 202c25 0 42 -2 65 -9z" />
    <glyph glyph-name="fi" unicode="fi" horiz-adv-x="500" 
d="M450 565c0 -27 -22 -50 -50 -50s-50 23 -50 50c0 28 22 51 50 51s50 -23 50 -51zM321 731l-13 -68c-12 3 -27 5 -39 5c-74 0 -100 -31 -100 -119v-129h124v-68h-124v-352h-78v352h-65v10l65 65v111c0 130 54 202 165 202c25 0 42 -2 65 -9zM439 0h-79v420h79v-420z" />
    <glyph glyph-name="fl" unicode="fl" horiz-adv-x="504" 
d="M321 731l-13 -68c-12 3 -27 5 -39 5c-74 0 -100 -31 -100 -119v-129h124v-68h-124v-352h-78v352h-65v10l65 65v111c0 130 54 202 165 202c25 0 42 -2 65 -9zM439 0h-79v733h79v-733z" />
    <glyph glyph-name=".notdef" horiz-adv-x="500" 
 />
    <glyph glyph-name="A" unicode="A" horiz-adv-x="681" 
d="M676 0h-86l-87 203h-328l-87 -203h-83l329 746h13zM474 270l-135 315l-135 -315h270z" />
    <glyph glyph-name="B" unicode="B" horiz-adv-x="557" 
d="M524 199c0 -104 -94 -205 -267 -205c-60 0 -123 6 -177 12v720c54 7 110 12 170 12c174 0 255 -93 255 -188c0 -77 -29 -137 -129 -171c113 -29 148 -102 148 -180zM422 539c0 78 -53 131 -165 131c-30 0 -71 -3 -97 -8v-253c18 -2 55 -3 86 -3c129 0 176 64 176 133z
M440 207c0 70 -65 137 -192 137c-26 0 -71 -1 -88 -3v-270c26 -5 74 -8 108 -8c113 0 172 62 172 144z" />
    <glyph glyph-name="C" unicode="C" horiz-adv-x="714" 
d="M686 58c-58 -36 -145 -70 -242 -70c-226 0 -389 158 -389 378c0 216 167 379 389 379c97 0 184 -34 242 -70l-33 -68c-62 36 -146 63 -216 63c-185 0 -295 -131 -295 -304s117 -303 302 -303c70 0 154 27 216 63z" />
    <glyph glyph-name="D" unicode="D" horiz-adv-x="745" 
d="M690 373c0 -197 -137 -379 -412 -379c-74 0 -141 6 -198 12v720c56 7 117 12 191 12c275 0 419 -177 419 -365zM603 373c0 170 -112 297 -325 297c-44 0 -92 -3 -118 -8v-591c31 -6 70 -8 128 -8c216 0 315 136 315 310z" />
    <glyph glyph-name="E" unicode="E" horiz-adv-x="574" 
d="M509 0h-429v733h429v-72h-349v-253h314v-72h-314v-264h349v-72z" />
    <glyph glyph-name="F" unicode="F" horiz-adv-x="538" 
d="M509 661h-349v-267h314v-72h-314v-322h-80v733h429v-72z" />
    <glyph glyph-name="G" unicode="G" horiz-adv-x="775" 
d="M441 363h274v-289c-74 -55 -159 -86 -268 -86c-203 0 -392 149 -392 378c0 230 194 379 383 379c121 0 197 -35 274 -89l-42 -63c-67 49 -151 80 -231 80c-188 0 -297 -145 -297 -307c0 -173 135 -307 306 -307c72 0 129 15 187 50v179h-194v75z" />
    <glyph glyph-name="G.alt" horiz-adv-x="818" 
d="M426 341h359c0 -193 -135 -353 -347 -353c-203 0 -383 149 -383 378c0 230 193 379 382 379c122 0 198 -35 275 -89l-42 -63c-68 49 -152 80 -232 80c-187 0 -296 -145 -296 -307c0 -173 127 -307 298 -307c144 0 246 96 260 210h-274v72z" />
    <glyph glyph-name="H" unicode="H" horiz-adv-x="712" 
d="M632 0h-80v336h-392v-336h-80v733h80v-325h392v325h80v-733z" />
    <glyph glyph-name="I" unicode="I" horiz-adv-x="250" 
d="M165 0h-80v733h80v-733z" />
    <glyph glyph-name="J" unicode="J" horiz-adv-x="454" 
d="M379 733v-515c0 -133 -71 -230 -207 -230c-64 0 -117 19 -158 52l41 61c31 -23 75 -40 118 -40c87 0 126 50 126 158v514h80z" />
    <glyph glyph-name="K" unicode="K" horiz-adv-x="599" 
d="M596 0h-105l-331 360v-360h-80v733h80v-341l319 341h101l-340 -356z" />
    <glyph glyph-name="L" unicode="L" horiz-adv-x="527" 
d="M509 0h-429v733h80v-661h349v-72z" />
    <glyph glyph-name="M" unicode="M" horiz-adv-x="855" 
d="M785 0h-81l-11 518l-260 -443h-11l-262 444l-9 -519h-81l28 745l15 2l318 -552l310 552l16 -2z" />
    <glyph glyph-name="M.alt" horiz-adv-x="855" 
d="M785 0h-81l-11 550l-260 -395h-11l-262 392l-9 -547h-81l28 745l15 2l318 -484l310 484l16 -2z" />
    <glyph glyph-name="N" unicode="N" horiz-adv-x="726" 
d="M646 -11l-10 -3l-476 570v-556h-80v743l16 4l470 -561v547h80v-744z" />
    <glyph glyph-name="O" unicode="O" horiz-adv-x="841" 
d="M786 366c0 -220 -171 -378 -369 -378s-362 158 -362 378s171 379 369 379s362 -159 362 -379zM699 366c0 173 -116 307 -278 307c-163 0 -279 -134 -279 -307s116 -307 279 -307c162 0 278 134 278 307z" />
    <glyph glyph-name="P" unicode="P" horiz-adv-x="551" 
d="M530 505c0 -147 -107 -250 -287 -250c-25 0 -58 2 -83 4v-259h-80v726c54 7 108 12 168 12c189 0 282 -108 282 -233zM444 499c0 86 -63 167 -184 167c-34 0 -74 -2 -100 -8v-327c25 -3 60 -6 88 -6c137 0 196 79 196 174z" />
    <glyph glyph-name="Q" unicode="Q" horiz-adv-x="841" 
d="M793 34l-51 -59s-55 50 -101 90c-63 -49 -141 -77 -225 -77c-198 0 -361 158 -361 378s170 379 368 379c199 0 362 -159 362 -379c0 -97 -33 -182 -87 -247c43 -39 95 -85 95 -85zM698 366c0 173 -116 307 -278 307s-278 -134 -278 -307s116 -307 278 -307
c64 0 120 21 165 56c1 0 -134 121 -134 121l51 58s137 -122 137 -123c37 53 59 120 59 195z" />
    <glyph glyph-name="R" unicode="R" horiz-adv-x="594" 
d="M585 0h-97l-195 289c-16 -1 -32 -2 -49 -2c-24 0 -59 1 -83 2v-289h-80v726c54 7 108 12 169 12c189 0 282 -94 282 -220c0 -102 -57 -179 -160 -212zM446 513c0 86 -64 153 -184 153c-34 0 -75 -2 -101 -8v-298c24 -3 61 -5 89 -5c137 0 196 63 196 158z" />
    <glyph glyph-name="S" unicode="S" horiz-adv-x="502" 
d="M461 198c0 -119 -97 -210 -224 -210c-83 0 -148 26 -212 68l39 70c56 -40 120 -65 177 -65c94 0 138 62 138 128c0 64 -25 102 -145 155c-127 56 -174 113 -174 201c0 106 90 200 224 200c62 0 121 -21 163 -50l-36 -68c-36 26 -84 45 -132 45c-92 0 -139 -56 -139 -123
c0 -51 35 -92 125 -133c153 -69 196 -120 196 -218z" />
    <glyph glyph-name="T" unicode="T" horiz-adv-x="619" 
d="M594 661h-244v-661h-80v661h-245v72h569v-72z" />
    <glyph glyph-name="U" unicode="U" horiz-adv-x="694" 
d="M623 263c0 -170 -113 -275 -277 -275c-168 0 -275 99 -275 275v470h80v-464c0 -147 80 -209 195 -209c114 0 197 63 197 209v464h80v-470z" />
    <glyph glyph-name="V" unicode="V" horiz-adv-x="675" 
d="M670 733l-326 -746h-13l-326 746h90l245 -580l243 580h87z" />
    <glyph glyph-name="W" unicode="W" horiz-adv-x="916" 
d="M906 733l-202 -745l-16 -2l-232 580l-228 -580l-16 2l-202 745h81l145 -540l217 546h10l218 -543l144 537h81z" />
    <glyph glyph-name="X" unicode="X" horiz-adv-x="668" 
d="M648 0h-96l-219 309l-220 -309h-93l270 365l-270 368h96l219 -309l220 309h93l-270 -365z" />
    <glyph glyph-name="Y" unicode="Y" horiz-adv-x="635" 
d="M615 733l-258 -408v-325h-80v326l-257 407h90l210 -340l207 340h88z" />
    <glyph glyph-name="Z" unicode="Z" horiz-adv-x="620" 
d="M578 721l-415 -649h410v-72h-531l-5 11l415 650h-389v72h510z" />
    <glyph glyph-name="a" unicode="a" horiz-adv-x="436" 
d="M388 0h-73v44c-34 -33 -78 -52 -130 -52c-83 0 -152 49 -152 135c0 76 65 131 151 131c58 0 91 -13 127 -28v25c0 71 -33 104 -110 104c-40 0 -81 -9 -110 -21l-13 68c39 12 91 22 133 22c120 0 177 -57 177 -178v-250zM311 107v57c-42 23 -68 34 -114 34
c-54 0 -89 -24 -89 -71c0 -46 35 -72 97 -72c44 0 80 22 106 52z" />
    <glyph glyph-name="b" unicode="b" horiz-adv-x="510" 
d="M470 213c0 -123 -96 -221 -207 -221c-46 0 -100 18 -132 49v-41h-75v733h79v-351c32 27 84 46 137 46c112 0 198 -88 198 -215zM392 212c0 83 -51 150 -135 150c-52 0 -92 -19 -122 -50v-199c25 -30 65 -55 113 -55c84 0 144 64 144 154z" />
    <glyph glyph-name="c" unicode="c" horiz-adv-x="428" 
d="M410 35c-38 -24 -91 -43 -143 -43c-133 0 -227 95 -227 216s94 220 227 220c52 0 105 -19 143 -43l-32 -60c-34 20 -75 35 -118 35c-82 0 -144 -56 -144 -152c0 -91 72 -148 149 -148c43 0 84 15 118 35z" />
    <glyph glyph-name="d" unicode="d" horiz-adv-x="510" 
d="M454 0h-75v43c-33 -34 -81 -51 -134 -51c-121 0 -205 88 -205 214c0 123 96 222 207 222c55 0 96 -16 128 -42v347h79v-733zM375 113v192c-26 32 -68 57 -122 57c-79 0 -135 -64 -135 -154c0 -84 52 -150 140 -150c51 0 89 22 117 55z" />
    <glyph glyph-name="e" unicode="e" horiz-adv-x="461" 
d="M428 226c0 -14 0 -25 -3 -40h-308c9 -72 49 -126 157 -126c35 0 77 10 116 23l14 -67c-48 -14 -98 -24 -137 -24c-151 0 -227 95 -227 216c0 115 74 220 204 220c119 0 184 -88 184 -202zM120 246h235c-5 65 -42 116 -116 116c-68 0 -110 -44 -119 -116z" />
    <glyph glyph-name="f" unicode="f" horiz-adv-x="295" 
d="M321 731l-13 -68c-12 3 -27 5 -39 5c-74 0 -100 -31 -100 -119v-129h124v-68h-124v-352h-78v352h-65v10l65 65v111c0 130 54 202 165 202c25 0 42 -2 65 -9z" />
    <glyph glyph-name="g" unicode="g" horiz-adv-x="510" 
d="M454 -39c0 -129 -70 -185 -178 -185c-43 0 -90 8 -141 23l11 72c44 -15 86 -22 118 -22c77 0 111 33 111 105v82c-32 -27 -77 -44 -130 -44c-121 0 -205 88 -205 214c0 123 96 222 207 222c54 0 103 -19 132 -47v39h75v-459zM375 108v197c-25 30 -70 57 -119 57
c-83 0 -138 -66 -138 -156c0 -83 52 -150 145 -150c44 0 84 19 112 52z" />
    <glyph glyph-name="h" unicode="h" horiz-adv-x="485" 
d="M433 0h-79v264c0 65 -28 98 -88 98c-47 0 -100 -33 -131 -68v-294h-79v733h79v-376c44 45 96 71 151 71c97 0 147 -59 147 -143v-285z" />
    <glyph glyph-name="i" unicode="i" horiz-adv-x="201" 
d="M151 565c0 -27 -22 -50 -50 -50s-50 23 -50 50c0 28 22 51 50 51s50 -23 50 -51zM140 0h-79v420h79v-420z" />
    <glyph glyph-name="j" unicode="j" horiz-adv-x="201" 
d="M153 565c0 -27 -22 -50 -50 -50s-50 23 -50 50c0 28 22 51 50 51s50 -23 50 -51zM142 420v-512c0 -92 -42 -132 -118 -132c-21 0 -44 3 -69 8l9 66c13 -2 23 -3 35 -3c44 0 64 16 64 55v518h79z" />
    <glyph glyph-name="k" unicode="k" horiz-adv-x="422" 
d="M421 0h-98l-188 207v-207h-79v733h79v-498l178 185h98l-203 -196z" />
    <glyph glyph-name="l" unicode="l" horiz-adv-x="199" 
d="M139 0h-79v733h79v-733z" />
    <glyph glyph-name="m" unicode="m" horiz-adv-x="750" 
d="M698 0h-79v269c0 58 -21 91 -76 91c-47 0 -89 -28 -126 -67v-293h-79v264c0 65 -19 98 -79 98c-50 0 -94 -34 -124 -71v-291h-79v420h75v-64c42 40 94 72 155 72c66 0 96 -33 114 -78c41 47 102 76 167 76c88 0 131 -54 131 -143v-283z" />
    <glyph glyph-name="n" unicode="n" horiz-adv-x="479" 
d="M427 0h-79v264c0 65 -24 98 -85 98c-47 0 -96 -33 -128 -68v-294h-79v420h75v-64c44 44 99 72 155 72c97 0 141 -59 141 -143v-285z" />
    <glyph glyph-name="o" unicode="o" horiz-adv-x="505" 
d="M465 210c0 -120 -84 -218 -212 -218s-213 98 -213 218s85 218 213 218s212 -98 212 -218zM387 210c0 92 -54 154 -134 154c-81 0 -135 -62 -135 -154s54 -154 135 -154c80 0 134 62 134 154z" />
    <glyph glyph-name="p" unicode="p" horiz-adv-x="510" 
d="M470 213c0 -123 -88 -221 -213 -221c-45 0 -86 11 -122 31v-239h-79v636h75v-42c34 30 81 50 141 50c111 0 198 -88 198 -215zM392 212c0 83 -52 150 -135 150c-53 0 -92 -19 -123 -50v-207c26 -30 72 -48 121 -48c81 0 137 65 137 155z" />
    <glyph glyph-name="q" unicode="q" horiz-adv-x="510" 
d="M454 -216h-79v249c-31 -25 -72 -41 -125 -41c-121 0 -210 83 -210 214c0 128 102 222 212 222c55 0 98 -20 127 -45v37h75v-636zM375 111v194c-25 30 -70 57 -119 57c-79 0 -138 -64 -138 -154c0 -88 51 -150 149 -150c43 0 83 21 108 53z" />
    <glyph glyph-name="r" unicode="r" horiz-adv-x="296" 
d="M281 351c-61 0 -117 -22 -146 -64v-287h-79v420h75v-70c40 52 95 78 150 78v-77z" />
    <glyph glyph-name="s" unicode="s" horiz-adv-x="350" 
d="M316 124c0 -69 -56 -132 -139 -132c-58 0 -108 21 -150 55l40 56c32 -29 74 -47 106 -47c49 0 72 23 72 60c0 82 -196 61 -196 187c0 66 54 125 143 125c44 0 90 -19 122 -40l-35 -59c-27 19 -56 35 -90 35c-48 0 -68 -24 -68 -54c0 -71 195 -56 195 -186z" />
    <glyph glyph-name="t" unicode="t" horiz-adv-x="295" 
d="M282 352h-124v-236c0 -39 22 -55 66 -55c12 0 21 1 35 3l8 -64c-25 -5 -47 -8 -69 -8c-76 0 -117 40 -117 132v228h-67v10l67 65v73l77 57v-137h124v-68z" />
    <glyph glyph-name="u" unicode="u" horiz-adv-x="479" 
d="M423 0h-75v59c-36 -35 -96 -67 -151 -67c-98 0 -145 59 -145 143v285h79v-264c0 -65 28 -98 88 -98c47 0 93 30 125 64v298h79v-420z" />
    <glyph glyph-name="v" unicode="v" horiz-adv-x="435" 
d="M431 420l-209 -431h-13l-205 431h88l127 -294l127 294h85z" />
    <glyph glyph-name="w" unicode="w" horiz-adv-x="596" 
d="M592 420l-149 -431h-13l-128 285l-130 -285h-13l-151 431h88l82 -274l116 276h13l124 -276l77 274h84z" />
    <glyph glyph-name="x" unicode="x" horiz-adv-x="417" 
d="M404 0h-89l-104 152l-107 -152h-85l153 208l-153 212h89l106 -154l105 154h85l-151 -210z" />
    <glyph glyph-name="y" unicode="y" horiz-adv-x="435" 
d="M431 420l-297 -636h-79l126 256l-177 380h88l128 -301l126 301h85z" />
    <glyph glyph-name="z" unicode="z" horiz-adv-x="405" 
d="M385 408l-246 -340h241v-68h-357l-5 11l246 341h-227v68h343z" />
    <glyph glyph-name="Aacute" unicode="&#xc1;" horiz-adv-x="681" 
d="M676 0h-86l-87 203h-328l-87 -203h-83l329 746h13zM474 270l-135 315l-135 -315h270zM498 883l-191 -89l-23 44l175 125z" />
    <glyph glyph-name="aacute" unicode="&#xe1;" horiz-adv-x="436" 
d="M388 0h-73v44c-34 -33 -78 -52 -130 -52c-83 0 -152 49 -152 135c0 76 65 131 151 131c58 0 91 -13 127 -28v25c0 71 -33 104 -110 104c-40 0 -81 -9 -110 -21l-13 68c39 12 91 22 133 22c120 0 177 -57 177 -178v-250zM311 107v57c-42 23 -68 34 -114 34
c-54 0 -89 -24 -89 -71c0 -46 35 -72 97 -72c44 0 80 22 106 52zM383 563l-191 -89l-23 44l175 125z" />
    <glyph glyph-name="Abreve" unicode="&#x102;" horiz-adv-x="681" 
d="M676 0h-86l-87 203h-328l-87 -203h-83l329 746h13zM474 270l-135 315l-135 -315h270zM462 919c0 -63 -45 -117 -122 -117c-76 0 -121 54 -121 117l72 6c0 -40 18 -63 49 -63c32 0 50 23 50 63z" />
    <glyph glyph-name="abreve" unicode="&#x103;" horiz-adv-x="436" 
d="M388 0h-73v44c-34 -33 -78 -52 -130 -52c-83 0 -152 49 -152 135c0 76 65 131 151 131c58 0 91 -13 127 -28v25c0 71 -33 104 -110 104c-40 0 -81 -9 -110 -21l-13 68c39 12 91 22 133 22c120 0 177 -57 177 -178v-250zM311 107v57c-42 23 -68 34 -114 34
c-54 0 -89 -24 -89 -71c0 -46 35 -72 97 -72c44 0 80 22 106 52zM347 599c0 -63 -45 -117 -122 -117c-76 0 -121 54 -121 117l72 6c0 -40 18 -63 49 -63c32 0 50 23 50 63z" />
    <glyph glyph-name="Acircumflex" unicode="&#xc2;" horiz-adv-x="681" 
d="M676 0h-86l-87 203h-328l-87 -203h-83l329 746h13zM474 270l-135 315l-135 -315h270zM486 809h-82l-67 85l-66 -85h-77l133 160h29z" />
    <glyph glyph-name="acircumflex" unicode="&#xe2;" horiz-adv-x="436" 
d="M388 0h-73v44c-34 -33 -78 -52 -130 -52c-83 0 -152 49 -152 135c0 76 65 131 151 131c58 0 91 -13 127 -28v25c0 71 -33 104 -110 104c-40 0 -81 -9 -110 -21l-13 68c39 12 91 22 133 22c120 0 177 -57 177 -178v-250zM311 107v57c-42 23 -68 34 -114 34
c-54 0 -89 -24 -89 -71c0 -46 35 -72 97 -72c44 0 80 22 106 52zM371 489h-82l-67 85l-66 -85h-77l133 160h29z" />
    <glyph glyph-name="Adieresis" unicode="&#xc4;" horiz-adv-x="681" 
d="M676 0h-86l-87 203h-328l-87 -203h-83l329 746h13zM474 270l-135 315l-135 -315h270zM477 864c0 -27 -23 -50 -50 -50c-28 0 -51 23 -51 50c0 28 23 51 51 51c27 0 50 -23 50 -51zM304 864c0 -27 -23 -50 -51 -50c-27 0 -50 23 -50 50c0 28 23 51 50 51
c28 0 51 -23 51 -51z" />
    <glyph glyph-name="adieresis" unicode="&#xe4;" horiz-adv-x="436" 
d="M388 0h-73v44c-34 -33 -78 -52 -130 -52c-83 0 -152 49 -152 135c0 76 65 131 151 131c58 0 91 -13 127 -28v25c0 71 -33 104 -110 104c-40 0 -81 -9 -110 -21l-13 68c39 12 91 22 133 22c120 0 177 -57 177 -178v-250zM311 107v57c-42 23 -68 34 -114 34
c-54 0 -89 -24 -89 -71c0 -46 35 -72 97 -72c44 0 80 22 106 52zM362 544c0 -27 -23 -50 -50 -50c-28 0 -51 23 -51 50c0 28 23 51 51 51c27 0 50 -23 50 -51zM189 544c0 -27 -23 -50 -51 -50c-27 0 -50 23 -50 50c0 28 23 51 50 51c28 0 51 -23 51 -51z" />
    <glyph glyph-name="Agrave" unicode="&#xc0;" horiz-adv-x="681" 
d="M676 0h-86l-87 203h-328l-87 -203h-83l329 746h13zM474 270l-135 315l-135 -315h270zM397 836l-26 -42l-191 89l42 78z" />
    <glyph glyph-name="agrave" unicode="&#xe0;" horiz-adv-x="436" 
d="M388 0h-73v44c-34 -33 -78 -52 -130 -52c-83 0 -152 49 -152 135c0 76 65 131 151 131c58 0 91 -13 127 -28v25c0 71 -33 104 -110 104c-40 0 -81 -9 -110 -21l-13 68c39 12 91 22 133 22c120 0 177 -57 177 -178v-250zM311 107v57c-42 23 -68 34 -114 34
c-54 0 -89 -24 -89 -71c0 -46 35 -72 97 -72c44 0 80 22 106 52zM282 516l-26 -42l-191 89l42 78z" />
    <glyph glyph-name="Amacron" unicode="&#x100;" horiz-adv-x="681" 
d="M676 0h-86l-87 203h-328l-87 -203h-83l329 746h13zM474 270l-135 315l-135 -315h270zM484 821h-287v67h287v-67z" />
    <glyph glyph-name="amacron" unicode="&#x101;" horiz-adv-x="436" 
d="M388 0h-73v44c-34 -33 -78 -52 -130 -52c-83 0 -152 49 -152 135c0 76 65 131 151 131c58 0 91 -13 127 -28v25c0 71 -33 104 -110 104c-40 0 -81 -9 -110 -21l-13 68c39 12 91 22 133 22c120 0 177 -57 177 -178v-250zM311 107v57c-42 23 -68 34 -114 34
c-54 0 -89 -24 -89 -71c0 -46 35 -72 97 -72c44 0 80 22 106 52zM369 501h-287v67h287v-67z" />
    <glyph glyph-name="Aogonek" unicode="&#x104;" horiz-adv-x="681" 
d="M685 -168c-26 -34 -53 -50 -90 -51c-50 -1 -83 35 -82 81c1 38 17 72 77 138l-87 203h-328l-87 -203h-83l329 746h13l329 -746h-32c-49 -60 -68 -97 -68 -128c0 -25 13 -39 32 -39c17 0 29 7 47 27zM474 270l-135 315l-135 -315h270z" />
    <glyph glyph-name="aogonek" unicode="&#x105;" horiz-adv-x="436" 
d="M409 -168c-26 -34 -53 -50 -90 -51c-50 -1 -83 35 -82 81c1 39 17 73 78 139v43c-34 -33 -78 -52 -130 -52c-83 0 -152 49 -152 135c0 76 65 131 151 131c58 0 91 -13 127 -28v25c0 71 -33 104 -110 104c-40 0 -81 -9 -110 -21l-13 68c39 12 91 22 133 22
c120 0 177 -57 177 -178v-250h-20c-49 -60 -68 -97 -68 -128c0 -25 13 -39 32 -39c17 0 29 7 47 27zM311 107v57c-42 23 -68 34 -114 34c-54 0 -89 -24 -89 -71c0 -46 35 -72 97 -72c44 0 80 22 106 52z" />
    <glyph glyph-name="Aring" unicode="&#xc5;" horiz-adv-x="681" 
d="M447 809c0 -51 -31 -92 -84 -101l313 -708h-86l-87 203h-328l-87 -203h-83l312 709c-52 9 -82 50 -82 100c0 57 40 103 106 103s106 -46 106 -103zM474 270l-135 315l-135 -315h270zM392 810c0 33 -22 57 -51 57s-51 -23 -51 -57s22 -57 51 -57s51 23 51 57z" />
    <glyph glyph-name="aring" unicode="&#xe5;" horiz-adv-x="436" 
d="M388 0h-73v44c-34 -33 -78 -52 -130 -52c-83 0 -152 49 -152 135c0 76 65 131 151 131c58 0 91 -13 127 -28v25c0 71 -33 104 -110 104c-40 0 -81 -9 -110 -21l-13 68c39 12 91 22 133 22c120 0 177 -57 177 -178v-250zM311 107v57c-42 23 -68 34 -114 34
c-54 0 -89 -24 -89 -71c0 -46 35 -72 97 -72c44 0 80 22 106 52zM331 587c0 -57 -40 -102 -106 -102s-106 45 -106 102s40 103 106 103s106 -46 106 -103zM276 588c0 33 -22 57 -51 57s-51 -23 -51 -57s22 -57 51 -57s51 23 51 57z" />
    <glyph glyph-name="Aringacute" unicode="&#x1fa;" horiz-adv-x="681" 
d="M447 809c0 -51 -31 -92 -84 -101l313 -708h-86l-87 203h-328l-87 -203h-83l312 709c-52 9 -82 50 -82 100c0 57 40 103 106 103s106 -46 106 -103zM474 270l-135 315l-135 -315h270zM392 810c0 33 -22 57 -51 57s-51 -23 -51 -57s22 -57 51 -57s51 23 51 57zM498 1028
l-191 -89l-23 44l175 125z" />
    <glyph glyph-name="aringacute" unicode="&#x1fb;" horiz-adv-x="436" 
d="M388 0h-73v44c-34 -33 -78 -52 -130 -52c-83 0 -152 49 -152 135c0 76 65 131 151 131c58 0 91 -13 127 -28v25c0 71 -33 104 -110 104c-40 0 -81 -9 -110 -21l-13 68c39 12 91 22 133 22c120 0 177 -57 177 -178v-250zM311 107v57c-42 23 -68 34 -114 34
c-54 0 -89 -24 -89 -71c0 -46 35 -72 97 -72c44 0 80 22 106 52zM331 587c0 -57 -40 -102 -106 -102s-106 45 -106 102s40 103 106 103s106 -46 106 -103zM276 588c0 33 -22 57 -51 57s-51 -23 -51 -57s22 -57 51 -57s51 23 51 57zM383 813l-191 -89l-23 44l175 125z" />
    <glyph glyph-name="Atilde" unicode="&#xc3;" horiz-adv-x="681" 
d="M676 0h-86l-87 203h-328l-87 -203h-83l329 746h13zM474 270l-135 315l-135 -315h270zM491 864c-28 -36 -63 -54 -95 -54c-20 0 -39 7 -58 19c-18 13 -35 19 -49 19c-21 0 -39 -13 -58 -37l-36 47c28 36 63 54 95 54c20 0 39 -7 57 -19c19 -13 35 -19 50 -19
c21 0 39 13 58 37z" />
    <glyph glyph-name="atilde" unicode="&#xe3;" horiz-adv-x="436" 
d="M388 0h-73v44c-34 -33 -78 -52 -130 -52c-83 0 -152 49 -152 135c0 76 65 131 151 131c58 0 91 -13 127 -28v25c0 71 -33 104 -110 104c-40 0 -81 -9 -110 -21l-13 68c39 12 91 22 133 22c120 0 177 -57 177 -178v-250zM311 107v57c-42 23 -68 34 -114 34
c-54 0 -89 -24 -89 -71c0 -46 35 -72 97 -72c44 0 80 22 106 52zM376 544c-28 -36 -63 -54 -95 -54c-20 0 -39 7 -58 19c-18 13 -35 19 -49 19c-21 0 -39 -13 -58 -37l-36 47c28 36 63 54 95 54c20 0 39 -7 57 -19c19 -13 35 -19 50 -19c21 0 39 13 58 37z" />
    <glyph glyph-name="AE" unicode="&#xc6;" horiz-adv-x="1020" 
d="M955 0h-429v236h-267l-167 -236h-92l526 733h429v-72h-349v-253h314v-72h-314v-264h349v-72zM526 303v309l-219 -309h219z" />
    <glyph glyph-name="ae" unicode="&#xe6;" horiz-adv-x="732" 
d="M311 229v26c0 71 -32 104 -110 104c-40 0 -80 -9 -110 -21l-13 68c39 12 91 22 134 22c78 0 125 -24 149 -75c33 45 85 75 154 75c118 0 184 -88 184 -202c0 -14 -1 -25 -3 -40h-308c8 -72 48 -126 157 -126c35 0 77 10 115 23l14 -67c-47 -14 -97 -24 -136 -24
c-88 0 -149 33 -184 84c-37 -53 -99 -84 -169 -84c-82 0 -152 49 -152 135c0 76 65 131 150 131c57 0 95 -14 128 -29zM626 246c-5 65 -42 116 -117 116c-67 0 -109 -44 -118 -116h235zM317 152c-25 26 -74 46 -120 46c-54 0 -89 -24 -89 -71c0 -46 35 -72 97 -72
c44 0 93 27 112 97z" />
    <glyph glyph-name="AEacute" unicode="&#x1fc;" horiz-adv-x="1020" 
d="M955 0h-429v236h-267l-167 -236h-92l526 733h429v-72h-349v-253h314v-72h-314v-264h349v-72zM526 303v309l-219 -309h219zM810 883l-191 -89l-23 44l175 125z" />
    <glyph glyph-name="aeacute" unicode="&#x1fd;" horiz-adv-x="732" 
d="M311 229v26c0 71 -32 104 -110 104c-40 0 -80 -9 -110 -21l-13 68c39 12 91 22 134 22c78 0 125 -24 149 -75c33 45 85 75 154 75c118 0 184 -88 184 -202c0 -14 -1 -25 -3 -40h-308c8 -72 48 -126 157 -126c35 0 77 10 115 23l14 -67c-47 -14 -97 -24 -136 -24
c-88 0 -149 33 -184 84c-37 -53 -99 -84 -169 -84c-82 0 -152 49 -152 135c0 76 65 131 150 131c57 0 95 -14 128 -29zM626 246c-5 65 -42 116 -117 116c-67 0 -109 -44 -118 -116h235zM317 152c-25 26 -74 46 -120 46c-54 0 -89 -24 -89 -71c0 -46 35 -72 97 -72
c44 0 93 27 112 97zM524 563l-191 -89l-23 44l175 125z" />
    <glyph glyph-name="Cacute" unicode="&#x106;" horiz-adv-x="714" 
d="M686 58c-58 -36 -145 -70 -242 -70c-226 0 -389 158 -389 378c0 216 167 379 389 379c97 0 184 -34 242 -70l-33 -68c-62 36 -146 63 -216 63c-185 0 -295 -131 -295 -304s117 -303 302 -303c70 0 154 27 216 63zM578 883l-191 -89l-23 44l175 125z" />
    <glyph glyph-name="cacute" unicode="&#x107;" horiz-adv-x="428" 
d="M410 35c-38 -24 -91 -43 -143 -43c-133 0 -227 95 -227 216s94 220 227 220c52 0 105 -19 143 -43l-32 -60c-34 20 -75 35 -118 35c-82 0 -144 -56 -144 -152c0 -91 72 -148 149 -148c43 0 84 15 118 35zM411 563l-191 -89l-23 44l175 125z" />
    <glyph glyph-name="Ccaron" unicode="&#x10c;" horiz-adv-x="714" 
d="M686 58c-58 -36 -145 -70 -242 -70c-226 0 -389 158 -389 378c0 216 167 379 389 379c97 0 184 -34 242 -70l-33 -68c-62 36 -146 63 -216 63c-185 0 -295 -131 -295 -304s117 -303 302 -303c70 0 154 27 216 63zM566 958l-134 -161h-28l-130 161h81l67 -86l66 86h78z
" />
    <glyph glyph-name="ccaron" unicode="&#x10d;" horiz-adv-x="428" 
d="M410 35c-38 -24 -91 -43 -143 -43c-133 0 -227 95 -227 216s94 220 227 220c52 0 105 -19 143 -43l-32 -60c-34 20 -75 35 -118 35c-82 0 -144 -56 -144 -152c0 -91 72 -148 149 -148c43 0 84 15 118 35zM399 638l-134 -161h-28l-130 161h81l67 -86l66 86h78z" />
    <glyph glyph-name="Ccedilla" unicode="&#xc7;" horiz-adv-x="714" 
d="M543 -146c0 -48 -32 -91 -99 -91c-35 0 -70 12 -108 34l23 46c32 -19 58 -27 85 -27c25 0 39 15 39 36c0 24 -25 48 -93 52l-4 8l20 78c-206 16 -351 168 -351 376c0 216 167 379 389 379c97 0 184 -34 242 -70l-33 -68c-62 36 -146 63 -216 63
c-185 0 -295 -131 -295 -304s117 -303 302 -303c70 0 154 27 216 63l26 -68c-56 -35 -138 -67 -231 -70l-10 -39c75 -17 98 -56 98 -95z" />
    <glyph glyph-name="ccedilla" unicode="&#xe7;" horiz-adv-x="428" 
d="M345 -146c0 -48 -32 -91 -99 -91c-35 0 -70 12 -108 34l23 46c32 -19 58 -27 85 -27c25 0 39 15 39 36c0 24 -25 48 -93 52l-4 8l22 86c-102 22 -170 107 -170 210c0 121 94 220 227 220c52 0 105 -19 143 -43l-32 -60c-34 20 -75 35 -118 35c-82 0 -144 -56 -144 -152
c0 -91 72 -148 149 -148c43 0 84 15 118 35l27 -60c-38 -24 -91 -43 -143 -43h-9l-11 -43c75 -17 98 -56 98 -95z" />
    <glyph glyph-name="Cdotaccent" unicode="&#x10a;" horiz-adv-x="714" 
d="M686 58c-58 -36 -145 -70 -242 -70c-226 0 -389 158 -389 378c0 216 167 379 389 379c97 0 184 -34 242 -70l-33 -68c-62 36 -146 63 -216 63c-185 0 -295 -131 -295 -304s117 -303 302 -303c70 0 154 27 216 63zM370 864c0 28 23 51 50 51c28 0 51 -23 51 -51
c0 -27 -23 -50 -51 -50c-27 0 -50 23 -50 50z" />
    <glyph glyph-name="cdotaccent" unicode="&#x10b;" horiz-adv-x="428" 
d="M410 35c-38 -24 -91 -43 -143 -43c-133 0 -227 95 -227 216s94 220 227 220c52 0 105 -19 143 -43l-32 -60c-34 20 -75 35 -118 35c-82 0 -144 -56 -144 -152c0 -91 72 -148 149 -148c43 0 84 15 118 35zM203 544c0 28 23 51 50 51c28 0 51 -23 51 -51
c0 -27 -23 -50 -51 -50c-27 0 -50 23 -50 50z" />
    <glyph glyph-name="Dcaron" unicode="&#x10e;" horiz-adv-x="745" 
d="M690 373c0 -197 -137 -379 -412 -379c-74 0 -141 6 -198 12v720c56 7 117 12 191 12c275 0 419 -177 419 -365zM603 373c0 170 -112 297 -325 297c-44 0 -92 -3 -118 -8v-591c31 -6 70 -8 128 -8c216 0 315 136 315 310zM509 958l-134 -161h-28l-130 161h81l67 -86l66 86
h78z" />
    <glyph glyph-name="dcaron" unicode="&#x10f;" horiz-adv-x="510" 
d="M454 0h-75v43c-33 -34 -81 -51 -134 -51c-121 0 -205 88 -205 214c0 123 96 222 207 222c55 0 96 -16 128 -42v347h79v-733zM375 113v192c-26 32 -68 57 -122 57c-79 0 -135 -64 -135 -154c0 -84 52 -150 140 -150c51 0 89 22 117 55zM548 733l75 -12
c0 -87 -36 -144 -91 -189l-38 29c35 41 51 94 54 172z" />
    <glyph glyph-name="Dcroat" unicode="&#x110;" horiz-adv-x="765" 
d="M710 373c0 -197 -137 -379 -412 -379c-74 0 -141 6 -198 12v330h-90v72h90v318c56 7 117 12 191 12c275 0 419 -177 419 -365zM623 373c0 170 -111 297 -324 297c-44 0 -93 -3 -119 -8v-254h109v-72h-109v-265c31 -6 71 -8 129 -8c216 0 314 136 314 310z" />
    <glyph glyph-name="dcroat" unicode="&#x111;" horiz-adv-x="510" 
d="M454 0h-75v43c-33 -34 -81 -51 -134 -51c-121 0 -205 88 -205 214c0 123 96 222 207 222c55 0 96 -16 128 -42v175h-144v65h144v107h79v-107h56v-65h-56v-561zM375 113v192c-26 32 -68 57 -122 57c-79 0 -135 -64 -135 -154c0 -84 52 -150 140 -150c51 0 89 22 117 55z
" />
    <glyph glyph-name="Eacute" unicode="&#xc9;" horiz-adv-x="574" 
d="M509 0h-429v733h429v-72h-349v-253h314v-72h-314v-264h349v-72zM455 883l-191 -89l-23 44l175 125z" />
    <glyph glyph-name="eacute" unicode="&#xe9;" horiz-adv-x="461" 
d="M428 226c0 -14 0 -25 -3 -40h-308c9 -72 49 -126 157 -126c35 0 77 10 116 23l14 -67c-48 -14 -98 -24 -137 -24c-151 0 -227 95 -227 216c0 115 74 220 204 220c119 0 184 -88 184 -202zM120 246h235c-5 65 -42 116 -116 116c-68 0 -110 -44 -119 -116zM400 563
l-191 -89l-23 44l175 125z" />
    <glyph glyph-name="Ebreve" unicode="&#x114;" horiz-adv-x="574" 
d="M509 0h-429v733h429v-72h-349v-253h314v-72h-314v-264h349v-72zM419 919c0 -63 -45 -117 -122 -117c-76 0 -121 54 -121 117l72 6c0 -40 18 -63 49 -63c32 0 50 23 50 63z" />
    <glyph glyph-name="ebreve" unicode="&#x115;" horiz-adv-x="461" 
d="M428 226c0 -14 0 -25 -3 -40h-308c9 -72 49 -126 157 -126c35 0 77 10 116 23l14 -67c-48 -14 -98 -24 -137 -24c-151 0 -227 95 -227 216c0 115 74 220 204 220c119 0 184 -88 184 -202zM120 246h235c-5 65 -42 116 -116 116c-68 0 -110 -44 -119 -116zM364 599
c0 -63 -45 -117 -122 -117c-76 0 -121 54 -121 117l72 6c0 -40 18 -63 49 -63c32 0 50 23 50 63z" />
    <glyph glyph-name="Ecaron" unicode="&#x11a;" horiz-adv-x="574" 
d="M509 0h-429v733h429v-72h-349v-253h314v-72h-314v-264h349v-72zM443 958l-134 -161h-28l-130 161h81l67 -86l66 86h78z" />
    <glyph glyph-name="ecaron" unicode="&#x11b;" horiz-adv-x="461" 
d="M428 226c0 -14 0 -25 -3 -40h-308c9 -72 49 -126 157 -126c35 0 77 10 116 23l14 -67c-48 -14 -98 -24 -137 -24c-151 0 -227 95 -227 216c0 115 74 220 204 220c119 0 184 -88 184 -202zM120 246h235c-5 65 -42 116 -116 116c-68 0 -110 -44 -119 -116zM388 638
l-134 -161h-28l-130 161h81l67 -86l66 86h78z" />
    <glyph glyph-name="Ecircumflex" unicode="&#xca;" horiz-adv-x="574" 
d="M509 0h-429v733h429v-72h-349v-253h314v-72h-314v-264h349v-72zM443 809h-82l-67 85l-66 -85h-77l133 160h29z" />
    <glyph glyph-name="ecircumflex" unicode="&#xea;" horiz-adv-x="461" 
d="M428 226c0 -14 0 -25 -3 -40h-308c9 -72 49 -126 157 -126c35 0 77 10 116 23l14 -67c-48 -14 -98 -24 -137 -24c-151 0 -227 95 -227 216c0 115 74 220 204 220c119 0 184 -88 184 -202zM120 246h235c-5 65 -42 116 -116 116c-68 0 -110 -44 -119 -116zM388 489h-82
l-67 85l-66 -85h-77l133 160h29z" />
    <glyph glyph-name="Edieresis" unicode="&#xcb;" horiz-adv-x="574" 
d="M509 0h-429v733h429v-72h-349v-253h314v-72h-314v-264h349v-72zM434 864c0 -27 -23 -50 -50 -50c-28 0 -51 23 -51 50c0 28 23 51 51 51c27 0 50 -23 50 -51zM261 864c0 -27 -23 -50 -51 -50c-27 0 -50 23 -50 50c0 28 23 51 50 51c28 0 51 -23 51 -51z" />
    <glyph glyph-name="edieresis" unicode="&#xeb;" horiz-adv-x="461" 
d="M428 226c0 -14 0 -25 -3 -40h-308c9 -72 49 -126 157 -126c35 0 77 10 116 23l14 -67c-48 -14 -98 -24 -137 -24c-151 0 -227 95 -227 216c0 115 74 220 204 220c119 0 184 -88 184 -202zM120 246h235c-5 65 -42 116 -116 116c-68 0 -110 -44 -119 -116zM379 544
c0 -27 -23 -50 -50 -50c-28 0 -51 23 -51 50c0 28 23 51 51 51c27 0 50 -23 50 -51zM206 544c0 -27 -23 -50 -51 -50c-27 0 -50 23 -50 50c0 28 23 51 50 51c28 0 51 -23 51 -51z" />
    <glyph glyph-name="Edotaccent" unicode="&#x116;" horiz-adv-x="574" 
d="M509 0h-429v733h429v-72h-349v-253h314v-72h-314v-264h349v-72zM247 864c0 28 23 51 50 51c28 0 51 -23 51 -51c0 -27 -23 -50 -51 -50c-27 0 -50 23 -50 50z" />
    <glyph glyph-name="edotaccent" unicode="&#x117;" horiz-adv-x="461" 
d="M428 226c0 -14 0 -25 -3 -40h-308c9 -72 49 -126 157 -126c35 0 77 10 116 23l14 -67c-48 -14 -98 -24 -137 -24c-151 0 -227 95 -227 216c0 115 74 220 204 220c119 0 184 -88 184 -202zM120 246h235c-5 65 -42 116 -116 116c-68 0 -110 -44 -119 -116zM192 544
c0 28 23 51 50 51c28 0 51 -23 51 -51c0 -27 -23 -50 -51 -50c-27 0 -50 23 -50 50z" />
    <glyph glyph-name="Egrave" unicode="&#xc8;" horiz-adv-x="574" 
d="M509 0h-429v733h429v-72h-349v-253h314v-72h-314v-264h349v-72zM354 836l-26 -42l-191 89l42 78z" />
    <glyph glyph-name="egrave" unicode="&#xe8;" horiz-adv-x="461" 
d="M428 226c0 -14 0 -25 -3 -40h-308c9 -72 49 -126 157 -126c35 0 77 10 116 23l14 -67c-48 -14 -98 -24 -137 -24c-151 0 -227 95 -227 216c0 115 74 220 204 220c119 0 184 -88 184 -202zM120 246h235c-5 65 -42 116 -116 116c-68 0 -110 -44 -119 -116zM299 516l-26 -42
l-191 89l42 78z" />
    <glyph glyph-name="Emacron" unicode="&#x112;" horiz-adv-x="574" 
d="M509 0h-429v733h429v-72h-349v-253h314v-72h-314v-264h349v-72zM441 821h-287v67h287v-67z" />
    <glyph glyph-name="emacron" unicode="&#x113;" horiz-adv-x="461" 
d="M428 226c0 -14 0 -25 -3 -40h-308c9 -72 49 -126 157 -126c35 0 77 10 116 23l14 -67c-48 -14 -98 -24 -137 -24c-151 0 -227 95 -227 216c0 115 74 220 204 220c119 0 184 -88 184 -202zM120 246h235c-5 65 -42 116 -116 116c-68 0 -110 -44 -119 -116zM386 501h-287v67
h287v-67z" />
    <glyph glyph-name="Eogonek" unicode="&#x118;" horiz-adv-x="574" 
d="M523 -168c-26 -34 -53 -50 -90 -51c-50 -1 -83 35 -82 81c1 38 16 73 76 138h-347v733h429v-72h-349v-253h314v-72h-314v-264h349v-72h-27c-49 -60 -68 -97 -68 -128c0 -25 13 -39 32 -39c17 0 29 7 47 27z" />
    <glyph glyph-name="eogonek" unicode="&#x119;" horiz-adv-x="461" 
d="M428 226c0 -14 0 -25 -3 -40h-308c9 -72 49 -126 157 -126c35 0 77 10 116 23l13 -64c-55 -59 -86 -110 -86 -147c0 -25 13 -39 32 -39c17 0 29 7 47 27l30 -28c-26 -34 -53 -50 -90 -51c-50 -1 -82 34 -82 81c0 38 19 78 77 137c-23 -4 -45 -7 -64 -7
c-151 0 -227 95 -227 216c0 115 74 220 204 220c119 0 184 -88 184 -202zM120 246h235c-5 65 -42 116 -116 116c-68 0 -110 -44 -119 -116z" />
    <glyph glyph-name="Eth" unicode="&#xd0;" horiz-adv-x="765" 
d="M710 373c0 -197 -137 -379 -412 -379c-74 0 -141 6 -198 12v330h-90v72h90v318c56 7 117 12 191 12c275 0 419 -177 419 -365zM623 373c0 170 -111 297 -324 297c-44 0 -93 -3 -119 -8v-254h109v-72h-109v-265c31 -6 71 -8 129 -8c216 0 314 136 314 310z" />
    <glyph glyph-name="eth" unicode="&#xf0;" horiz-adv-x="506" 
d="M151 506l-40 47l72 64c-32 23 -67 42 -104 59l32 59c44 -20 85 -43 124 -71l66 60l40 -48l-57 -51c110 -95 182 -226 182 -394c0 -143 -88 -239 -214 -239c-142 0 -212 104 -212 227c0 120 82 210 192 210c59 0 108 -23 141 -60c-21 73 -71 147 -141 209zM389 212
c0 86 -54 152 -140 152c-79 0 -132 -59 -132 -150c0 -82 52 -157 135 -157c85 0 137 67 137 155z" />
    <glyph glyph-name="Gbreve" unicode="&#x11e;" horiz-adv-x="775" 
d="M441 363h274v-289c-74 -55 -159 -86 -268 -86c-203 0 -392 149 -392 378c0 230 194 379 383 379c121 0 197 -35 274 -89l-42 -63c-67 49 -151 80 -231 80c-188 0 -297 -145 -297 -307c0 -173 135 -307 306 -307c72 0 129 15 187 50v179h-194v75zM551 919
c0 -63 -45 -117 -122 -117c-76 0 -121 54 -121 117l72 6c0 -40 18 -63 49 -63c32 0 50 23 50 63z" />
    <glyph glyph-name="Gbreve.alt" horiz-adv-x="818" 
d="M426 341h359c0 -193 -135 -353 -347 -353c-203 0 -383 149 -383 378c0 230 193 379 382 379c122 0 198 -35 275 -89l-42 -63c-68 49 -152 80 -232 80c-187 0 -296 -145 -296 -307c0 -173 127 -307 298 -307c144 0 246 96 260 210h-274v72zM566 919
c0 -63 -45 -117 -122 -117c-76 0 -121 54 -121 117l72 6c0 -40 18 -63 49 -63c32 0 50 23 50 63z" />
    <glyph glyph-name="gbreve" unicode="&#x11f;" horiz-adv-x="510" 
d="M454 -39c0 -129 -70 -185 -178 -185c-43 0 -90 8 -141 23l11 72c44 -15 86 -22 118 -22c77 0 111 33 111 105v82c-32 -27 -77 -44 -130 -44c-121 0 -205 88 -205 214c0 123 96 222 207 222c54 0 103 -19 132 -47v39h75v-459zM375 108v197c-25 30 -70 57 -119 57
c-83 0 -138 -66 -138 -156c0 -83 52 -150 145 -150c44 0 84 19 112 52zM388 599c0 -63 -45 -117 -122 -117c-76 0 -121 54 -121 117l72 6c0 -40 18 -63 49 -63c32 0 50 23 50 63z" />
    <glyph glyph-name="Gcommaaccent" unicode="&#x122;" horiz-adv-x="775" 
d="M441 363h274v-289c-74 -55 -159 -86 -268 -86c-203 0 -392 149 -392 378c0 230 194 379 383 379c121 0 197 -35 274 -89l-42 -63c-67 49 -151 80 -231 80c-188 0 -297 -145 -297 -307c0 -173 135 -307 306 -307c72 0 129 15 187 50v179h-194v75zM481 -134
c0 -47 -33 -112 -104 -154l-11 16c37 32 56 70 64 99c-32 2 -52 24 -52 51s22 49 49 49c35 0 54 -28 54 -61z" />
    <glyph glyph-name="Gcommaaccent.alt" horiz-adv-x="818" 
d="M426 341h359c0 -193 -135 -353 -347 -353c-203 0 -383 149 -383 378c0 230 193 379 382 379c122 0 198 -35 275 -89l-42 -63c-68 49 -152 80 -232 80c-187 0 -296 -145 -296 -307c0 -173 127 -307 298 -307c144 0 246 96 260 210h-274v72zM496 -134
c0 -47 -33 -112 -104 -154l-11 16c37 32 56 70 64 99c-32 2 -52 24 -52 51s22 49 49 49c35 0 54 -28 54 -61z" />
    <glyph glyph-name="gcommaaccent" unicode="&#x123;" horiz-adv-x="510" 
d="M454 -39c0 -129 -70 -185 -178 -185c-43 0 -90 8 -141 23l11 72c44 -15 86 -22 118 -22c77 0 111 33 111 105v82c-32 -27 -77 -44 -130 -44c-121 0 -205 88 -205 214c0 123 96 222 207 222c54 0 103 -19 132 -47v39h75v-459zM375 108v197c-25 30 -70 57 -119 57
c-83 0 -138 -66 -138 -156c0 -83 52 -150 145 -150c44 0 84 19 112 52zM214 581c0 47 33 112 104 154l11 -16c-37 -32 -56 -70 -64 -99c32 -2 52 -24 52 -51s-22 -49 -49 -49c-35 0 -54 28 -54 61z" />
    <glyph glyph-name="Gdotaccent" unicode="&#x120;" horiz-adv-x="775" 
d="M441 363h274v-289c-74 -55 -159 -86 -268 -86c-203 0 -392 149 -392 378c0 230 194 379 383 379c121 0 197 -35 274 -89l-42 -63c-67 49 -151 80 -231 80c-188 0 -297 -145 -297 -307c0 -173 135 -307 306 -307c72 0 129 15 187 50v179h-194v75zM379 864
c0 28 23 51 50 51c28 0 51 -23 51 -51c0 -27 -23 -50 -51 -50c-27 0 -50 23 -50 50z" />
    <glyph glyph-name="Gdotaccent.alt" horiz-adv-x="818" 
d="M426 341h359c0 -193 -135 -353 -347 -353c-203 0 -383 149 -383 378c0 230 193 379 382 379c122 0 198 -35 275 -89l-42 -63c-68 49 -152 80 -232 80c-187 0 -296 -145 -296 -307c0 -173 127 -307 298 -307c144 0 246 96 260 210h-274v72zM396 864c0 28 23 51 50 51
c28 0 51 -23 51 -51c0 -27 -23 -50 -51 -50c-27 0 -50 23 -50 50z" />
    <glyph glyph-name="gdotaccent" unicode="&#x121;" horiz-adv-x="510" 
d="M454 -39c0 -129 -70 -185 -178 -185c-43 0 -90 8 -141 23l11 72c44 -15 86 -22 118 -22c77 0 111 33 111 105v82c-32 -27 -77 -44 -130 -44c-121 0 -205 88 -205 214c0 123 96 222 207 222c54 0 103 -19 132 -47v39h75v-459zM375 108v197c-25 30 -70 57 -119 57
c-83 0 -138 -66 -138 -156c0 -83 52 -150 145 -150c44 0 84 19 112 52zM216 544c0 28 23 51 50 51c28 0 51 -23 51 -51c0 -27 -23 -50 -51 -50c-27 0 -50 23 -50 50z" />
    <glyph glyph-name="Hbar" unicode="&#x126;" horiz-adv-x="712" 
d="M632 0h-80v336h-393v-336h-79v543h-80v68h80v122h79v-122h393v122h80v-122h80v-68h-80v-543zM159 408h393v135h-393v-135z" />
    <glyph glyph-name="hbar" unicode="&#x127;" horiz-adv-x="485" 
d="M433 0h-79v264c0 65 -28 98 -88 98c-47 0 -100 -33 -131 -68v-294h-79v561h-56v65h56v107h79v-107h144v-65h-144v-204c44 45 96 71 151 71c97 0 147 -59 147 -143v-285z" />
    <glyph glyph-name="Iacute" unicode="&#xcd;" horiz-adv-x="249" 
d="M165 0h-80v733h80v-733zM282 883l-191 -89l-23 44l175 125z" />
    <glyph glyph-name="iacute" unicode="&#xed;" horiz-adv-x="208" 
d="M144 0h-79v420h79v-420zM262 563l-191 -89l-23 44l175 125z" />
    <glyph glyph-name="Ibreve" unicode="&#x12c;" horiz-adv-x="249" 
d="M165 0h-80v733h80v-733zM246 919c0 -63 -45 -117 -122 -117c-76 0 -121 54 -121 117l72 6c0 -40 18 -63 49 -63c32 0 50 23 50 63z" />
    <glyph glyph-name="ibreve" unicode="&#x12d;" horiz-adv-x="208" 
d="M144 0h-79v420h79v-420zM226 599c0 -63 -45 -117 -122 -117c-76 0 -121 54 -121 117l72 6c0 -40 18 -63 49 -63c32 0 50 23 50 63z" />
    <glyph glyph-name="Icircumflex" unicode="&#xce;" horiz-adv-x="249" 
d="M165 0h-80v733h80v-733zM270 809h-82l-67 85l-66 -85h-77l133 160h29z" />
    <glyph glyph-name="icircumflex" unicode="&#xee;" horiz-adv-x="208" 
d="M144 0h-79v420h79v-420zM250 489h-82l-67 85l-66 -85h-77l133 160h29z" />
    <glyph glyph-name="Idieresis" unicode="&#xcf;" horiz-adv-x="249" 
d="M165 0h-80v733h80v-733zM261 864c0 -27 -23 -50 -50 -50c-28 0 -51 23 -51 50c0 28 23 51 51 51c27 0 50 -23 50 -51zM88 864c0 -27 -23 -50 -51 -50c-27 0 -50 23 -50 50c0 28 23 51 50 51c28 0 51 -23 51 -51z" />
    <glyph glyph-name="idieresis" unicode="&#xef;" horiz-adv-x="208" 
d="M144 0h-79v420h79v-420zM241 544c0 -27 -23 -50 -50 -50c-28 0 -51 23 -51 50c0 28 23 51 51 51c27 0 50 -23 50 -51zM68 544c0 -27 -23 -50 -51 -50c-27 0 -50 23 -50 50c0 28 23 51 50 51c28 0 51 -23 51 -51z" />
    <glyph glyph-name="Idotaccent" unicode="&#x130;" horiz-adv-x="249" 
d="M165 0h-80v733h80v-733zM74 864c0 28 23 51 50 51c28 0 51 -23 51 -51c0 -27 -23 -50 -51 -50c-27 0 -50 23 -50 50z" />
    <glyph glyph-name="dotlessi" unicode="&#x131;" horiz-adv-x="208" 
d="M144 0h-79v420h79v-420z" />
    <glyph glyph-name="Igrave" unicode="&#xcc;" horiz-adv-x="249" 
d="M165 0h-80v733h80v-733zM181 836l-26 -42l-191 89l42 78z" />
    <glyph glyph-name="igrave" unicode="&#xec;" horiz-adv-x="208" 
d="M144 0h-79v420h79v-420zM161 516l-26 -42l-191 89l42 78z" />
    <glyph glyph-name="Imacron" unicode="&#x12a;" horiz-adv-x="249" 
d="M165 0h-80v733h80v-733zM268 821h-287v67h287v-67z" />
    <glyph glyph-name="imacron" unicode="&#x12b;" horiz-adv-x="208" 
d="M144 0h-79v420h79v-420zM248 501h-287v67h287v-67z" />
    <glyph glyph-name="Iogonek" unicode="&#x12e;" horiz-adv-x="249" 
d="M196 -168c-26 -34 -53 -50 -90 -51c-50 -1 -83 35 -82 81c1 38 16 73 76 138h-15v733h80v-733h-10c-49 -60 -68 -97 -68 -128c0 -25 13 -39 32 -39c17 0 29 7 47 27z" />
    <glyph glyph-name="iogonek" unicode="&#x12f;" horiz-adv-x="200" 
d="M173 -168c-26 -34 -53 -50 -90 -51c-50 -1 -83 35 -82 81c1 38 16 73 76 138h-16v420h79v-420h-8c-49 -60 -68 -97 -68 -128c0 -25 13 -39 32 -39c17 0 29 7 47 27zM151 565c0 -27 -22 -50 -50 -50s-50 23 -50 50c0 28 22 51 50 51s50 -23 50 -51z" />
    <glyph glyph-name="Kcommaaccent" unicode="&#x136;" horiz-adv-x="599" 
d="M596 0h-105l-331 360v-360h-80v733h80v-341l319 341h101l-340 -356zM366 -119c0 -47 -33 -112 -104 -154l-11 16c37 32 56 70 64 99c-32 2 -52 24 -52 51s22 49 49 49c35 0 54 -28 54 -61z" />
    <glyph glyph-name="kcommaaccent" unicode="&#x137;" horiz-adv-x="422" 
d="M421 0h-98l-188 207v-207h-79v733h79v-498l178 185h98l-203 -196zM269 -134c0 -47 -33 -112 -104 -154l-11 16c37 32 56 70 64 99c-32 2 -52 24 -52 51s22 49 49 49c35 0 54 -28 54 -61z" />
    <glyph glyph-name="Lacute" unicode="&#x139;" horiz-adv-x="527" 
d="M509 0h-429v733h80v-661h349v-72zM323 883l-191 -89l-23 44l175 125z" />
    <glyph glyph-name="lacute" unicode="&#x13a;" horiz-adv-x="199" 
d="M139 0h-79v733h79v-733zM290 873l-191 -89l-23 44l175 125z" />
    <glyph glyph-name="Lcaron" unicode="&#x13d;" horiz-adv-x="527" 
d="M509 0h-429v733h80v-661h349v-72zM285 733l75 -12c0 -87 -36 -144 -91 -189l-38 29c35 41 51 94 54 172z" />
    <glyph glyph-name="lcaron" unicode="&#x13e;" horiz-adv-x="199" 
d="M139 0h-79v733h79v-733zM233 733l75 -12c0 -87 -36 -144 -91 -189l-38 29c35 41 51 94 54 172z" />
    <glyph glyph-name="Lcommaaccent" unicode="&#x13b;" horiz-adv-x="527" 
d="M509 0h-429v733h80v-661h349v-72zM337 -134c0 -47 -33 -112 -104 -154l-11 16c37 32 56 70 64 99c-32 2 -52 24 -52 51s22 49 49 49c35 0 54 -28 54 -61z" />
    <glyph glyph-name="lcommaaccent" unicode="&#x13c;" horiz-adv-x="199" 
d="M139 0h-79v733h79v-733zM151 -134c0 -47 -33 -112 -104 -154l-11 16c37 32 56 70 64 99c-32 2 -52 24 -52 51s22 49 49 49c35 0 54 -28 54 -61z" />
    <glyph glyph-name="Ldot" unicode="&#x13f;" horiz-adv-x="527" 
d="M509 0h-429v733h80v-661h349v-72zM347 371c0 -27 23 -50 50 -50c28 0 51 23 51 50c0 28 -23 51 -51 51c-27 0 -50 -23 -50 -51z" />
    <glyph glyph-name="ldot" unicode="&#x140;" horiz-adv-x="280" 
d="M139 0h-79v733h79v-733zM189 366c0 -27 23 -50 50 -50c28 0 51 23 51 50c0 28 -23 51 -51 51c-27 0 -50 -23 -50 -51z" />
    <glyph glyph-name="Lslash" unicode="&#x141;" horiz-adv-x="527" 
d="M509 0h-429v303l-58 -26v79l58 26v351h80v-315l87 40v-79s-87 -39 -87 -40v-267h349v-72z" />
    <glyph glyph-name="lslash" unicode="&#x142;" horiz-adv-x="209" 
d="M187 359l-43 -21v-338h-79v298l-43 -21v79l43 21v356h79v-316l43 21v-79z" />
    <glyph glyph-name="Nacute" unicode="&#x143;" horiz-adv-x="726" 
d="M646 -11l-10 -3l-476 570v-556h-80v743l16 4l470 -561v547h80v-744zM521 868l-191 -89l-23 44l175 125z" />
    <glyph glyph-name="nacute" unicode="&#x144;" horiz-adv-x="479" 
d="M427 0h-79v264c0 65 -24 98 -85 98c-47 0 -96 -33 -128 -68v-294h-79v420h75v-64c44 44 99 72 155 72c97 0 141 -59 141 -143v-285zM399 563l-191 -89l-23 44l175 125z" />
    <glyph glyph-name="Ncaron" unicode="&#x147;" horiz-adv-x="726" 
d="M646 -11l-10 -3l-476 570v-556h-80v743l16 4l470 -561v547h80v-744zM509 943l-134 -161h-28l-130 161h81l67 -86l66 86h78z" />
    <glyph glyph-name="ncaron" unicode="&#x148;" horiz-adv-x="479" 
d="M427 0h-79v264c0 65 -24 98 -85 98c-47 0 -96 -33 -128 -68v-294h-79v420h75v-64c44 44 99 72 155 72c97 0 141 -59 141 -143v-285zM387 638l-134 -161h-28l-130 161h81l67 -86l66 86h78z" />
    <glyph glyph-name="Ncommaaccent" unicode="&#x145;" horiz-adv-x="726" 
d="M646 -11l-10 -3l-476 570v-556h-80v743l16 4l470 -561v547h80v-744zM415 -119c0 -47 -33 -112 -104 -154l-11 16c37 32 56 70 64 99c-32 2 -52 24 -52 51s22 49 49 49c35 0 54 -28 54 -61z" />
    <glyph glyph-name="ncommaaccent" unicode="&#x146;" horiz-adv-x="479" 
d="M427 0h-79v264c0 65 -24 98 -85 98c-47 0 -96 -33 -128 -68v-294h-79v420h75v-64c44 44 99 72 155 72c97 0 141 -59 141 -143v-285zM293 -134c0 -47 -33 -112 -104 -154l-11 16c37 32 56 70 64 99c-32 2 -52 24 -52 51s22 49 49 49c35 0 54 -28 54 -61z" />
    <glyph glyph-name="Ntilde" unicode="&#xd1;" horiz-adv-x="726" 
d="M646 -11l-10 -3l-476 570v-556h-80v743l16 4l470 -561v547h80v-744zM514 849c-28 -36 -63 -54 -95 -54c-20 0 -39 7 -58 19c-18 13 -35 19 -49 19c-21 0 -39 -13 -58 -37l-36 47c28 36 63 54 95 54c20 0 39 -7 57 -19c19 -13 35 -19 50 -19c21 0 39 13 58 37z" />
    <glyph glyph-name="ntilde" unicode="&#xf1;" horiz-adv-x="479" 
d="M427 0h-79v264c0 65 -24 98 -85 98c-47 0 -96 -33 -128 -68v-294h-79v420h75v-64c44 44 99 72 155 72c97 0 141 -59 141 -143v-285zM392 544c-28 -36 -63 -54 -95 -54c-20 0 -39 7 -58 19c-18 13 -35 19 -49 19c-21 0 -39 -13 -58 -37l-36 47c28 36 63 54 95 54
c20 0 39 -7 57 -19c19 -13 35 -19 50 -19c21 0 39 13 58 37z" />
    <glyph glyph-name="Oacute" unicode="&#xd3;" horiz-adv-x="841" 
d="M786 366c0 -220 -171 -378 -369 -378s-362 158 -362 378s171 379 369 379s362 -159 362 -379zM699 366c0 173 -116 307 -278 307c-163 0 -279 -134 -279 -307s116 -307 279 -307c162 0 278 134 278 307zM578 883l-191 -89l-23 44l175 125z" />
    <glyph glyph-name="oacute" unicode="&#xf3;" horiz-adv-x="505" 
d="M465 210c0 -120 -84 -218 -212 -218s-213 98 -213 218s85 218 213 218s212 -98 212 -218zM387 210c0 92 -54 154 -134 154c-81 0 -135 -62 -135 -154s54 -154 135 -154c80 0 134 62 134 154zM410 563l-191 -89l-23 44l175 125z" />
    <glyph glyph-name="Obreve" unicode="&#x14e;" horiz-adv-x="841" 
d="M786 366c0 -220 -171 -378 -369 -378s-362 158 -362 378s171 379 369 379s362 -159 362 -379zM699 366c0 173 -116 307 -278 307c-163 0 -279 -134 -279 -307s116 -307 279 -307c162 0 278 134 278 307zM542 919c0 -63 -45 -117 -122 -117c-76 0 -121 54 -121 117l72 6
c0 -40 18 -63 49 -63c32 0 50 23 50 63z" />
    <glyph glyph-name="obreve" unicode="&#x14f;" horiz-adv-x="505" 
d="M465 210c0 -120 -84 -218 -212 -218s-213 98 -213 218s85 218 213 218s212 -98 212 -218zM387 210c0 92 -54 154 -134 154c-81 0 -135 -62 -135 -154s54 -154 135 -154c80 0 134 62 134 154zM374 599c0 -63 -45 -117 -122 -117c-76 0 -121 54 -121 117l72 6
c0 -40 18 -63 49 -63c32 0 50 23 50 63z" />
    <glyph glyph-name="Ocircumflex" unicode="&#xd4;" horiz-adv-x="841" 
d="M786 366c0 -220 -171 -378 -369 -378s-362 158 -362 378s171 379 369 379s362 -159 362 -379zM699 366c0 173 -116 307 -278 307c-163 0 -279 -134 -279 -307s116 -307 279 -307c162 0 278 134 278 307zM566 809h-82l-67 85l-66 -85h-77l133 160h29z" />
    <glyph glyph-name="ocircumflex" unicode="&#xf4;" horiz-adv-x="505" 
d="M465 210c0 -120 -84 -218 -212 -218s-213 98 -213 218s85 218 213 218s212 -98 212 -218zM387 210c0 92 -54 154 -134 154c-81 0 -135 -62 -135 -154s54 -154 135 -154c80 0 134 62 134 154zM398 489h-82l-67 85l-66 -85h-77l133 160h29z" />
    <glyph glyph-name="Odieresis" unicode="&#xd6;" horiz-adv-x="841" 
d="M786 366c0 -220 -171 -378 -369 -378s-362 158 -362 378s171 379 369 379s362 -159 362 -379zM699 366c0 173 -116 307 -278 307c-163 0 -279 -134 -279 -307s116 -307 279 -307c162 0 278 134 278 307zM557 864c0 -27 -23 -50 -50 -50c-28 0 -51 23 -51 50
c0 28 23 51 51 51c27 0 50 -23 50 -51zM384 864c0 -27 -23 -50 -51 -50c-27 0 -50 23 -50 50c0 28 23 51 50 51c28 0 51 -23 51 -51z" />
    <glyph glyph-name="odieresis" unicode="&#xf6;" horiz-adv-x="505" 
d="M465 210c0 -120 -84 -218 -212 -218s-213 98 -213 218s85 218 213 218s212 -98 212 -218zM387 210c0 92 -54 154 -134 154c-81 0 -135 -62 -135 -154s54 -154 135 -154c80 0 134 62 134 154zM389 544c0 -27 -23 -50 -50 -50c-28 0 -51 23 -51 50c0 28 23 51 51 51
c27 0 50 -23 50 -51zM216 544c0 -27 -23 -50 -51 -50c-27 0 -50 23 -50 50c0 28 23 51 50 51c28 0 51 -23 51 -51z" />
    <glyph glyph-name="Ograve" unicode="&#xd2;" horiz-adv-x="841" 
d="M786 366c0 -220 -171 -378 -369 -378s-362 158 -362 378s171 379 369 379s362 -159 362 -379zM699 366c0 173 -116 307 -278 307c-163 0 -279 -134 -279 -307s116 -307 279 -307c162 0 278 134 278 307zM477 836l-26 -42l-191 89l42 78z" />
    <glyph glyph-name="ograve" unicode="&#xf2;" horiz-adv-x="505" 
d="M465 210c0 -120 -84 -218 -212 -218s-213 98 -213 218s85 218 213 218s212 -98 212 -218zM387 210c0 92 -54 154 -134 154c-81 0 -135 -62 -135 -154s54 -154 135 -154c80 0 134 62 134 154zM309 516l-26 -42l-191 89l42 78z" />
    <glyph glyph-name="Ohungarumlaut" unicode="&#x150;" horiz-adv-x="841" 
d="M786 366c0 -220 -171 -378 -369 -378s-362 158 -362 378s171 379 369 379s362 -159 362 -379zM699 366c0 173 -116 307 -278 307c-163 0 -279 -134 -279 -307s116 -307 279 -307c162 0 278 134 278 307zM471 956l-111 -154l-38 25l82 171zM607 945l-112 -155l-38 25
l82 172z" />
    <glyph glyph-name="ohungarumlaut" unicode="&#x151;" horiz-adv-x="505" 
d="M465 210c0 -120 -84 -218 -212 -218s-213 98 -213 218s85 218 213 218s212 -98 212 -218zM387 210c0 92 -54 154 -134 154c-81 0 -135 -62 -135 -154s54 -154 135 -154c80 0 134 62 134 154zM303 636l-111 -154l-38 25l82 171zM439 625l-112 -155l-38 25l82 172z" />
    <glyph glyph-name="Omacron" unicode="&#x14c;" horiz-adv-x="841" 
d="M786 366c0 -220 -171 -378 -369 -378s-362 158 -362 378s171 379 369 379s362 -159 362 -379zM699 366c0 173 -116 307 -278 307c-163 0 -279 -134 -279 -307s116 -307 279 -307c162 0 278 134 278 307zM564 821h-287v67h287v-67z" />
    <glyph glyph-name="omacron" unicode="&#x14d;" horiz-adv-x="505" 
d="M465 210c0 -120 -84 -218 -212 -218s-213 98 -213 218s85 218 213 218s212 -98 212 -218zM387 210c0 92 -54 154 -134 154c-81 0 -135 -62 -135 -154s54 -154 135 -154c80 0 134 62 134 154zM396 501h-287v67h287v-67z" />
    <glyph glyph-name="Oslash" unicode="&#xd8;" horiz-adv-x="841" 
d="M786 366c0 -220 -171 -378 -369 -378c-87 0 -168 31 -231 84c-35 -37 -74 -78 -74 -78l-49 50s75 77 74 77c-51 65 -82 149 -82 245c0 220 171 379 369 379c87 0 168 -31 231 -85l74 78l49 -49l-75 -78c52 -65 83 -149 83 -245zM601 604c-48 44 -109 69 -180 69
c-163 0 -279 -134 -279 -307c0 -70 19 -134 53 -185zM699 366c0 70 -19 134 -53 185c0 0 -406 -423 -406 -424c48 -43 110 -68 181 -68c162 0 278 134 278 307z" />
    <glyph glyph-name="oslash" unicode="&#xf8;" horiz-adv-x="505" 
d="M477 384l-49 -46c24 -36 37 -80 37 -128c0 -122 -84 -218 -212 -218c-55 0 -101 17 -137 47l-49 -47l-39 39l51 48c-25 37 -39 82 -39 131c0 122 85 218 213 218c56 0 104 -18 139 -50l47 45zM132 130l211 201c-23 22 -54 33 -90 33c-83 0 -136 -58 -136 -154
c0 -31 5 -57 15 -80zM374 286l-209 -200c23 -20 52 -30 88 -30c82 0 135 58 135 154c0 29 -5 54 -14 76z" />
    <glyph glyph-name="Oslashacute" unicode="&#x1fe;" horiz-adv-x="841" 
d="M786 366c0 -220 -171 -378 -369 -378c-87 0 -168 31 -231 84c-35 -37 -74 -78 -74 -78l-49 50s75 77 74 77c-51 65 -82 149 -82 245c0 220 171 379 369 379c87 0 168 -31 231 -85l74 78l49 -49l-75 -78c52 -65 83 -149 83 -245zM601 604c-48 44 -109 69 -180 69
c-163 0 -279 -134 -279 -307c0 -70 19 -134 53 -185zM699 366c0 70 -19 134 -53 185c0 0 -406 -423 -406 -424c48 -43 110 -68 181 -68c162 0 278 134 278 307zM578 883l-191 -89l-23 44l175 125z" />
    <glyph glyph-name="oslashacute" unicode="&#x1ff;" horiz-adv-x="505" 
d="M477 384l-49 -46c24 -36 37 -80 37 -128c0 -122 -84 -218 -212 -218c-55 0 -101 17 -137 47l-49 -47l-39 39l51 48c-25 37 -39 82 -39 131c0 122 85 218 213 218c56 0 104 -18 139 -50l47 45zM132 130l211 201c-23 22 -54 33 -90 33c-83 0 -136 -58 -136 -154
c0 -31 5 -57 15 -80zM374 286l-209 -200c23 -20 52 -30 88 -30c82 0 135 58 135 154c0 29 -5 54 -14 76zM410 563l-191 -89l-23 44l175 125z" />
    <glyph glyph-name="Otilde" unicode="&#xd5;" horiz-adv-x="841" 
d="M786 366c0 -220 -171 -378 -369 -378s-362 158 -362 378s171 379 369 379s362 -159 362 -379zM699 366c0 173 -116 307 -278 307c-163 0 -279 -134 -279 -307s116 -307 279 -307c162 0 278 134 278 307zM571 864c-28 -36 -63 -54 -95 -54c-20 0 -39 7 -58 19
c-18 13 -35 19 -49 19c-21 0 -39 -13 -58 -37l-36 47c28 36 63 54 95 54c20 0 39 -7 57 -19c19 -13 35 -19 50 -19c21 0 39 13 58 37z" />
    <glyph glyph-name="otilde" unicode="&#xf5;" horiz-adv-x="505" 
d="M465 210c0 -120 -84 -218 -212 -218s-213 98 -213 218s85 218 213 218s212 -98 212 -218zM387 210c0 92 -54 154 -134 154c-81 0 -135 -62 -135 -154s54 -154 135 -154c80 0 134 62 134 154zM403 544c-28 -36 -63 -54 -95 -54c-20 0 -39 7 -58 19c-18 13 -35 19 -49 19
c-21 0 -39 -13 -58 -37l-36 47c28 36 63 54 95 54c20 0 39 -7 57 -19c19 -13 35 -19 50 -19c21 0 39 13 58 37z" />
    <glyph glyph-name="OE" unicode="&#x152;" horiz-adv-x="1080" 
d="M1015 0h-415c-39 -3 -80 -6 -126 -6c-275 0 -419 177 -419 365c0 198 137 379 412 379c45 0 87 -2 126 -5h422v-72h-349v-253h314v-72h-314v-264h349v-72zM586 71v591c-31 6 -71 8 -129 8c-216 0 -315 -136 -315 -311c0 -170 112 -296 325 -296c44 0 93 3 119 8z" />
    <glyph glyph-name="oe" unicode="&#x153;" horiz-adv-x="805" 
d="M774 226c0 -14 -1 -25 -3 -40h-308c8 -72 48 -126 156 -126c36 0 77 10 116 23l14 -67c-47 -14 -98 -24 -136 -24c-93 0 -155 36 -190 91c-35 -55 -92 -91 -170 -91c-128 0 -213 98 -213 218s85 218 213 218c77 0 136 -36 171 -92c32 54 88 92 166 92
c118 0 184 -88 184 -202zM701 246c-5 65 -42 116 -117 116c-68 0 -109 -44 -118 -116h235zM387 210c0 92 -54 154 -134 154c-81 0 -135 -62 -135 -154s54 -154 135 -154c80 0 134 62 134 154z" />
    <glyph glyph-name="Racute" unicode="&#x154;" horiz-adv-x="594" 
d="M585 0h-97l-195 289c-16 -1 -32 -2 -49 -2c-24 0 -59 1 -83 2v-289h-80v726c54 7 108 12 169 12c189 0 282 -94 282 -220c0 -102 -57 -179 -160 -212zM446 513c0 86 -64 153 -184 153c-34 0 -75 -2 -101 -8v-298c24 -3 61 -5 89 -5c137 0 196 63 196 158zM446 883
l-191 -89l-23 44l175 125z" />
    <glyph glyph-name="racute" unicode="&#x155;" horiz-adv-x="296" 
d="M281 351c-61 0 -117 -22 -146 -64v-287h-79v420h75v-70c40 52 95 78 150 78v-77zM317 563l-191 -89l-23 44l175 125z" />
    <glyph glyph-name="Rcaron" unicode="&#x158;" horiz-adv-x="594" 
d="M585 0h-97l-195 289c-16 -1 -32 -2 -49 -2c-24 0 -59 1 -83 2v-289h-80v726c54 7 108 12 169 12c189 0 282 -94 282 -220c0 -102 -57 -179 -160 -212zM446 513c0 86 -64 153 -184 153c-34 0 -75 -2 -101 -8v-298c24 -3 61 -5 89 -5c137 0 196 63 196 158zM434 958
l-134 -161h-28l-130 161h81l67 -86l66 86h78z" />
    <glyph glyph-name="rcaron" unicode="&#x159;" horiz-adv-x="296" 
d="M281 351c-61 0 -117 -22 -146 -64v-287h-79v420h75v-70c40 52 95 78 150 78v-77zM305 638l-134 -161h-28l-130 161h81l67 -86l66 86h78z" />
    <glyph glyph-name="Rcommaaccent" unicode="&#x156;" horiz-adv-x="594" 
d="M585 0h-97l-195 289c-16 -1 -32 -2 -49 -2c-24 0 -59 1 -83 2v-289h-80v726c54 7 108 12 169 12c189 0 282 -94 282 -220c0 -102 -57 -179 -160 -212zM446 513c0 86 -64 153 -184 153c-34 0 -75 -2 -101 -8v-298c24 -3 61 -5 89 -5c137 0 196 63 196 158zM340 -119
c0 -47 -33 -112 -104 -154l-11 16c37 32 56 70 64 99c-32 2 -52 24 -52 51s22 49 49 49c35 0 54 -28 54 -61z" />
    <glyph glyph-name="rcommaaccent" unicode="&#x157;" horiz-adv-x="296" 
d="M281 351c-61 0 -117 -22 -146 -64v-287h-79v420h75v-70c40 52 95 78 150 78v-77zM152 -134c0 -47 -33 -112 -104 -154l-11 16c37 32 56 70 64 99c-32 2 -52 24 -52 51s22 49 49 49c35 0 54 -28 54 -61z" />
    <glyph glyph-name="Sacute" unicode="&#x15a;" horiz-adv-x="502" 
d="M461 198c0 -119 -97 -210 -224 -210c-83 0 -148 26 -212 68l39 70c56 -40 120 -65 177 -65c94 0 138 62 138 128c0 64 -25 102 -145 155c-127 56 -174 113 -174 201c0 106 90 200 224 200c62 0 121 -21 163 -50l-36 -68c-36 26 -84 45 -132 45c-92 0 -139 -56 -139 -123
c0 -51 35 -92 125 -133c153 -69 196 -120 196 -218zM425 883l-191 -89l-23 44l175 125z" />
    <glyph glyph-name="sacute" unicode="&#x15b;" horiz-adv-x="354" 
d="M316 124c0 -69 -56 -132 -139 -132c-58 0 -108 21 -150 55l40 56c32 -29 74 -47 106 -47c49 0 72 23 72 60c0 82 -196 61 -196 187c0 66 54 125 143 125c44 0 90 -19 122 -40l-35 -59c-27 19 -56 35 -90 35c-48 0 -68 -24 -68 -54c0 -71 195 -56 195 -186zM346 563
l-191 -89l-23 44l175 125z" />
    <glyph glyph-name="Scaron" unicode="&#x160;" horiz-adv-x="502" 
d="M461 198c0 -119 -97 -210 -224 -210c-83 0 -148 26 -212 68l39 70c56 -40 120 -65 177 -65c94 0 138 62 138 128c0 64 -25 102 -145 155c-127 56 -174 113 -174 201c0 106 90 200 224 200c62 0 121 -21 163 -50l-36 -68c-36 26 -84 45 -132 45c-92 0 -139 -56 -139 -123
c0 -51 35 -92 125 -133c153 -69 196 -120 196 -218zM413 958l-134 -161h-28l-130 161h81l67 -86l66 86h78z" />
    <glyph glyph-name="scaron" unicode="&#x161;" horiz-adv-x="354" 
d="M316 124c0 -69 -56 -132 -139 -132c-58 0 -108 21 -150 55l40 56c32 -29 74 -47 106 -47c49 0 72 23 72 60c0 82 -196 61 -196 187c0 66 54 125 143 125c44 0 90 -19 122 -40l-35 -59c-27 19 -56 35 -90 35c-48 0 -68 -24 -68 -54c0 -71 195 -56 195 -186zM334 638
l-134 -161h-28l-130 161h81l67 -86l66 86h78z" />
    <glyph glyph-name="Scedilla" unicode="&#x15e;" horiz-adv-x="502" 
d="M343 -146c0 -48 -32 -91 -99 -91c-35 0 -70 12 -108 34l23 46c32 -19 58 -27 85 -27c25 0 39 15 39 36c0 24 -25 48 -93 52l-4 8l20 77c-69 6 -125 30 -181 67l39 70c56 -40 120 -65 177 -65c94 0 138 62 138 128c0 64 -25 102 -145 155c-127 56 -174 113 -174 201
c0 106 90 200 224 200c62 0 121 -21 163 -50l-36 -68c-36 26 -84 45 -132 45c-92 0 -139 -56 -139 -123c0 -51 35 -92 125 -133c153 -69 196 -120 196 -218c0 -113 -88 -201 -206 -209l-10 -40c75 -17 98 -56 98 -95z" />
    <glyph glyph-name="scedilla" unicode="&#x15f;" horiz-adv-x="354" 
d="M272 -146c0 -48 -32 -91 -99 -91c-35 0 -70 12 -108 34l23 46c32 -19 58 -27 85 -27c25 0 39 15 39 36c0 24 -25 48 -93 52l-4 8l22 84c-42 7 -78 25 -110 51l40 56c32 -29 74 -47 106 -47c49 0 72 23 72 60c0 82 -196 61 -196 187c0 66 54 125 143 125
c44 0 90 -19 122 -40l-35 -59c-27 19 -56 35 -90 35c-48 0 -68 -24 -68 -54c0 -71 195 -56 195 -186c0 -67 -53 -128 -131 -132l-11 -43c75 -17 98 -56 98 -95z" />
    <glyph glyph-name="Scommaaccent" unicode="&#x218;" horiz-adv-x="502" 
d="M461 198c0 -119 -97 -210 -224 -210c-83 0 -148 26 -212 68l39 70c56 -40 120 -65 177 -65c94 0 138 62 138 128c0 64 -25 102 -145 155c-127 56 -174 113 -174 201c0 106 90 200 224 200c62 0 121 -21 163 -50l-36 -68c-36 26 -84 45 -132 45c-92 0 -139 -56 -139 -123
c0 -51 35 -92 125 -133c153 -69 196 -120 196 -218zM289 -134c0 -47 -33 -112 -104 -154l-11 16c37 32 56 70 64 99c-32 2 -52 24 -52 51s22 49 49 49c35 0 54 -28 54 -61z" />
    <glyph glyph-name="scommaaccent" unicode="&#x219;" horiz-adv-x="354" 
d="M316 124c0 -69 -56 -132 -139 -132c-58 0 -108 21 -150 55l40 56c32 -29 74 -47 106 -47c49 0 72 23 72 60c0 82 -196 61 -196 187c0 66 54 125 143 125c44 0 90 -19 122 -40l-35 -59c-27 19 -56 35 -90 35c-48 0 -68 -24 -68 -54c0 -71 195 -56 195 -186zM225 -134
c0 -47 -33 -112 -104 -154l-11 16c37 32 56 70 64 99c-32 2 -52 24 -52 51s22 49 49 49c35 0 54 -28 54 -61z" />
    <glyph glyph-name="Tcaron" unicode="&#x164;" horiz-adv-x="619" 
d="M594 661h-244v-661h-80v661h-245v72h569v-72zM455 958l-134 -161h-28l-130 161h81l67 -86l66 86h78z" />
    <glyph glyph-name="tcaron" unicode="&#x165;" horiz-adv-x="295" 
d="M282 352h-124v-236c0 -39 22 -55 66 -55c12 0 21 1 35 3l8 -64c-25 -5 -47 -8 -69 -8c-76 0 -117 40 -117 132v228h-67v10l67 65v73l77 57v-137h124v-68zM250 680l75 -12c0 -87 -36 -144 -91 -189l-38 29c35 41 51 94 54 172z" />
    <glyph glyph-name="Tcommaaccent" unicode="&#x162;" horiz-adv-x="619" 
d="M594 661h-244v-661h-80v661h-245v72h569v-72zM361 -134c0 -47 -33 -112 -104 -154l-11 16c37 32 56 70 64 99c-32 2 -52 24 -52 51s22 49 49 49c35 0 54 -28 54 -61z" />
    <glyph glyph-name="tcommaaccent" unicode="&#x163;" horiz-adv-x="295" 
d="M282 352h-124v-236c0 -39 22 -55 66 -55c12 0 21 1 35 3l8 -64c-25 -5 -47 -8 -69 -8c-76 0 -117 40 -117 132v228h-67v10l67 65v73l77 57v-137h124v-68zM221 -134c0 -47 -33 -112 -104 -154l-11 16c37 32 56 70 64 99c-32 2 -52 24 -52 51s22 49 49 49
c35 0 54 -28 54 -61z" />
    <glyph glyph-name="Thorn" unicode="&#xde;" horiz-adv-x="551" 
d="M530 376c0 -147 -107 -252 -287 -252c-25 0 -58 2 -83 4v-128h-80v733h80v-126c29 3 57 4 88 4c189 0 282 -110 282 -235zM444 370c0 86 -63 167 -184 167c-34 0 -74 -2 -100 -8v-327c25 -3 60 -6 88 -6c137 0 196 79 196 174z" />
    <glyph glyph-name="thorn" unicode="&#xfe;" horiz-adv-x="510" 
d="M470 213c0 -123 -88 -221 -213 -221c-45 0 -86 11 -122 31v-239h-79v949h75v-355c34 30 81 50 141 50c111 0 198 -88 198 -215zM392 212c0 83 -52 150 -135 150c-53 0 -92 -19 -123 -50v-207c26 -30 72 -48 121 -48c81 0 137 65 137 155z" />
    <glyph glyph-name="Uacute" unicode="&#xda;" horiz-adv-x="694" 
d="M623 263c0 -170 -113 -275 -277 -275c-168 0 -275 99 -275 275v470h80v-464c0 -147 80 -209 195 -209c114 0 197 63 197 209v464h80v-470zM506 868l-191 -89l-23 44l175 125z" />
    <glyph glyph-name="uacute" unicode="&#xfa;" horiz-adv-x="479" 
d="M423 0h-75v59c-36 -35 -96 -67 -151 -67c-98 0 -145 59 -145 143v285h79v-264c0 -65 28 -98 88 -98c47 0 93 30 125 64v298h79v-420zM395 563l-191 -89l-23 44l175 125z" />
    <glyph glyph-name="Ubreve" unicode="&#x16c;" horiz-adv-x="694" 
d="M623 263c0 -170 -113 -275 -277 -275c-168 0 -275 99 -275 275v470h80v-464c0 -147 80 -209 195 -209c114 0 197 63 197 209v464h80v-470zM470 904c0 -63 -45 -117 -122 -117c-76 0 -121 54 -121 117l72 6c0 -40 18 -63 49 -63c32 0 50 23 50 63z" />
    <glyph glyph-name="ubreve" unicode="&#x16d;" horiz-adv-x="479" 
d="M423 0h-75v59c-36 -35 -96 -67 -151 -67c-98 0 -145 59 -145 143v285h79v-264c0 -65 28 -98 88 -98c47 0 93 30 125 64v298h79v-420zM359 599c0 -63 -45 -117 -122 -117c-76 0 -121 54 -121 117l72 6c0 -40 18 -63 49 -63c32 0 50 23 50 63z" />
    <glyph glyph-name="Ucircumflex" unicode="&#xdb;" horiz-adv-x="694" 
d="M623 263c0 -170 -113 -275 -277 -275c-168 0 -275 99 -275 275v470h80v-464c0 -147 80 -209 195 -209c114 0 197 63 197 209v464h80v-470zM494 794h-82l-67 85l-66 -85h-77l133 160h29z" />
    <glyph glyph-name="ucircumflex" unicode="&#xfb;" horiz-adv-x="479" 
d="M423 0h-75v59c-36 -35 -96 -67 -151 -67c-98 0 -145 59 -145 143v285h79v-264c0 -65 28 -98 88 -98c47 0 93 30 125 64v298h79v-420zM383 489h-82l-67 85l-66 -85h-77l133 160h29z" />
    <glyph glyph-name="Udieresis" unicode="&#xdc;" horiz-adv-x="694" 
d="M623 263c0 -170 -113 -275 -277 -275c-168 0 -275 99 -275 275v470h80v-464c0 -147 80 -209 195 -209c114 0 197 63 197 209v464h80v-470zM485 849c0 -27 -23 -50 -50 -50c-28 0 -51 23 -51 50c0 28 23 51 51 51c27 0 50 -23 50 -51zM312 849c0 -27 -23 -50 -51 -50
c-27 0 -50 23 -50 50c0 28 23 51 50 51c28 0 51 -23 51 -51z" />
    <glyph glyph-name="udieresis" unicode="&#xfc;" horiz-adv-x="479" 
d="M423 0h-75v59c-36 -35 -96 -67 -151 -67c-98 0 -145 59 -145 143v285h79v-264c0 -65 28 -98 88 -98c47 0 93 30 125 64v298h79v-420zM374 544c0 -27 -23 -50 -50 -50c-28 0 -51 23 -51 50c0 28 23 51 51 51c27 0 50 -23 50 -51zM201 544c0 -27 -23 -50 -51 -50
c-27 0 -50 23 -50 50c0 28 23 51 50 51c28 0 51 -23 51 -51z" />
    <glyph glyph-name="Ugrave" unicode="&#xd9;" horiz-adv-x="694" 
d="M623 263c0 -170 -113 -275 -277 -275c-168 0 -275 99 -275 275v470h80v-464c0 -147 80 -209 195 -209c114 0 197 63 197 209v464h80v-470zM405 821l-26 -42l-191 89l42 78z" />
    <glyph glyph-name="ugrave" unicode="&#xf9;" horiz-adv-x="479" 
d="M423 0h-75v59c-36 -35 -96 -67 -151 -67c-98 0 -145 59 -145 143v285h79v-264c0 -65 28 -98 88 -98c47 0 93 30 125 64v298h79v-420zM294 516l-26 -42l-191 89l42 78z" />
    <glyph glyph-name="Uhungarumlaut" unicode="&#x170;" horiz-adv-x="694" 
d="M623 263c0 -170 -113 -275 -277 -275c-168 0 -275 99 -275 275v470h80v-464c0 -147 80 -209 195 -209c114 0 197 63 197 209v464h80v-470zM399 941l-111 -154l-38 25l82 171zM535 930l-112 -155l-38 25l82 172z" />
    <glyph glyph-name="uhungarumlaut" unicode="&#x171;" horiz-adv-x="479" 
d="M423 0h-75v59c-36 -35 -96 -67 -151 -67c-98 0 -145 59 -145 143v285h79v-264c0 -65 28 -98 88 -98c47 0 93 30 125 64v298h79v-420zM288 636l-111 -154l-38 25l82 171zM424 625l-112 -155l-38 25l82 172z" />
    <glyph glyph-name="Umacron" unicode="&#x16a;" horiz-adv-x="694" 
d="M623 263c0 -170 -113 -275 -277 -275c-168 0 -275 99 -275 275v470h80v-464c0 -147 80 -209 195 -209c114 0 197 63 197 209v464h80v-470zM492 806h-287v67h287v-67z" />
    <glyph glyph-name="umacron" unicode="&#x16b;" horiz-adv-x="479" 
d="M423 0h-75v59c-36 -35 -96 -67 -151 -67c-98 0 -145 59 -145 143v285h79v-264c0 -65 28 -98 88 -98c47 0 93 30 125 64v298h79v-420zM381 501h-287v67h287v-67z" />
    <glyph glyph-name="Uogonek" unicode="&#x172;" horiz-adv-x="694" 
d="M434 -168c-26 -34 -53 -50 -90 -51c-50 -1 -83 35 -82 81c1 36 15 68 66 126c-158 7 -257 105 -257 275v470h80v-464c0 -147 80 -209 195 -209c114 0 197 63 197 209v464h80v-470c0 -156 -95 -257 -237 -272c-44 -55 -61 -89 -61 -119c0 -25 13 -39 32 -39
c17 0 29 7 47 27z" />
    <glyph glyph-name="uogonek" unicode="&#x173;" horiz-adv-x="479" 
d="M445 -168c-26 -34 -53 -50 -90 -51c-50 -1 -83 35 -82 81c1 38 16 73 76 138h-1v59c-36 -35 -96 -67 -151 -67c-98 0 -145 59 -145 143v285h79v-264c0 -65 28 -98 88 -98c47 0 93 30 125 64v298h79v-420h-19c-49 -60 -68 -97 -68 -128c0 -25 13 -39 32 -39
c17 0 29 7 47 27z" />
    <glyph glyph-name="Uring" unicode="&#x16e;" horiz-adv-x="694" 
d="M623 263c0 -170 -113 -275 -277 -275c-168 0 -275 99 -275 275v470h80v-464c0 -147 80 -209 195 -209c114 0 197 63 197 209v464h80v-470zM454 892c0 -57 -40 -102 -106 -102s-106 45 -106 102s40 103 106 103s106 -46 106 -103zM399 893c0 33 -22 57 -51 57
s-51 -23 -51 -57s22 -57 51 -57s51 23 51 57z" />
    <glyph glyph-name="uring" unicode="&#x16f;" horiz-adv-x="479" 
d="M423 0h-75v59c-36 -35 -96 -67 -151 -67c-98 0 -145 59 -145 143v285h79v-264c0 -65 28 -98 88 -98c47 0 93 30 125 64v298h79v-420zM343 587c0 -57 -40 -102 -106 -102s-106 45 -106 102s40 103 106 103s106 -46 106 -103zM288 588c0 33 -22 57 -51 57s-51 -23 -51 -57
s22 -57 51 -57s51 23 51 57z" />
    <glyph glyph-name="Wacute" unicode="&#x1e82;" horiz-adv-x="916" 
d="M906 733l-202 -745l-16 -2l-232 580l-228 -580l-16 2l-202 745h81l145 -540l217 546h10l218 -543l144 537h81zM616 883l-191 -89l-23 44l175 125z" />
    <glyph glyph-name="wacute" unicode="&#x1e83;" horiz-adv-x="596" 
d="M592 420l-149 -431h-13l-128 285l-130 -285h-13l-151 431h88l82 -274l116 276h13l124 -276l77 274h84zM458 563l-191 -89l-23 44l175 125z" />
    <glyph glyph-name="Wcircumflex" unicode="&#x174;" horiz-adv-x="916" 
d="M906 733l-202 -745l-16 -2l-232 580l-228 -580l-16 2l-202 745h81l145 -540l217 546h10l218 -543l144 537h81zM604 809h-82l-67 85l-66 -85h-77l133 160h29z" />
    <glyph glyph-name="wcircumflex" unicode="&#x175;" horiz-adv-x="596" 
d="M592 420l-149 -431h-13l-128 285l-130 -285h-13l-151 431h88l82 -274l116 276h13l124 -276l77 274h84zM446 489h-82l-67 85l-66 -85h-77l133 160h29z" />
    <glyph glyph-name="Wdieresis" unicode="&#x1e84;" horiz-adv-x="916" 
d="M906 733l-202 -745l-16 -2l-232 580l-228 -580l-16 2l-202 745h81l145 -540l217 546h10l218 -543l144 537h81zM595 864c0 -27 -23 -50 -50 -50c-28 0 -51 23 -51 50c0 28 23 51 51 51c27 0 50 -23 50 -51zM422 864c0 -27 -23 -50 -51 -50c-27 0 -50 23 -50 50
c0 28 23 51 50 51c28 0 51 -23 51 -51z" />
    <glyph glyph-name="wdieresis" unicode="&#x1e85;" horiz-adv-x="596" 
d="M592 420l-149 -431h-13l-128 285l-130 -285h-13l-151 431h88l82 -274l116 276h13l124 -276l77 274h84zM437 544c0 -27 -23 -50 -50 -50c-28 0 -51 23 -51 50c0 28 23 51 51 51c27 0 50 -23 50 -51zM264 544c0 -27 -23 -50 -51 -50c-27 0 -50 23 -50 50c0 28 23 51 50 51
c28 0 51 -23 51 -51z" />
    <glyph glyph-name="Wgrave" unicode="&#x1e80;" horiz-adv-x="916" 
d="M906 733l-202 -745l-16 -2l-232 580l-228 -580l-16 2l-202 745h81l145 -540l217 546h10l218 -543l144 537h81zM515 836l-26 -42l-191 89l42 78z" />
    <glyph glyph-name="wgrave" unicode="&#x1e81;" horiz-adv-x="596" 
d="M592 420l-149 -431h-13l-128 285l-130 -285h-13l-151 431h88l82 -274l116 276h13l124 -276l77 274h84zM357 516l-26 -42l-191 89l42 78z" />
    <glyph glyph-name="Yacute" unicode="&#xdd;" horiz-adv-x="635" 
d="M615 733l-258 -408v-325h-80v326l-257 407h90l210 -340l207 340h88zM475 868l-191 -89l-23 44l175 125z" />
    <glyph glyph-name="yacute" unicode="&#xfd;" horiz-adv-x="435" 
d="M431 420l-297 -636h-79l126 256l-177 380h88l128 -301l126 301h85zM375 563l-191 -89l-23 44l175 125z" />
    <glyph glyph-name="Ycircumflex" unicode="&#x176;" horiz-adv-x="635" 
d="M615 733l-258 -408v-325h-80v326l-257 407h90l210 -340l207 340h88zM463 794h-82l-67 85l-66 -85h-77l133 160h29z" />
    <glyph glyph-name="ycircumflex" unicode="&#x177;" horiz-adv-x="435" 
d="M431 420l-297 -636h-79l126 256l-177 380h88l128 -301l126 301h85zM363 489h-82l-67 85l-66 -85h-77l133 160h29z" />
    <glyph glyph-name="Ydieresis" unicode="&#x178;" horiz-adv-x="635" 
d="M615 733l-258 -408v-325h-80v326l-257 407h90l210 -340l207 340h88zM454 849c0 -27 -23 -50 -50 -50c-28 0 -51 23 -51 50c0 28 23 51 51 51c27 0 50 -23 50 -51zM281 849c0 -27 -23 -50 -51 -50c-27 0 -50 23 -50 50c0 28 23 51 50 51c28 0 51 -23 51 -51z" />
    <glyph glyph-name="ydieresis" unicode="&#xff;" horiz-adv-x="435" 
d="M431 420l-297 -636h-79l126 256l-177 380h88l128 -301l126 301h85zM354 544c0 -27 -23 -50 -50 -50c-28 0 -51 23 -51 50c0 28 23 51 51 51c27 0 50 -23 50 -51zM181 544c0 -27 -23 -50 -51 -50c-27 0 -50 23 -50 50c0 28 23 51 50 51c28 0 51 -23 51 -51z" />
    <glyph glyph-name="Ygrave" unicode="&#x1ef2;" horiz-adv-x="635" 
d="M615 733l-258 -408v-325h-80v326l-257 407h90l210 -340l207 340h88zM374 821l-26 -42l-191 89l42 78z" />
    <glyph glyph-name="ygrave" unicode="&#x1ef3;" horiz-adv-x="435" 
d="M431 420l-297 -636h-79l126 256l-177 380h88l128 -301l126 301h85zM274 516l-26 -42l-191 89l42 78z" />
    <glyph glyph-name="Zacute" unicode="&#x179;" horiz-adv-x="620" 
d="M578 721l-415 -649h410v-72h-531l-5 11l415 650h-389v72h510zM465 883l-191 -89l-23 44l175 125z" />
    <glyph glyph-name="zacute" unicode="&#x17a;" horiz-adv-x="405" 
d="M385 408l-246 -340h241v-68h-357l-5 11l246 341h-227v68h343zM359 563l-191 -89l-23 44l175 125z" />
    <glyph glyph-name="Zcaron" unicode="&#x17d;" horiz-adv-x="620" 
d="M578 721l-415 -649h410v-72h-531l-5 11l415 650h-389v72h510zM453 958l-134 -161h-28l-130 161h81l67 -86l66 86h78z" />
    <glyph glyph-name="zcaron" unicode="&#x17e;" horiz-adv-x="405" 
d="M385 408l-246 -340h241v-68h-357l-5 11l246 341h-227v68h343zM347 638l-134 -161h-28l-130 161h81l67 -86l66 86h78z" />
    <glyph glyph-name="Zdotaccent" unicode="&#x17b;" horiz-adv-x="620" 
d="M578 721l-415 -649h410v-72h-531l-5 11l415 650h-389v72h510zM257 864c0 28 23 51 50 51c28 0 51 -23 51 -51c0 -27 -23 -50 -51 -50c-27 0 -50 23 -50 50z" />
    <glyph glyph-name="zdotaccent" unicode="&#x17c;" horiz-adv-x="405" 
d="M385 408l-246 -340h241v-68h-357l-5 11l246 341h-227v68h343zM151 544c0 28 23 51 50 51c28 0 51 -23 51 -51c0 -27 -23 -50 -51 -50c-27 0 -50 23 -50 50z" />
    <glyph glyph-name="schwa" unicode="&#x259;" horiz-adv-x="461" 
d="M33 194c0 14 0 25 3 40h308c-9 72 -49 126 -157 126c-35 0 -77 -10 -116 -23l-14 67c48 14 98 24 137 24c151 0 227 -95 227 -216c0 -115 -74 -220 -204 -220c-119 0 -184 88 -184 202zM341 174h-235c5 -65 42 -116 116 -116c68 0 110 44 119 116z" />
    <glyph glyph-name="germandbls" unicode="&#xdf;" horiz-adv-x="489" 
d="M471 408l-137 -185c93 -17 125 -78 125 -146c0 -121 -94 -171 -203 -171c-20 0 -40 2 -60 5l10 68c18 -3 34 -4 49 -4c80 0 127 34 127 98c0 51 -33 91 -119 91c-11 0 -23 0 -36 -2l-6 14l125 176h-203v-352h-78v538c0 130 54 202 165 202c25 0 42 -2 65 -9l-13 -68
c-12 3 -27 5 -39 5c-74 0 -100 -31 -100 -119v-129h323z" />
    <glyph glyph-name="zero" unicode="0" horiz-adv-x="531" 
d="M489 288c0 -161 -79 -298 -224 -298s-221 137 -221 298c0 162 80 298 225 298c144 0 220 -136 220 -298zM407 288c0 126 -46 230 -140 230s-141 -104 -141 -230c0 -125 47 -230 141 -230s140 105 140 230z" />
    <glyph glyph-name="one" unicode="1" horiz-adv-x="341" 
d="M237 0h-79v485l-101 -37l-24 69l191 72h13v-589z" />
    <glyph glyph-name="two" unicode="2" horiz-adv-x="436" 
d="M386 0h-364l-5 11c96 103 160 176 202 231c48 61 78 108 78 169c0 62 -40 102 -109 102c-39 0 -83 -10 -124 -38l-24 64c41 27 96 47 147 47c119 0 192 -70 192 -166c0 -67 -30 -126 -89 -203c-34 -43 -77 -94 -125 -146h221v-71z" />
    <glyph glyph-name="three" unicode="3" horiz-adv-x="422" 
d="M393 565l-184 -235c111 -15 168 -78 168 -168c0 -96 -74 -172 -195 -172c-54 0 -99 10 -150 27l22 66c48 -16 89 -23 124 -23c79 0 122 40 122 105c0 66 -51 104 -152 104c-19 0 -40 -1 -62 -4l-6 9l180 230h-226v72h354z" />
    <glyph glyph-name="four" unicode="4" horiz-adv-x="483" 
d="M461 173h-96v-175h-75v175h-268v20l323 394h20v-343h96v-71zM290 244v173l-142 -173h142z" />
    <glyph glyph-name="five" unicode="5" horiz-adv-x="457" 
d="M405 177c0 -104 -74 -187 -195 -187c-54 0 -105 10 -154 27l21 67c39 -15 81 -25 126 -25c84 0 125 52 125 118c0 61 -45 105 -133 105c-35 0 -71 -3 -106 -12l-9 11v295h298v-72h-224v-152c12 1 30 2 44 2c139 0 207 -76 207 -177z" />
    <glyph glyph-name="six" unicode="6" horiz-adv-x="482" 
d="M434 192c0 -100 -71 -202 -194 -202c-117 0 -196 86 -196 206c0 139 85 285 316 408l34 -60c-123 -68 -204 -135 -244 -219c31 32 64 45 114 45c98 0 170 -81 170 -178zM357 181c0 74 -43 127 -113 127c-79 0 -122 -52 -122 -126c0 -69 52 -125 118 -125
c71 0 117 59 117 124z" />
    <glyph glyph-name="seven" unicode="7" horiz-adv-x="424" 
d="M402 576l-254 -576h-78l227 504h-266v72h371z" />
    <glyph glyph-name="eight" unicode="8" horiz-adv-x="481" 
d="M421 156c0 -90 -71 -166 -181 -166c-109 0 -180 76 -180 166c0 63 37 113 91 140c-51 28 -79 72 -79 128c0 90 68 162 168 162c101 0 168 -72 168 -162c0 -56 -28 -100 -78 -128c54 -27 91 -77 91 -140zM334 424c0 53 -37 97 -94 97c-56 0 -94 -44 -94 -97
c0 -52 38 -97 94 -97c57 0 94 45 94 97zM343 158c0 57 -41 103 -103 103c-61 0 -102 -46 -102 -103c0 -58 41 -103 102 -103c62 0 103 45 103 103z" />
    <glyph glyph-name="nine" unicode="9" horiz-adv-x="472" 
d="M434 382c0 -139 -86 -287 -317 -409l-33 59c123 68 198 133 240 215c-23 -21 -52 -34 -98 -34c-98 0 -177 77 -177 176c0 105 77 197 193 197c121 0 192 -88 192 -204zM353 401c0 69 -46 119 -112 119c-71 0 -115 -55 -115 -119c0 -74 41 -124 111 -124
c79 0 116 50 116 124z" />
    <glyph glyph-name="zero.lin" horiz-adv-x="672" 
d="M618 365c0 -211 -107 -377 -284 -377s-280 166 -280 377s107 380 284 380s280 -169 280 -380zM531 365c0 184 -77 308 -196 308c-120 0 -194 -124 -194 -308s77 -306 196 -306c120 0 194 122 194 306z" />
    <glyph glyph-name="one.lin" horiz-adv-x="403" 
d="M274 0h-79v647l-128 -41l-21 64l212 76h16v-746z" />
    <glyph glyph-name="two.lin" horiz-adv-x="552" 
d="M490 0h-462l-6 15c121 130 191 214 247 282c84 102 115 174 115 240c0 72 -50 131 -140 131c-64 0 -115 -20 -163 -52l-26 69c58 38 125 60 187 60c141 0 229 -85 229 -205c0 -86 -53 -168 -127 -265c-42 -55 -113 -132 -176 -203h322v-72z" />
    <glyph glyph-name="three.lin" horiz-adv-x="535" 
d="M478 217c0 -122 -94 -229 -247 -229c-68 0 -125 12 -190 34l29 68c61 -21 112 -29 157 -29c109 0 172 68 172 153c0 82 -75 146 -203 146c-23 0 -54 -4 -82 -8l-11 14l250 295h-310v72h446l6 -15l-253 -294c142 -12 236 -75 236 -207z" />
    <glyph glyph-name="four.lin" horiz-adv-x="612" 
d="M585 222h-122v-222h-79v222h-356v22l409 500h26v-453h122v-69zM384 291v285l-232 -285h232z" />
    <glyph glyph-name="five.lin" horiz-adv-x="576" 
d="M510 219c0 -131 -99 -231 -251 -231c-68 0 -128 12 -191 33l29 71c49 -19 98 -32 155 -32c119 0 178 67 178 156c0 84 -63 158 -188 158c-38 0 -102 -7 -133 -15l-11 13v361h378v-72h-298v-222c19 3 48 6 74 6c169 0 258 -101 258 -226z" />
    <glyph glyph-name="six.lin" horiz-adv-x="595" 
d="M549 237c0 -126 -90 -250 -246 -250c-147 0 -247 108 -247 261c0 174 108 360 400 514l41 -67c-156 -74 -280 -181 -330 -291c34 37 96 63 160 63c131 0 222 -107 222 -230zM467 228c0 97 -64 172 -160 172c-105 0 -166 -75 -166 -170c0 -94 72 -172 164 -172
c99 0 162 79 162 170z" />
    <glyph glyph-name="seven.lin" horiz-adv-x="527" 
d="M509 733l-316 -733h-85l293 661h-362v72h470z" />
    <glyph glyph-name="eight.lin" horiz-adv-x="568" 
d="M512 195c0 -114 -89 -207 -228 -207s-228 93 -228 207c0 80 46 141 115 175c-64 35 -100 99 -100 169c0 115 86 206 213 206s213 -89 213 -204c0 -70 -36 -136 -100 -171c69 -34 115 -95 115 -175zM420 536c0 81 -52 141 -137 141c-86 0 -135 -60 -135 -141
c0 -74 51 -133 136 -133s136 59 136 133zM431 200c0 79 -58 140 -148 140s-145 -61 -145 -140c0 -80 57 -144 147 -144c91 0 146 64 146 144z" />
    <glyph glyph-name="nine.lin" horiz-adv-x="590" 
d="M46 501c0 130 95 244 244 244c151 0 244 -110 244 -258c0 -173 -111 -363 -402 -516l-40 66c155 74 274 179 326 287c-25 -26 -84 -51 -144 -51c-130 0 -228 103 -228 228zM127 510c0 -96 63 -169 159 -169c105 0 160 74 160 168c0 93 -66 167 -158 167
c-99 0 -161 -77 -161 -166z" />
    <glyph glyph-name="fraction" unicode="&#x2044;" horiz-adv-x="576" 
d="M549 558l-478 -577l-45 37l479 577z" />
    <glyph glyph-name="fraction.lin" horiz-adv-x="698" 
d="M673 713l-599 -722l-48 40l598 722z" />
    <glyph glyph-name="period" unicode="." horiz-adv-x="220" 
d="M59 44c0 28 23 51 51 51c29 0 52 -23 52 -51c0 -29 -23 -52 -52 -52c-28 0 -51 23 -51 52z" />
    <glyph glyph-name="comma" unicode="," horiz-adv-x="220" 
d="M164 34c0 -47 -33 -112 -104 -154l-11 16c37 32 56 70 64 99c-32 2 -52 24 -52 51s22 49 49 49c35 0 54 -28 54 -61z" />
    <glyph glyph-name="colon" unicode=":" horiz-adv-x="220" 
d="M59 44c0 28 23 51 51 51c29 0 52 -23 52 -51c0 -29 -23 -52 -52 -52c-28 0 -51 23 -51 52zM58 318c0 28 23 51 52 51c28 0 51 -23 51 -51c0 -29 -23 -52 -51 -52c-29 0 -52 23 -52 52z" />
    <glyph glyph-name="semicolon" unicode=";" horiz-adv-x="220" 
d="M164 34c0 -47 -33 -112 -104 -154l-11 16c37 32 56 70 64 99c-32 2 -52 24 -52 51s22 49 49 49c35 0 54 -28 54 -61zM58 318c0 28 23 51 52 51c28 0 51 -23 51 -51c0 -29 -23 -52 -51 -52c-29 0 -52 23 -52 52z" />
    <glyph glyph-name="ellipsis" unicode="&#x2026;" horiz-adv-x="700" 
d="M69 44c0 28 23 51 51 51c29 0 52 -23 52 -51c0 -29 -23 -52 -52 -52c-28 0 -51 23 -51 52zM299 44c0 28 23 51 51 51c29 0 52 -23 52 -51c0 -29 -23 -52 -52 -52c-28 0 -51 23 -51 52zM529 44c0 28 23 51 51 51c29 0 52 -23 52 -51c0 -29 -23 -52 -52 -52
c-28 0 -51 23 -51 52z" />
    <glyph glyph-name="periodcentered" unicode="&#xb7;" horiz-adv-x="300" 
d="M99 366c0 28 23 51 51 51c29 0 52 -23 52 -51c0 -29 -23 -52 -52 -52c-28 0 -51 23 -51 52z" />
    <glyph glyph-name="bullet" unicode="&#x2022;" horiz-adv-x="380" 
d="M326 366c0 -77 -61 -139 -136 -139s-136 62 -136 139s61 139 136 139s136 -62 136 -139z" />
    <glyph glyph-name="ampersand" unicode="&#x26;" horiz-adv-x="608" 
d="M513 282l54 -40c-34 -44 -68 -86 -102 -123c30 -26 63 -54 98 -82l-46 -53c-36 28 -70 56 -103 84c-54 -47 -113 -78 -183 -78c-101 0 -181 56 -181 162c0 74 55 127 134 164c-25 41 -39 80 -39 115c0 89 78 155 151 155c93 0 140 -69 140 -128s-32 -125 -143 -171
c31 -38 72 -80 123 -125c34 36 66 78 97 120zM367 450c0 40 -31 74 -71 74s-77 -39 -77 -89c0 -28 13 -61 37 -98c83 35 111 75 111 113zM365 112c-58 53 -108 104 -145 152c-54 -21 -93 -63 -93 -113c0 -58 45 -95 108 -95c47 0 89 22 130 56z" />
    <glyph glyph-name="ampersand.cap" horiz-adv-x="722" 
d="M293 415c80 25 162 77 162 158c0 58 -42 102 -101 102c-64 0 -109 -53 -109 -120c0 -43 16 -90 48 -140zM455 135c-82 71 -149 138 -198 202c-60 -25 -120 -74 -120 -145c0 -75 60 -136 152 -136c54 0 109 30 166 79zM333 359c42 -53 100 -111 173 -175
c45 47 91 104 138 165l58 -40c-47 -61 -94 -121 -142 -171c39 -33 81 -67 128 -103l-47 -53c-47 37 -91 73 -132 107c-69 -61 -142 -101 -223 -101c-121 0 -231 75 -231 204c0 97 76 167 163 201c-32 54 -50 106 -50 157c0 113 93 193 186 193c118 0 176 -88 176 -168
c0 -99 -71 -167 -197 -216z" />
    <glyph glyph-name="exclam" unicode="!" horiz-adv-x="220" 
d="M154 733l-14 -551h-60l-14 551h88zM162 44c0 -29 -23 -52 -52 -52c-28 0 -51 23 -51 52c0 28 23 51 51 51c29 0 52 -23 52 -51z" />
    <glyph glyph-name="exclamdown" unicode="&#xa1;" horiz-adv-x="220" 
d="M58 689c0 29 23 52 52 52c28 0 51 -23 51 -52c0 -28 -23 -51 -51 -51c-29 0 -52 23 -52 51zM66 0l14 551h60l14 -551h-88z" />
    <glyph glyph-name="question" unicode="?" horiz-adv-x="384" 
d="M361 574c0 -147 -183 -179 -183 -294v-77h-73v98c0 122 175 164 175 269c0 59 -39 94 -120 94c-45 0 -77 -8 -116 -23l-22 72c49 17 91 27 145 27c129 0 194 -73 194 -166zM192 44c0 -29 -23 -52 -52 -52c-28 0 -51 23 -51 52c0 28 23 51 51 51c29 0 52 -23 52 -51z" />
    <glyph glyph-name="questiondown" unicode="&#xbf;" horiz-adv-x="384" 
d="M192 689c0 29 23 52 52 52c28 0 51 -23 51 -52c0 -28 -23 -51 -51 -51c-29 0 -52 23 -52 51zM23 159c0 147 183 179 183 294v77h73v-98c0 -122 -175 -164 -175 -269c0 -59 39 -94 120 -94c45 0 77 8 116 23l22 -72c-49 -17 -91 -27 -145 -27c-129 0 -194 73 -194 166z
" />
    <glyph glyph-name="quotedblleft" unicode="&#x201c;" horiz-adv-x="319" 
d="M280 586c0 -27 -22 -49 -49 -49c-35 0 -54 28 -54 62c0 47 33 111 104 153l11 -16c-37 -32 -56 -70 -64 -99c32 -2 52 -24 52 -51zM133 586c0 -27 -22 -49 -49 -49c-35 0 -54 28 -54 62c0 47 33 111 104 153l11 -16c-37 -32 -56 -70 -64 -99c32 -2 52 -24 52 -51z" />
    <glyph glyph-name="quotedblright" unicode="&#x201d;" horiz-adv-x="319" 
d="M289 683c0 -47 -33 -111 -104 -153l-11 16c37 32 56 70 64 99c-32 2 -52 24 -52 51s22 49 49 49c35 0 54 -28 54 -62zM142 683c0 -47 -33 -111 -104 -153l-11 16c37 32 56 70 64 99c-32 2 -52 24 -52 51s22 49 49 49c35 0 54 -28 54 -62z" />
    <glyph glyph-name="quoteleft" unicode="&#x2018;" horiz-adv-x="172" 
d="M133 586c0 -27 -22 -49 -49 -49c-35 0 -54 28 -54 62c0 47 33 111 104 153l11 -16c-37 -32 -56 -70 -64 -99c32 -2 52 -24 52 -51z" />
    <glyph glyph-name="quoteright" unicode="&#x2019;" horiz-adv-x="172" 
d="M142 683c0 -47 -33 -111 -104 -153l-11 16c37 32 56 70 64 99c-32 2 -52 24 -52 51s22 49 49 49c35 0 54 -28 54 -62z" />
    <glyph glyph-name="quotedblbase" unicode="&#x201e;" horiz-adv-x="319" 
d="M287 33c0 -47 -31 -111 -102 -153l-11 16c37 32 56 70 64 99c-32 2 -52 24 -52 51s22 49 49 49c35 0 52 -28 52 -62zM142 33c0 -47 -33 -111 -104 -153l-11 16c37 32 56 70 64 99c-32 2 -52 24 -52 51s22 49 49 49c35 0 54 -28 54 -62z" />
    <glyph glyph-name="quotesinglbase" unicode="&#x201a;" horiz-adv-x="172" 
d="M142 34c0 -47 -33 -112 -104 -154l-11 16c37 32 56 70 64 99c-32 2 -52 24 -52 51s22 49 49 49c35 0 54 -28 54 -61z" />
    <glyph glyph-name="guillemotleft" unicode="&#xab;" horiz-adv-x="423" 
d="M378 9h-79l-105 164l105 163h79l-110 -163zM233 9h-79l-105 164l105 163h79l-110 -163z" />
    <glyph glyph-name="guillemotright" unicode="&#xbb;" horiz-adv-x="423" 
d="M374 173l-105 -164h-79l110 164l-110 163h79zM229 173l-105 -164h-79l110 164l-110 163h79z" />
    <glyph glyph-name="guilsinglleft" unicode="&#x2039;" horiz-adv-x="278" 
d="M233 9h-79l-105 164l105 163h79l-110 -163z" />
    <glyph glyph-name="guilsinglright" unicode="&#x203a;" horiz-adv-x="278" 
d="M229 173l-105 -164h-79l110 164l-110 163h79z" />
    <glyph glyph-name="guillemotleft.cap" horiz-adv-x="423" 
d="M378 207h-79l-105 164l105 163h79l-110 -163zM233 207h-79l-105 164l105 163h79l-110 -163z" />
    <glyph glyph-name="guillemotright.cap" horiz-adv-x="423" 
d="M374 371l-105 -164h-79l110 164l-110 163h79zM229 371l-105 -164h-79l110 164l-110 163h79z" />
    <glyph glyph-name="guilsinglleft.cap" horiz-adv-x="278" 
d="M233 207h-79l-105 164l105 163h79l-110 -163z" />
    <glyph glyph-name="guilsinglright.cap" horiz-adv-x="278" 
d="M229 371l-105 -164h-79l110 164l-110 163h79z" />
    <glyph glyph-name="hyphen" unicode="-" horiz-adv-x="339" 
d="M289 208h-239v68h239v-68z" />
    <glyph glyph-name="endash" unicode="&#x2013;" horiz-adv-x="500" 
d="M450 208h-400v68h400v-68z" />
    <glyph glyph-name="emdash" unicode="&#x2014;" horiz-adv-x="750" 
d="M700 208h-650v68h650v-68z" />
    <glyph glyph-name="hyphen.cap" horiz-adv-x="339" 
d="M289 337h-239v68h239v-68z" />
    <glyph glyph-name="endash.cap" horiz-adv-x="500" 
d="M450 337h-400v68h400v-68z" />
    <glyph glyph-name="emdash.cap" horiz-adv-x="750" 
d="M700 337h-650v68h650v-68z" />
    <glyph glyph-name="slash" unicode="/" horiz-adv-x="337" 
d="M337 733l-238 -949h-71l239 949h70z" />
    <glyph glyph-name="backslash" unicode="\" horiz-adv-x="337" 
d="M309 -216h-71l-238 949h70z" />
    <glyph glyph-name="bar" unicode="|" horiz-adv-x="248" 
d="M158 -216h-68v949h68v-949z" />
    <glyph glyph-name="slash.cap" horiz-adv-x="337" 
d="M323 840l-238 -949h-71l239 949h70z" />
    <glyph glyph-name="backslash.cap" horiz-adv-x="337" 
d="M323 -109h-71l-238 949h70z" />
    <glyph glyph-name="bar.cap" horiz-adv-x="248" 
d="M158 -109h-68v949h68v-949z" />
    <glyph glyph-name="parenleft" unicode="(" horiz-adv-x="344" 
d="M351 -171l-33 -58c-176 107 -268 298 -268 487c0 190 92 380 268 488l33 -58c-153 -93 -229 -262 -229 -430s76 -336 229 -429z" />
    <glyph glyph-name="parenright" unicode=")" horiz-adv-x="344" 
d="M294 258c0 -189 -92 -380 -268 -487l-33 58c153 93 229 261 229 429s-76 337 -229 430l33 58c176 -108 268 -298 268 -488z" />
    <glyph glyph-name="parenleft.cap" horiz-adv-x="340" 
d="M347 -64l-33 -58c-176 107 -268 298 -268 487c0 190 92 380 268 488l33 -58c-153 -93 -229 -262 -229 -430s76 -336 229 -429z" />
    <glyph glyph-name="parenright.cap" horiz-adv-x="340" 
d="M294 365c0 -189 -92 -380 -268 -487l-33 58c153 93 229 261 229 429s-76 337 -229 430l33 58c176 -108 268 -298 268 -488z" />
    <glyph glyph-name="bracketleft" unicode="[" horiz-adv-x="297" 
d="M273 -216h-193v949h193v-64h-121v-822h121v-63z" />
    <glyph glyph-name="bracketright" unicode="]" horiz-adv-x="297" 
d="M217 -216h-193v63h121v822h-121v64h193v-949z" />
    <glyph glyph-name="bracketleft.cap" horiz-adv-x="297" 
d="M273 -109h-193v949h193v-64h-121v-822h121v-63z" />
    <glyph glyph-name="bracketright.cap" horiz-adv-x="297" 
d="M217 -109h-193v63h121v822h-121v64h193v-949z" />
    <glyph glyph-name="braceleft" unicode="{" horiz-adv-x="297" 
d="M279 -223c-111 0 -169 56 -169 173v212c0 43 -13 65 -62 65h-23v63h23c49 0 62 21 62 65v211c0 117 58 174 169 174v-70c-62 0 -97 -25 -97 -100v-199c0 -63 -11 -87 -68 -113c57 -26 68 -49 68 -113v-198c0 -76 35 -101 97 -101v-69z" />
    <glyph glyph-name="braceright" unicode="}" horiz-adv-x="297" 
d="M272 227h-23c-49 0 -62 -22 -62 -65v-212c0 -117 -58 -173 -169 -173v69c62 0 97 25 97 101v198c0 64 11 87 68 113c-57 26 -68 50 -68 113v199c0 75 -35 100 -97 100v70c111 0 169 -57 169 -174v-211c0 -44 13 -65 62 -65h23v-63z" />
    <glyph glyph-name="braceleft.cap" horiz-adv-x="297" 
d="M279 -116c-111 0 -169 56 -169 173v212c0 43 -13 65 -62 65h-23v63h23c49 0 62 21 62 65v211c0 117 58 174 169 174v-70c-62 0 -97 -25 -97 -100v-199c0 -63 -11 -87 -68 -113c57 -26 68 -49 68 -113v-198c0 -76 35 -101 97 -101v-69z" />
    <glyph glyph-name="braceright.cap" horiz-adv-x="297" 
d="M272 334h-23c-49 0 -62 -22 -62 -65v-212c0 -117 -58 -173 -169 -173v69c62 0 97 25 97 101v198c0 64 11 87 68 113c-57 26 -68 50 -68 113v199c0 75 -35 100 -97 100v70c111 0 169 -57 169 -174v-211c0 -44 13 -65 62 -65h23v-63z" />
    <glyph glyph-name="at" unicode="@" horiz-adv-x="684" 
d="M634 313c0 -61 -22 -117 -67 -149c-19 -14 -44 -22 -68 -22c-34 0 -67 16 -83 49c-26 -28 -57 -46 -98 -46c-51 0 -93 32 -93 85c0 46 38 79 94 79c33 0 53 -6 73 -15v11c0 41 -21 59 -64 59c-22 0 -46 -5 -66 -11l-8 50c24 8 58 14 84 14c81 0 119 -38 119 -115v-64
c0 -35 23 -47 45 -47c13 0 26 4 35 10c24 18 39 59 39 106c0 98 -63 223 -234 223c-128 0 -231 -109 -231 -244s93 -244 263 -244c35 0 80 10 119 23l14 -53c-48 -14 -98 -24 -137 -24c-198 0 -320 133 -320 298s131 298 292 298c197 0 292 -145 292 -271zM392 218v33
c-19 12 -34 17 -58 17c-26 0 -47 -12 -47 -37s18 -40 50 -40c24 0 42 11 55 27z" />
    <glyph glyph-name="at.cap" horiz-adv-x="866" 
d="M803 400c0 -77 -28 -148 -85 -189c-24 -18 -56 -27 -86 -27c-43 0 -76 19 -96 62c-33 -36 -77 -59 -129 -59c-65 0 -118 40 -118 107c0 59 48 101 119 101c42 0 69 -8 96 -20v14c0 50 -18 78 -87 78c-28 0 -57 -6 -83 -15l-10 62c30 9 73 17 106 17
c102 0 148 -48 148 -145v-81c0 -44 29 -60 58 -60c16 0 35 5 46 13c30 23 52 75 52 134c0 130 -78 289 -301 289c-168 0 -298 -139 -298 -316c0 -176 116 -313 338 -313c45 0 102 12 151 29l17 -63c-60 -18 -124 -30 -172 -30c-252 0 -406 169 -406 377
c0 209 166 380 370 380c249 0 370 -180 370 -345zM504 277v41c-25 16 -48 23 -79 23c-33 0 -62 -16 -62 -48c0 -31 26 -50 65 -50c31 0 59 13 76 34z" />
    <glyph glyph-name="copyright" unicode="&#xa9;" horiz-adv-x="842" 
d="M792 366c0 -209 -166 -378 -371 -378s-371 169 -371 378s166 379 371 379s371 -170 371 -379zM725 366c0 177 -136 320 -304 320s-304 -143 -304 -320c0 -176 136 -319 304 -319s304 143 304 319zM559 215c-31 -19 -75 -34 -120 -34c-116 0 -198 79 -198 189
c0 108 83 189 198 189c46 0 87 -15 118 -33l-21 -53c-29 16 -66 28 -98 28c-81 0 -129 -54 -129 -131s50 -131 131 -131c32 0 70 12 99 29z" />
    <glyph glyph-name="published" unicode="&#x2117;" horiz-adv-x="842" 
d="M502 428c0 36 -26 68 -77 68c-14 0 -28 -2 -41 -4v-134c12 -1 24 -2 35 -2c57 0 83 30 83 72zM567 429c0 -74 -53 -127 -146 -127c-13 0 -25 1 -37 2v-120h-62v363c32 4 62 6 93 6c100 0 152 -55 152 -124zM792 366c0 -209 -166 -378 -371 -378s-371 169 -371 378
s166 379 371 379s371 -170 371 -379zM725 366c0 177 -136 320 -304 320s-304 -143 -304 -320c0 -176 136 -319 304 -319s304 143 304 319z" />
    <glyph glyph-name="registered.alt" horiz-adv-x="842" 
d="M421 -12c-205 0 -371 169 -371 378s166 379 371 379s371 -170 371 -379s-166 -378 -371 -378zM421 47c168 0 304 143 304 319c0 177 -136 320 -304 320s-304 -143 -304 -320c0 -176 136 -319 304 -319zM308 184v363c29 4 59 6 96 6c104 0 150 -51 150 -116
c0 -47 -26 -86 -71 -106l96 -147h-73l-79 132c-7 -1 -13 -1 -20 -1c-13 0 -25 1 -37 1v-132h-62zM370 494v-125c12 -1 24 -2 36 -2c54 0 82 25 82 68c0 36 -28 62 -76 62c-15 0 -30 -1 -42 -3z" />
    <glyph glyph-name="registered" unicode="&#xae;" horiz-adv-x="386" 
d="M138 488v168c14 2 30 3 47 3c48 0 71 -24 71 -54c0 -21 -11 -42 -32 -50l44 -67h-37l-37 60c-5 -1 -9 -1 -11 -1c-3 0 -6 0 -13 1v-60h-32zM170 630v-56c7 -1 11 -1 16 -1c24 0 36 11 36 31c0 16 -12 27 -34 27c-7 0 -13 0 -18 -1zM193 426c77 0 139 67 139 145
c0 80 -62 146 -139 146c-76 0 -139 -66 -139 -146c0 -79 63 -145 139 -145zM193 398c-94 0 -170 78 -170 173c0 96 76 174 170 174s170 -78 170 -174c0 -94 -76 -173 -170 -173z" />
    <glyph glyph-name="trademark" unicode="&#x2122;" horiz-adv-x="489" 
d="M466 516h-43l-3 117l-63 -88h-5l-64 88l-2 -117h-44l10 219h6l97 -131l95 131h6zM200 692h-66v-176h-45v176h-66v41h177v-41z" />
    <glyph glyph-name="servicemark" unicode="&#x2120;" horiz-adv-x="452" 
d="M23 535l12 40c15 -11 37 -21 60 -21c20 0 28 11 28 23c0 14 -8 21 -42 37c-33 16 -48 35 -48 63c0 33 25 60 74 60c24 0 46 -8 59 -17l-11 -40c-12 8 -31 17 -48 17s-28 -7 -28 -20c0 -15 12 -22 42 -35c34 -15 48 -34 48 -63c0 -36 -25 -66 -75 -66c-27 0 -53 9 -71 22z
M429 516h-43l-3 117l-63 -88h-5l-64 88l-2 -117h-44l10 219h6l97 -131l95 131h6z" />
    <glyph glyph-name="asterisk" unicode="*" horiz-adv-x="380" 
d="M340 604l-109 -30l71 -86l-50 -35l-62 92l-62 -92l-49 35l70 86l-109 30l19 57l106 -39l-6 110h62l-6 -110l106 39z" />
    <glyph glyph-name="dagger" unicode="&#x2020;" horiz-adv-x="455" 
d="M425 492h-158v-336h-75v336h-162v68h162v173h75v-173h158v-68z" />
    <glyph glyph-name="daggerdbl" unicode="&#x2021;" horiz-adv-x="455" 
d="M430 301h-163v-145h-75v145h-157v68h157v151h-162v68h162v145h75v-145h158v-68h-158v-151h163v-68z" />
    <glyph glyph-name="dollar" unicode="$" horiz-adv-x="439" 
d="M225 651l60 -5l-5 -63c48 -6 83 -24 108 -41l-36 -63c-19 14 -48 29 -77 35l-15 -193c87 -40 136 -79 136 -161c0 -94 -73 -162 -162 -170l-5 -65l-60 5l4 62c-54 7 -99 29 -140 58l40 64c32 -25 70 -45 106 -53l16 207c-82 37 -134 76 -134 156c0 81 63 151 158 161z
M319 154c0 41 -26 68 -65 89l-15 -184c48 9 80 41 80 95zM137 429c0 -34 28 -60 64 -80l13 166c-50 -9 -77 -41 -77 -86z" />
    <glyph glyph-name="dollar.lin" horiz-adv-x="503" 
d="M252 825l67 -6l-6 -76c47 -6 90 -23 124 -46l-34 -65c-27 19 -61 34 -96 40l-22 -270c126 -63 169 -119 169 -205c0 -113 -87 -198 -203 -207l-7 -84l-67 6l6 80c-60 8 -112 30 -162 64l37 67c41 -30 87 -50 131 -59l24 289c-119 53 -160 113 -160 198
c0 93 77 179 192 193zM376 189c0 53 -21 92 -98 134l-21 -262c79 9 119 67 119 128zM129 555c0 -45 24 -86 91 -122l19 239c-70 -11 -110 -60 -110 -117z" />
    <glyph glyph-name="sterling" unicode="&#xa3;" horiz-adv-x="439" 
d="M429 543l-38 -66c-40 26 -73 37 -112 37c-72 0 -99 -55 -99 -131v-66h123v-68h-123v-178h245v-71h-390v71h66v178h-66v6l66 68v70c0 109 67 193 189 193c50 0 97 -18 139 -43z" />
    <glyph glyph-name="sterling.lin" horiz-adv-x="576" 
d="M536 0h-485v72h84v257h-83v9l83 69v100c0 139 76 238 230 238c66 0 119 -25 163 -57l-42 -66c-43 29 -80 47 -130 47c-93 0 -141 -56 -141 -156v-113h176v-71h-176v-257h321v-72z" />
    <glyph glyph-name="Euro" unicode="&#x20ac;" horiz-adv-x="651" 
d="M93 325h-65v68h81c43 114 153 193 291 193c74 0 144 -26 193 -56l-33 -64c-48 28 -111 49 -167 49c-95 0 -166 -47 -199 -122h276v-68h-295c-1 -12 -2 -25 -2 -39s1 -27 3 -39h294v-66h-274c35 -75 110 -122 203 -122c57 0 119 21 167 49l27 -64
c-49 -30 -119 -56 -193 -56c-141 0 -251 78 -292 193h-80v66h65c-1 12 -2 25 -2 39s1 27 2 39z" />
    <glyph glyph-name="Euro.lin" horiz-adv-x="796" 
d="M134 417h-87v68h99c45 147 179 260 367 260c98 0 178 -34 237 -68l-31 -61c-63 36 -145 60 -213 60c-141 0 -237 -81 -278 -191h378v-68h-395c-2 -16 -3 -34 -3 -51c0 -18 1 -37 4 -55h394v-68h-377c46 -108 146 -185 284 -185c68 0 150 27 213 63l24 -62
c-59 -34 -143 -70 -237 -70c-188 0 -318 108 -366 254h-100v68h87c-3 19 -4 37 -4 55c0 17 1 34 4 51z" />
    <glyph glyph-name="yen" unicode="&#xa5;" horiz-adv-x="503" 
d="M478 576l-152 -240h123v-68h-156v-67h156v-65h-156v-136h-79v136h-160v65h160v67h-160v68h126l-155 240h90l140 -225l136 225h87z" />
    <glyph glyph-name="yen.lin" horiz-adv-x="677" 
d="M638 733l-226 -353h177v-67h-213v-88h213v-67h-213v-158h-75v158h-213v67h213v88h-213v67h177l-226 353h92l209 -340l210 340h88z" />
    <glyph glyph-name="cent" unicode="&#xa2;" horiz-adv-x="428" 
d="M194 -72l5 73c-99 27 -159 112 -159 207c0 112 83 204 192 218l6 71l65 -5l-5 -67c43 -5 81 -21 112 -40l-32 -60c-26 15 -54 27 -86 32l-23 -297c40 1 76 14 114 35l27 -60c-46 -28 -97 -43 -142 -43h-4l-5 -69zM116 208c0 -63 35 -115 89 -137l22 286
c-65 -13 -111 -65 -111 -149z" />
    <glyph glyph-name="cent.lin" horiz-adv-x="448" 
d="M194 89l5 73c-99 27 -159 112 -159 207c0 112 83 204 192 218l6 71l65 -5l-5 -67c43 -5 81 -21 112 -40l-32 -60c-26 15 -54 27 -86 32l-23 -297c40 1 76 14 114 35l27 -60c-46 -28 -97 -43 -142 -43h-4l-5 -69zM116 369c0 -63 35 -115 89 -137l22 286
c-65 -13 -111 -65 -111 -149z" />
    <glyph glyph-name="numbersign" unicode="#" horiz-adv-x="590" 
d="M565 427l-14 -64h-106l-34 -150h107l-14 -63h-107l-33 -150h-70l33 150h-125l-33 -150h-71l33 150h-106l14 63h106l33 150h-106l14 64h106l34 149h71l-33 -149h124l34 149h70l-33 -149h106zM374 363h-124l-34 -150h125z" />
    <glyph glyph-name="numbersign.lin" horiz-adv-x="747" 
d="M697 466h-138l-45 -202h139l-16 -68h-139l-45 -196h-70l44 196h-180l-46 -196h-71l43 196h-138l15 68h139l43 202h-138l16 68h138l46 199h71l-43 -199h179l47 199h69l-43 -199h139zM305 466l-45 -202h184l44 202h-183z" />
    <glyph glyph-name="paragraph" unicode="&#xb6;" horiz-adv-x="592" 
d="M517 0h-72v506c-17 3 -41 4 -65 5v-511h-72v159c-135 -7 -251 61 -251 197c0 138 118 230 301 230c61 0 103 -5 159 -12v-574zM308 232v278c-109 -10 -165 -68 -165 -150c0 -93 80 -135 165 -128z" />
    <glyph glyph-name="paragraph.lin" horiz-adv-x="697" 
d="M617 0h-79v667c-27 5 -58 6 -95 7v-674h-79v215c-159 -11 -319 76 -319 244c0 172 150 286 376 286c76 0 128 -6 196 -14v-731zM364 286v386c-155 -14 -233 -91 -233 -207c0 -125 107 -188 233 -179z" />
    <glyph glyph-name="section" unicode="&#xa7;" horiz-adv-x="447" 
d="M398 288c0 -44 -22 -76 -62 -96c22 -17 36 -43 36 -73c0 -65 -57 -129 -151 -129c-57 0 -115 21 -156 54l39 57c32 -29 85 -47 122 -47c48 0 73 18 73 54c0 86 -232 55 -232 183c0 45 26 79 69 97c-24 16 -41 38 -41 73c0 65 64 125 153 125c49 0 99 -19 131 -41l-35 -58
c-27 19 -63 35 -98 35c-47 0 -75 -25 -75 -54c0 -68 227 -57 227 -180zM327 277c0 33 -26 53 -125 82c-36 -4 -61 -26 -61 -53c0 -42 60 -52 138 -82c28 7 48 28 48 53z" />
    <glyph glyph-name="section.lin" horiz-adv-x="516" 
d="M460 367c0 -56 -32 -94 -83 -119c26 -19 54 -56 54 -100c0 -81 -62 -160 -189 -160c-70 0 -140 27 -192 69l43 61c41 -36 103 -62 156 -62c68 0 104 34 104 77c0 107 -297 86 -297 238c0 54 31 97 85 120c-31 21 -54 51 -54 96c0 83 69 158 183 158c62 0 125 -24 166 -52
l-38 -63c-34 24 -87 47 -131 47c-61 0 -102 -30 -102 -75c0 -101 295 -83 295 -235zM383 353c0 58 -91 75 -185 108c-38 -11 -65 -42 -65 -76c0 -58 91 -75 185 -108c38 11 65 42 65 76z" />
    <glyph glyph-name="ordfeminine" unicode="&#xaa;" horiz-adv-x="342" 
d="M304 429h-72v31c-23 -23 -53 -36 -91 -36c-61 0 -110 35 -110 97c0 55 45 97 111 97c39 0 63 -9 88 -20v15c0 50 -25 71 -77 71c-27 0 -55 -6 -78 -14l-10 59c29 9 68 16 99 16c95 0 140 -45 140 -135v-181zM230 508v39c-22 13 -43 22 -72 22c-32 0 -56 -14 -56 -45
c0 -30 22 -47 60 -47c28 0 51 13 68 31z" />
    <glyph glyph-name="ordmasculine" unicode="&#xba;" horiz-adv-x="361" 
d="M341 584c0 -88 -63 -160 -161 -160s-160 72 -160 160c0 89 62 161 160 161s161 -72 161 -161zM267 584c0 62 -34 101 -87 101s-86 -39 -86 -101c0 -61 33 -100 86 -100s87 39 87 100z" />
    <glyph glyph-name="degree" unicode="&#xb0;" 
d="M329 582c0 -61 -45 -104 -109 -104s-109 43 -109 104s45 106 109 106s109 -45 109 -106zM273 583c0 34 -21 59 -53 59s-53 -24 -53 -59s21 -59 53 -59s53 24 53 59z" />
    <glyph glyph-name="degree.lin" horiz-adv-x="366" 
d="M316 614c0 -72 -51 -131 -133 -131s-133 59 -133 131s51 131 133 131s133 -59 133 -131zM253 614c0 47 -32 77 -70 77c-39 0 -70 -30 -70 -77s31 -77 70 -77c38 0 70 30 70 77z" />
    <glyph glyph-name="percent" unicode="%" horiz-adv-x="666" 
d="M295 439c0 -80 -44 -147 -124 -147c-79 0 -121 67 -121 147s44 147 123 147c80 0 122 -67 122 -147zM595 558l-479 -577l-45 37l479 577zM616 137c0 -80 -44 -147 -123 -147c-80 0 -121 67 -121 147s43 147 123 147c79 0 121 -67 121 -147zM233 439c0 49 -20 90 -61 90
c-40 0 -61 -41 -61 -90s21 -90 61 -90c41 0 61 41 61 90zM555 137c0 49 -20 90 -61 90s-61 -41 -61 -90s20 -90 61 -90s61 41 61 90z" />
    <glyph glyph-name="perthousand" unicode="&#x2030;" horiz-adv-x="953" 
d="M233 439c0 49 -20 90 -61 90c-40 0 -61 -41 -61 -90s21 -90 61 -90c41 0 61 41 61 90zM295 439c0 -80 -44 -147 -124 -147c-79 0 -121 67 -121 147s44 147 123 147c80 0 122 -67 122 -147zM595 558l-479 -577l-45 37l479 577zM555 137c0 49 -20 90 -61 90
s-61 -41 -61 -90s20 -90 61 -90s61 41 61 90zM616 137c0 -80 -44 -147 -123 -147c-80 0 -121 67 -121 147s43 147 123 147c79 0 121 -67 121 -147zM842 137c0 49 -20 90 -61 90s-61 -41 -61 -90s20 -90 61 -90s61 41 61 90zM903 137c0 -80 -44 -147 -123 -147
c-80 0 -121 67 -121 147s43 147 123 147c79 0 121 -67 121 -147z" />
    <glyph glyph-name="percent.lin" horiz-adv-x="818" 
d="M363 561c0 -100 -54 -184 -154 -184s-154 84 -154 184s54 184 154 184s154 -84 154 -184zM293 561c0 66 -29 121 -84 121c-54 0 -84 -55 -84 -121s30 -121 84 -121c55 0 84 55 84 121zM732 707l-598 -721l-48 40l597 721zM763 172c0 -100 -54 -184 -154 -184
s-154 84 -154 184s54 184 154 184s154 -84 154 -184zM693 172c0 66 -29 121 -84 121c-54 0 -84 -55 -84 -121s30 -121 84 -121c55 0 84 55 84 121z" />
    <glyph glyph-name="perthousand.lin" horiz-adv-x="1180" 
d="M293 561c0 66 -29 121 -84 121c-54 0 -84 -55 -84 -121s30 -121 84 -121c55 0 84 55 84 121zM363 561c0 -100 -54 -184 -154 -184s-154 84 -154 184s54 184 154 184s154 -84 154 -184zM732 707l-598 -721l-48 40l597 721zM693 172c0 66 -29 121 -84 121
c-54 0 -84 -55 -84 -121s30 -121 84 -121c55 0 84 55 84 121zM763 172c0 -100 -54 -184 -154 -184s-154 84 -154 184s54 184 154 184s154 -84 154 -184zM1055 172c0 66 -29 121 -84 121c-54 0 -84 -55 -84 -121s30 -121 84 -121c55 0 84 55 84 121zM1125 172
c0 -100 -54 -184 -154 -184s-154 84 -154 184s54 184 154 184s154 -84 154 -184z" />
    <glyph glyph-name="quotedbl" unicode="&#x22;" horiz-adv-x="402" 
d="M215 645l-127 -177l-44 29l94 196zM372 634l-129 -178l-44 29l94 198z" />
    <glyph glyph-name="quotedbl.cap" horiz-adv-x="380" 
d="M217 714l-127 -177l-44 29l94 196zM374 703l-129 -178l-44 29l94 198z" />
    <glyph glyph-name="quotesingle" unicode="'" horiz-adv-x="245" 
d="M215 645l-127 -177l-44 29l94 196z" />
    <glyph glyph-name="quotesingle.cap" horiz-adv-x="245" 
d="M217 714l-127 -177l-44 29l94 196z" />
    <glyph glyph-name="plus" unicode="+" horiz-adv-x="460" 
d="M400 254h-134v-141h-72v141h-134v68h134v141h72v-141h134v-68z" />
    <glyph glyph-name="plus.lin" horiz-adv-x="460" 
d="M400 337h-134v-141h-72v141h-134v68h134v141h72v-141h134v-68z" />
    <glyph glyph-name="minus" unicode="&#x2212;" horiz-adv-x="460" 
d="M60 254v68h340v-68h-340z" />
    <glyph glyph-name="minus.lin" horiz-adv-x="460" 
d="M60 337v68h340v-68h-340z" />
    <glyph glyph-name="divide" unicode="&#xf7;" horiz-adv-x="460" 
d="M60 254v68h340v-68h-340zM180 424c0 28 22 51 50 51s50 -23 50 -51c0 -27 -22 -50 -50 -50s-50 23 -50 50zM180 151c0 28 22 51 50 51s50 -23 50 -51c0 -27 -22 -50 -50 -50s-50 23 -50 50z" />
    <glyph glyph-name="divide.lin" horiz-adv-x="460" 
d="M60 337v68h340v-68h-340zM180 507c0 28 22 51 50 51s50 -23 50 -51c0 -27 -22 -50 -50 -50s-50 23 -50 50zM180 234c0 28 22 51 50 51s50 -23 50 -51c0 -27 -22 -50 -50 -50s-50 23 -50 50z" />
    <glyph glyph-name="equal" unicode="=" horiz-adv-x="413" 
d="M353 326h-293v68h293v-68zM353 182h-293v68h293v-68z" />
    <glyph glyph-name="equal.lin" horiz-adv-x="413" 
d="M353 409h-293v68h293v-68zM353 265h-293v68h293v-68z" />
    <glyph glyph-name="multiply" unicode="&#xd7;" 
d="M60 400l48 48l112 -112l112 112l48 -48l-112 -112l112 -112l-48 -48l-112 112l-112 -112l-48 48l112 112z" />
    <glyph glyph-name="multiply.lin" 
d="M60 483l48 48l112 -112l112 112l48 -48l-112 -112l112 -112l-48 -48l-112 112l-112 -112l-48 48l112 112z" />
    <glyph glyph-name="less" unicode="&#x3c;" horiz-adv-x="394" 
d="M360 93l-47 -48l-275 243l275 244l47 -52l-218 -194z" />
    <glyph glyph-name="less.lin" horiz-adv-x="394" 
d="M360 176l-47 -48l-275 243l275 244l47 -52l-218 -194z" />
    <glyph glyph-name="greater" unicode="&#x3e;" horiz-adv-x="394" 
d="M356 289l-275 -244l-47 52l218 194l-218 193l47 48z" />
    <glyph glyph-name="greater.lin" horiz-adv-x="394" 
d="M356 372l-275 -244l-47 52l218 194l-218 193l47 48z" />
    <glyph glyph-name="florin" unicode="&#x192;" horiz-adv-x="389" 
d="M382 578l-13 -69c-12 3 -30 5 -42 5c-74 0 -102 -31 -113 -119l-6 -52h100v-68h-108l-31 -275h-79s32 275 31 275h-65l1 7l73 68l4 34c15 130 77 202 188 202c25 0 37 -2 60 -8z" />
    <glyph glyph-name="florin.lin" horiz-adv-x="493" 
d="M483 732l-20 -67c-19 4 -40 8 -56 8c-101 0 -142 -50 -156 -170l-10 -84h149v-72h-157l-40 -347h-79l40 347h-70v9l78 64l9 79c18 157 104 246 232 246c31 0 58 -5 80 -13z" />
    <glyph glyph-name="underscore" unicode="_" horiz-adv-x="520" 
d="M520 0h-520v68h520v-68z" />
    <glyph glyph-name="arrowleft" unicode="&#x2190;" horiz-adv-x="711" 
d="M661 254h-493l193 -159l-42 -50l-286 237v12l286 237l42 -50l-193 -159h493v-68z" />
    <glyph glyph-name="arrowright" unicode="&#x2192;" horiz-adv-x="711" 
d="M50 322h493l-193 159l42 50l286 -237v-12l-286 -237l-42 50l193 159h-493v68z" />
    <glyph glyph-name="arrowleft.cap" horiz-adv-x="711" 
d="M661 337h-493l193 -159l-42 -50l-286 237v12l286 237l42 -50l-193 -159h493v-68z" />
    <glyph glyph-name="arrowright.cap" horiz-adv-x="711" 
d="M50 405h493l-193 159l42 50l286 -237v-12l-286 -237l-42 50l193 159h-493v68z" />
    <glyph glyph-name="asciicircum" unicode="^" 
d="M369 485h-82l-67 85l-66 -85h-77l133 160h29z" />
    <glyph glyph-name="asciitilde" unicode="~" 
d="M367 369c-28 -36 -63 -54 -95 -54c-20 0 -39 7 -58 19c-18 13 -35 19 -49 19c-21 0 -39 -13 -58 -37l-36 47c28 36 63 54 95 54c20 0 39 -7 57 -19c19 -13 35 -19 50 -19c21 0 39 13 58 37z" />
    <glyph glyph-name="hcoslug" horiz-adv-x="694" 
d="M273 18h-26c0 -9 3 -12 10 -12c5 0 8 2 9 7h7c-2 -8 -7 -14 -18 -14c-13 0 -21 8 -21 20s9 21 20 21c14 0 20 -9 19 -22zM254 35c-4 0 -7 -3 -7 -12h14c0 8 -2 12 -7 12zM195 78c5 0 8 4 8 16c0 11 -3 15 -8 15s-8 -4 -8 -15c0 -12 3 -16 8 -16zM210 4c5 0 8 4 8 16
c0 11 -3 15 -8 15s-8 -4 -8 -15c0 -12 3 -16 8 -16zM210 -1c-12 0 -21 8 -21 21c0 12 9 20 21 20s21 -8 21 -20s-9 -21 -21 -21zM546 4c5 0 8 4 8 16c0 11 -3 15 -8 15s-8 -4 -8 -15c0 -12 3 -16 8 -16zM546 -1c-12 0 -21 8 -21 21c0 12 9 20 21 20s21 -8 21 -20
s-9 -21 -21 -21zM125 74v7h7v41h-7v7h51v-20h-8c-2 11 -4 13 -11 13h-12v-18h4c5 0 5 1 6 8h7v-23h-7c-1 7 -1 8 -6 8h-4v-16h10v-7h-30zM195 73c-12 0 -21 8 -21 21c0 12 9 20 21 20s21 -8 21 -20s-9 -21 -21 -21zM644 -100v800h-594v-800h594zM498 -1c-18 0 -29 11 -29 28
c0 18 13 30 27 30c7 0 12 -3 16 -7l1 6h8v-22h-8c-4 12 -7 16 -15 16s-14 -6 -14 -22c0 -15 6 -22 16 -22c8 0 13 7 14 16h8c-1 -14 -9 -23 -24 -23zM372 80c5 0 7 5 7 13s-2 13 -7 13c-6 0 -8 -6 -8 -13c0 -8 2 -13 8 -13zM276 0v7h6v25h-7v7h7v1c0 13 9 19 19 19
c3 0 7 -1 9 -2l10 2v-52h6v-7h-23v7h5v25h-14v-25h5v-7h-23zM368 0v7h6v25h-6v7h18v-10c3 8 7 11 12 11s8 -3 8 -8c0 -4 -3 -7 -7 -7c-3 0 -6 2 -6 6v1c-2 0 -5 -4 -7 -9v-16h8v-7h-26zM352 73v52h-6v7h18v-27c2 6 7 9 13 9c9 0 15 -8 15 -20c0 -9 -4 -21 -16 -21
c-7 0 -11 3 -14 8l-4 -8h-6zM400 75c7 0 8 -7 5 -10c4 0 7 3 8 8c-4 10 -16 33 -16 33h-5v7h25v-7h-6l9 -20l8 20h-5v7h17v-7h-5l-13 -31c-4 -10 -9 -16 -18 -16c-7 0 -11 4 -11 9c0 4 3 7 7 7zM247 428c0 17 11 29 27 29c17 0 29 -15 29 -38c0 -17 -7 -33 -18 -50
c-23 22 -38 36 -38 59zM302 74v14h7c4 -6 7 -9 12 -9c3 0 5 2 5 4c0 8 -24 3 -24 19c0 6 5 12 14 12c5 0 9 -2 11 -5l2 5h6v-13h-7c-3 4 -6 7 -10 7c-3 0 -5 -2 -5 -4c0 -8 24 -2 24 -18c0 -7 -5 -13 -14 -13c-7 0 -10 3 -13 5l-1 -4h-7zM261 219c-30 0 -52 23 -52 54
c0 15 5 29 16 40c18 -17 46 -47 74 -82c-11 -9 -23 -12 -38 -12zM274 122l12 2v-11h13v-7h-13v-20c0 -3 1 -5 4 -5c2 0 4 2 5 7l5 -2c-2 -9 -6 -13 -14 -13s-12 5 -12 13v20h-7v7h7v9zM428 306c-15 -9 -31 -22 -46 -42c25 -29 42 -41 62 -41c21 0 33 12 43 29l7 -2
c-2 -58 -37 -94 -80 -94c-30 0 -52 11 -85 45c-28 -31 -62 -45 -104 -45c-60 0 -109 40 -109 93c0 42 29 73 82 91c-21 22 -31 40 -31 69c0 43 42 85 109 85c62 0 95 -39 95 -74c0 -13 -3 -24 -9 -34c27 1 47 -10 49 -37c16 24 35 38 60 38c28 0 50 -21 50 -52
s-22 -54 -50 -54c-18 0 -34 10 -43 25zM219 74v7h6v25h-6v7h17v-10c3 7 7 11 14 11c9 0 12 -6 12 -14v-19h6v-7h-22v7h4v18c0 4 -2 7 -6 7s-7 -4 -7 -10v-15h4v-7h-22zM446 33h18v-7h-5c-3 -6 -6 -10 -9 -14c2 -3 4 -5 6 -5s3 1 4 5l5 -1c-2 -7 -5 -12 -13 -12
c-5 0 -8 1 -12 6c-4 -4 -9 -6 -15 -6c-12 0 -18 6 -18 14s6 13 13 15c-4 4 -6 7 -6 12c0 7 7 14 17 14c9 0 14 -6 14 -12s-4 -9 -11 -12c5 -5 8 -9 12 -13c2 2 5 6 6 9h-6v7zM429 6c2 0 5 1 8 3c-5 6 -9 11 -14 16c-2 -2 -4 -5 -4 -9c0 -6 4 -10 10 -10zM294 42v-3h14v5
c-3 0 -6 2 -6 6c0 2 1 3 1 3s-1 1 -3 1c-3 0 -6 -2 -6 -12zM425 43c0 -3 2 -6 6 -10c3 2 5 5 5 9c0 3 -2 6 -6 6c-3 0 -5 -2 -5 -5zM312 342c19 13 33 24 42 34c23 -23 18 -47 -1 -80c-13 15 -25 30 -41 46zM366 18h-26c0 -9 3 -12 10 -12c5 0 8 2 9 7h7
c-2 -8 -7 -14 -18 -14c-13 0 -21 8 -21 20s9 21 20 21c14 0 20 -9 19 -22zM347 35c-4 0 -7 -3 -7 -12h14c0 8 -2 12 -7 12zM124 0v7h8v41h-8v7h29v-7h-8v-16h22v16h-8v7h29v-7h-8v-41h8v-7h-29v7h8v18h-22v-18h8v-7h-29zM576 13c4 0 7 -3 7 -7s-3 -7 -7 -7s-7 3 -7 7
s3 7 7 7z" />
    <glyph glyph-name="acute" unicode="&#xb4;" 
d="M324 563l-191 -89l-23 44l175 125z" />
    <glyph glyph-name="hungarumlaut" unicode="&#x2dd;" 
d="M243 636l-111 -154l-38 25l82 171zM379 625l-112 -155l-38 25l82 172z" />
    <glyph glyph-name="caron.alt" horiz-adv-x="225" 
d="M100 738l75 -12c0 -87 -36 -144 -91 -189l-38 29c35 41 51 94 54 172z" />
    <glyph glyph-name="grave" unicode="`" 
d="M342 516l-26 -42l-191 89l42 78z" />
    <glyph glyph-name="circumflex" unicode="&#x2c6;" 
d="M369 489h-82l-67 85l-66 -85h-77l133 160h29z" />
    <glyph glyph-name="caron" unicode="&#x2c7;" 
d="M364 638l-134 -161h-28l-130 161h81l67 -86l66 86h78z" />
    <glyph glyph-name="breve" unicode="&#x2d8;" 
d="M342 599c0 -63 -45 -117 -122 -117c-76 0 -121 54 -121 117l72 6c0 -40 18 -63 49 -63c32 0 50 23 50 63z" />
    <glyph glyph-name="tilde" unicode="&#x2dc;" 
d="M367 544c-28 -36 -63 -54 -95 -54c-20 0 -39 7 -58 19c-18 13 -35 19 -49 19c-21 0 -39 -13 -58 -37l-36 47c28 36 63 54 95 54c20 0 39 -7 57 -19c19 -13 35 -19 50 -19c21 0 39 13 58 37z" />
    <glyph glyph-name="macron" unicode="&#xaf;" 
d="M364 501h-287v67h287v-67z" />
    <glyph glyph-name="dieresis" unicode="&#xa8;" 
d="M357 544c0 -27 -23 -50 -50 -50c-28 0 -51 23 -51 50c0 28 23 51 51 51c27 0 50 -23 50 -51zM184 544c0 -27 -23 -50 -51 -50c-27 0 -50 23 -50 50c0 28 23 51 50 51c28 0 51 -23 51 -51z" />
    <glyph glyph-name="dotaccent" unicode="&#x2d9;" 
d="M170 544c0 28 23 51 50 51c28 0 51 -23 51 -51c0 -27 -23 -50 -51 -50c-27 0 -50 23 -50 50z" />
    <glyph glyph-name="ring" unicode="&#x2da;" 
d="M326 587c0 -57 -40 -102 -106 -102s-106 45 -106 102s40 103 106 103s106 -46 106 -103zM271 588c0 33 -22 57 -51 57s-51 -23 -51 -57s22 -57 51 -57s51 23 51 57z" />
    <glyph glyph-name="commaaccent" unicode="&#x326;" horiz-adv-x="172" 
d="M140 -134c0 -47 -33 -112 -104 -154l-11 16c37 32 56 70 64 99c-32 2 -52 24 -52 51s22 49 49 49c35 0 54 -28 54 -61z" />
    <glyph glyph-name="cedilla" unicode="&#xb8;" 
d="M339 -146c0 -48 -32 -91 -99 -91c-35 0 -70 12 -108 34l23 46c32 -19 58 -27 85 -27c25 0 39 15 39 36c0 24 -25 48 -93 52l-4 8l27 102l46 -12l-14 -53c75 -17 98 -56 98 -95z" />
    <glyph glyph-name="ogonek" unicode="&#x2db;" 
d="M328 -168c-26 -34 -53 -50 -90 -51c-50 -1 -83 35 -82 81c1 44 22 83 108 171l28 -28c-53 -63 -73 -101 -73 -133c0 -25 13 -39 32 -39c17 0 29 7 47 27z" />
    <glyph glyph-name="space" unicode=" " horiz-adv-x="225" 
 />
    <glyph glyph-name="uni00A0" unicode="&#xa0;" horiz-adv-x="245" 
 />
    <glyph glyph-name="emspace" unicode="&#x2003;" horiz-adv-x="1000" 
 />
    <glyph glyph-name="enspace" unicode="&#x2002;" horiz-adv-x="500" 
 />
    <glyph glyph-name="threeperemspace" unicode="&#x2004;" horiz-adv-x="333" 
 />
    <glyph glyph-name="fourperemspace" unicode="&#x2005;" horiz-adv-x="250" 
 />
    <glyph glyph-name="thinspace" unicode="&#x2009;" horiz-adv-x="133" 
 />
    <glyph glyph-name="hairspace" unicode="&#x200a;" horiz-adv-x="75" 
 />
    <glyph glyph-name="NUL" horiz-adv-x="0" 
 />
    <glyph glyph-name="figurespace" unicode="&#x2007;" horiz-adv-x="520" 
 />
    </font>
</defs>
</svg>
