<?xml version="1.0" standalone="no"?>
<!DOCTYPE svg PUBLIC "-//W3C//DTD SVG 1.1//EN" "http://www.w3.org/Graphics/SVG/1.1/DTD/svg11.dtd" >
<svg xmlns="http://www.w3.org/2000/svg" xmlns:xlink="http://www.w3.org/1999/xlink" version="1.1">
<metadata>
Created by FontForge 20160407 at Wed Sep  7 23:21:19 2016
 By Jimmy Warting
Copyright (C) 1996, 2007 Hoefler &#38; Co. http://www.typography.com
</metadata>
<defs>
<font id="Verlag-Bold" horiz-adv-x="459" >
  <font-face 
    font-family="Verlag Bold"
    font-weight="400"
    font-stretch="normal"
    units-per-em="1000"
    panose-1="0 0 0 0 0 0 0 0 0 0"
    ascent="800"
    descent="-200"
    x-height="427"
    cap-height="733"
    bbox="-60 -323 1192 1147"
    underline-thickness="50"
    underline-position="-100"
    stemh="92"
    stemv="113"
    unicode-range="U+0020-FB04"
  />
<missing-glyph horiz-adv-x="500" 
 />
    <glyph glyph-name="f_f_i" unicode="ffi" horiz-adv-x="901" 
d="M356 731l-13 -96c-12 3 -28 4 -42 4c-59 0 -86 -25 -86 -108v-104h120v-92h-120v-335h-113v335h-79v15l79 81v100c0 131 60 209 184 209c27 0 48 -3 70 -9zM679 731l-12 -96c-13 3 -28 4 -43 4c-58 0 -86 -25 -86 -108v-104h121v-92h-121v-335h-113v335h-79v15l79 81v100
c0 131 60 209 184 209c27 0 48 -3 70 -9zM850 575c0 -37 -30 -67 -67 -67s-66 30 -66 67s29 67 66 67s67 -30 67 -67zM840 0h-114v427h114v-427z" />
    <glyph glyph-name="f_f_l" unicode="ffl" horiz-adv-x="898" 
d="M356 731l-13 -96c-12 3 -28 4 -42 4c-59 0 -86 -25 -86 -108v-104h120v-92h-120v-335h-113v335h-79v15l79 81v100c0 131 60 209 184 209c27 0 48 -3 70 -9zM679 731l-12 -96c-13 3 -28 4 -43 4c-58 0 -86 -25 -86 -108v-104h121v-92h-121v-335h-113v335h-79v15l79 81v100
c0 131 60 209 184 209c27 0 48 -3 70 -9zM837 0h-114v733h114v-733z" />
    <glyph glyph-name="f_f" unicode="ff" horiz-adv-x="662" 
d="M356 731l-13 -96c-12 3 -28 4 -42 4c-59 0 -86 -25 -86 -108v-104h120v-92h-120v-335h-113v335h-79v15l79 81v100c0 131 60 209 184 209c27 0 48 -3 70 -9zM679 731l-12 -96c-13 3 -28 4 -43 4c-58 0 -86 -25 -86 -108v-104h121v-92h-121v-335h-113v335h-79v15l79 81v100
c0 131 60 209 184 209c27 0 48 -3 70 -9z" />
    <glyph glyph-name="fi" unicode="fi" horiz-adv-x="578" 
d="M526 575c0 -37 -29 -67 -66 -67s-67 30 -67 67s30 67 67 67s66 -30 66 -67zM356 731l-13 -96c-12 3 -28 4 -42 4c-59 0 -86 -25 -86 -108v-104h120v-92h-120v-335h-113v335h-79v15l79 81v100c0 131 60 209 184 209c27 0 48 -3 70 -9zM516 0h-114v427h114v-427z" />
    <glyph glyph-name="fl" unicode="fl" horiz-adv-x="574" 
d="M356 731l-13 -96c-12 3 -28 4 -42 4c-59 0 -86 -25 -86 -108v-104h120v-92h-120v-335h-113v335h-79v15l79 81v100c0 131 60 209 184 209c27 0 48 -3 70 -9zM513 0h-113v733h113v-733z" />
    <glyph glyph-name=".notdef" horiz-adv-x="500" 
 />
    <glyph glyph-name="A" unicode="A" horiz-adv-x="687" 
d="M690 0h-132l-71 168h-290l-71 -168h-129l338 743h18zM446 267l-104 245l-104 -245h208z" />
    <glyph glyph-name="B" unicode="B" horiz-adv-x="616" 
d="M576 204c0 -109 -101 -211 -298 -211c-62 0 -135 6 -198 14v718c54 8 128 14 188 14c193 0 288 -94 288 -192c0 -77 -36 -133 -128 -167c107 -30 148 -95 148 -176zM427 526c0 61 -45 105 -137 105c-31 0 -62 -3 -87 -7v-203c18 -2 43 -3 74 -3c106 0 150 47 150 108z
M442 217c0 63 -55 112 -163 112c-26 0 -59 -1 -76 -3v-220c25 -3 55 -5 89 -5c100 0 150 47 150 116z" />
    <glyph glyph-name="C" unicode="C" horiz-adv-x="719" 
d="M689 57c-61 -39 -148 -69 -239 -69c-232 0 -395 160 -395 378c0 217 165 379 395 379c91 0 174 -29 236 -67l-43 -106c-58 33 -130 56 -195 56c-161 0 -259 -107 -259 -262c0 -154 101 -261 262 -261c65 0 141 23 200 58z" />
    <glyph glyph-name="D" unicode="D" horiz-adv-x="772" 
d="M717 373c0 -206 -136 -379 -426 -379c-80 0 -137 5 -211 12v720c71 8 131 12 204 12c290 0 433 -167 433 -365zM583 373c0 152 -98 255 -284 255c-36 0 -68 -2 -94 -6v-511c31 -5 57 -6 105 -6c188 0 273 113 273 268z" />
    <glyph glyph-name="E" unicode="E" horiz-adv-x="594" 
d="M527 0h-447v733h447v-114h-322v-192h291v-110h-291v-203h322v-114z" />
    <glyph glyph-name="F" unicode="F" horiz-adv-x="555" 
d="M527 619h-322v-214h283v-111h-283v-294h-125v733h447v-114z" />
    <glyph glyph-name="G" unicode="G" horiz-adv-x="775" 
d="M426 388h291v-320c-78 -51 -163 -80 -273 -80c-209 0 -389 152 -389 378c0 228 183 379 389 379c108 0 185 -30 260 -76l-57 -100c-59 38 -129 61 -197 61c-167 0 -261 -118 -261 -264c0 -156 115 -267 260 -267c63 0 105 11 148 35v144h-171v110z" />
    <glyph glyph-name="G.alt" horiz-adv-x="825" 
d="M419 377h374c12 -236 -144 -389 -354 -389c-209 0 -384 152 -384 378c0 228 183 379 388 379c109 0 186 -30 261 -76l-56 -100c-61 38 -130 61 -199 61c-166 0 -260 -118 -260 -264c0 -156 112 -267 252 -267c127 0 204 76 222 169h-244v109z" />
    <glyph glyph-name="H" unicode="H" horiz-adv-x="747" 
d="M667 0h-125v315h-337v-315h-125v733h125v-306h337v306h125v-733z" />
    <glyph glyph-name="I" unicode="I" horiz-adv-x="295" 
d="M210 0h-125v733h125v-733z" />
    <glyph glyph-name="J" unicode="J" horiz-adv-x="503" 
d="M428 733v-497c0 -147 -70 -248 -235 -248c-71 0 -127 18 -179 52l47 102c35 -24 84 -40 130 -40c78 0 112 47 112 142v489h125z" />
    <glyph glyph-name="K" unicode="K" horiz-adv-x="672" 
d="M660 0h-155l-300 352v-352h-125v733h125v-330l288 330h151l-320 -352z" />
    <glyph glyph-name="L" unicode="L" horiz-adv-x="545" 
d="M527 0h-447v733h125v-619h322v-114z" />
    <glyph glyph-name="M" unicode="M" horiz-adv-x="883" 
d="M813 0h-123l-10 439l-231 -350h-15l-233 351l-8 -440h-123l31 742l19 2l325 -486l317 486l20 -2z" />
    <glyph glyph-name="M.alt" horiz-adv-x="883" 
d="M813 0h-123l-10 455l-231 -326h-15l-233 325l-8 -454h-123l31 742l19 2l325 -452l317 452l20 -2z" />
    <glyph glyph-name="N" unicode="N" horiz-adv-x="758" 
d="M678 -11l-14 -3l-459 484v-470h-125v743l20 4l453 -477v463h125v-744z" />
    <glyph glyph-name="O" unicode="O" horiz-adv-x="851" 
d="M796 366c0 -217 -162 -378 -374 -378s-367 161 -367 378c0 218 162 379 374 379s367 -161 367 -379zM662 366c0 153 -97 267 -236 267c-140 0 -237 -114 -237 -267c0 -152 97 -267 237 -267c139 0 236 115 236 267z" />
    <glyph glyph-name="P" unicode="P" horiz-adv-x="599" 
d="M570 491c0 -149 -105 -255 -292 -255c-24 0 -49 2 -73 3v-239h-125v726c65 8 126 12 186 12c201 0 304 -110 304 -247zM440 487c0 72 -51 136 -153 136c-28 0 -56 -2 -82 -6v-268c25 -2 48 -4 70 -4c113 0 165 59 165 142z" />
    <glyph glyph-name="Q" unicode="Q" horiz-adv-x="851" 
d="M809 62l-77 -89s-70 65 -93 85c-62 -44 -136 -70 -217 -70c-212 0 -367 161 -367 378c0 218 162 379 374 379c213 0 367 -161 367 -379c0 -86 -28 -165 -75 -227c22 -19 88 -77 88 -77zM662 366c0 153 -98 267 -236 267c-139 0 -236 -114 -236 -267
c0 -152 97 -267 236 -267c47 0 89 14 124 38l-121 106l77 88s113 -102 119 -108c23 41 37 89 37 143z" />
    <glyph glyph-name="R" unicode="R" horiz-adv-x="633" 
d="M623 0h-145l-160 264c-13 -1 -25 -1 -39 -1c-24 0 -49 1 -73 2v-265h-125v726c58 7 119 12 193 12c208 0 300 -101 300 -231c0 -95 -52 -172 -143 -212zM442 501c0 74 -56 125 -152 125c-30 0 -59 -1 -84 -6v-250c23 -3 48 -4 72 -4c109 0 164 51 164 135z" />
    <glyph glyph-name="S" unicode="S" horiz-adv-x="537" 
d="M497 207c0 -118 -91 -219 -242 -219c-83 0 -166 30 -230 72l43 112c58 -42 128 -68 191 -68c77 0 111 45 111 96s-22 83 -138 132c-128 54 -174 120 -174 208c0 106 88 205 241 205c71 0 141 -24 184 -53l-40 -110c-39 27 -97 52 -147 52c-77 0 -113 -42 -113 -91
s36 -78 127 -118c145 -63 187 -122 187 -218z" />
    <glyph glyph-name="T" unicode="T" horiz-adv-x="640" 
d="M615 619h-232v-619h-125v619h-233v114h590v-114z" />
    <glyph glyph-name="U" unicode="U" horiz-adv-x="729" 
d="M658 281c0 -187 -115 -293 -295 -293c-183 0 -291 103 -291 293v452h125v-443c0 -126 62 -188 168 -188c105 0 168 63 168 188v443h125v-452z" />
    <glyph glyph-name="V" unicode="V" horiz-adv-x="688" 
d="M690 733l-338 -743h-16l-339 743h143l206 -488l205 488h139z" />
    <glyph glyph-name="W" unicode="W" horiz-adv-x="969" 
d="M964 733l-232 -745l-20 -2l-228 510l-225 -510l-19 2l-235 745h138l132 -462l204 468h14l205 -465l130 459h136z" />
    <glyph glyph-name="X" unicode="X" horiz-adv-x="703" 
d="M684 0h-150l-183 275l-184 -275h-147l256 362l-256 371h150l183 -275l185 275h146l-256 -361z" />
    <glyph glyph-name="Y" unicode="Y" horiz-adv-x="671" 
d="M656 733l-258 -425v-308h-125v309l-258 424h143l180 -310l178 310h140z" />
    <glyph glyph-name="Z" unicode="Z" horiz-adv-x="650" 
d="M620 718l-389 -604h380v-114h-576l-5 15l389 604h-363v114h559z" />
    <glyph glyph-name="a" unicode="a" 
d="M412 0h-108v41c-32 -31 -70 -49 -124 -49c-83 0 -150 49 -150 135c0 76 61 133 155 133c52 0 83 -12 115 -27v18c0 66 -35 95 -103 95c-35 0 -73 -8 -106 -18l-13 85c39 12 95 22 137 22c134 0 197 -63 197 -188v-247zM300 107v53c-30 20 -51 29 -88 29
c-43 0 -75 -23 -75 -61c0 -39 28 -62 77 -62c38 0 66 16 86 41z" />
    <glyph glyph-name="b" unicode="b" horiz-adv-x="534" 
d="M495 219c0 -123 -93 -227 -203 -227c-46 0 -93 16 -126 46v-38h-109v733h113v-344c32 29 76 46 129 46c112 0 196 -90 196 -216zM382 217c0 74 -37 128 -110 128c-42 0 -77 -17 -102 -43v-171c23 -29 58 -48 96 -48c72 0 116 54 116 134z" />
    <glyph glyph-name="c" unicode="c" horiz-adv-x="432" 
d="M420 35c-38 -24 -91 -43 -143 -43c-151 0 -241 99 -241 220s90 223 241 223c52 0 105 -19 143 -43l-37 -79c-33 18 -68 30 -108 30c-71 0 -127 -44 -127 -130c0 -80 61 -128 133 -128c38 0 76 12 107 30z" />
    <glyph glyph-name="d" unicode="d" horiz-adv-x="531" 
d="M477 0h-109v40c-35 -33 -74 -48 -128 -48c-120 0 -201 93 -201 220c0 123 96 223 207 223c54 0 88 -14 118 -38v336h113v-733zM364 131v164c-21 27 -57 50 -100 50c-64 0 -112 -48 -112 -131c0 -78 41 -131 114 -131c41 0 72 16 98 48z" />
    <glyph glyph-name="e" unicode="e" horiz-adv-x="476" 
d="M447 230c0 -14 0 -36 -3 -51h-296c9 -60 45 -98 133 -98c36 0 82 10 124 23l14 -88c-52 -14 -106 -24 -149 -24c-160 0 -234 99 -234 220c0 115 77 223 216 223c128 0 195 -91 195 -205zM150 250h196c-5 58 -39 96 -96 96c-56 0 -92 -35 -100 -96z" />
    <glyph glyph-name="f" unicode="f" horiz-adv-x="339" 
d="M356 731l-13 -96c-12 3 -28 4 -42 4c-59 0 -86 -25 -86 -108v-104h120v-92h-120v-335h-113v335h-79v15l79 81v100c0 131 60 209 184 209c27 0 48 -3 70 -9z" />
    <glyph glyph-name="g" unicode="g" horiz-adv-x="529" 
d="M477 -22c0 -149 -75 -202 -199 -202c-42 0 -96 8 -142 21l11 100c38 -13 81 -20 113 -20c71 0 104 28 104 99v52c-28 -22 -66 -36 -115 -36c-120 0 -210 81 -210 216c0 126 96 227 209 227c50 0 90 -15 120 -39v31h109v-449zM364 124v177c-22 24 -56 43 -96 43
c-69 0 -116 -54 -116 -137c0 -72 42 -126 119 -126c38 0 70 16 93 43z" />
    <glyph glyph-name="h" unicode="h" horiz-adv-x="515" 
d="M466 0h-114v264c0 54 -22 77 -67 77c-38 0 -82 -25 -114 -60v-281h-114v733h113v-375c49 52 100 77 155 77c94 0 141 -59 141 -143v-292z" />
    <glyph glyph-name="i" unicode="i" horiz-adv-x="237" 
d="M186 575c0 -37 -30 -67 -67 -67s-66 30 -66 67s29 67 66 67s67 -30 67 -67zM176 0h-114v427h114v-427z" />
    <glyph glyph-name="j" unicode="j" horiz-adv-x="237" 
d="M187 575c0 -37 -30 -67 -67 -67s-66 30 -66 67s29 67 66 67s67 -30 67 -67zM177 427v-484c0 -112 -53 -167 -161 -167c-25 0 -49 3 -73 8l11 94c13 -2 26 -4 41 -4c45 0 68 16 68 70v483h114z" />
    <glyph glyph-name="k" unicode="k" horiz-adv-x="476" 
d="M472 0h-136l-166 202v-202h-113v733h113v-489l158 183h136l-189 -201z" />
    <glyph glyph-name="l" unicode="l" horiz-adv-x="231" 
d="M172 0h-113v733h113v-733z" />
    <glyph glyph-name="m" unicode="m" horiz-adv-x="780" 
d="M731 0h-114v267c0 49 -18 73 -60 73c-37 0 -71 -21 -106 -59v-281h-114v264c0 52 -17 77 -62 77c-38 0 -73 -25 -104 -62v-279h-114v427h110v-71c48 49 96 79 154 79c67 0 100 -32 117 -82c48 53 103 82 163 82c88 0 130 -57 130 -143v-292z" />
    <glyph glyph-name="n" unicode="n" horiz-adv-x="512" 
d="M463 0h-114v264c0 54 -20 77 -65 77c-39 0 -81 -25 -113 -60v-281h-114v427h110v-71c50 51 103 79 158 79c94 0 138 -59 138 -143v-292z" />
    <glyph glyph-name="o" unicode="o" horiz-adv-x="518" 
d="M482 214c0 -121 -85 -222 -222 -222c-138 0 -224 101 -224 222s86 221 224 221c137 0 222 -100 222 -221zM370 214c0 82 -43 134 -110 134c-68 0 -111 -52 -111 -134c0 -83 43 -135 111 -135c67 0 110 52 110 135z" />
    <glyph glyph-name="p" unicode="p" horiz-adv-x="534" 
d="M495 217c0 -123 -88 -225 -213 -225c-43 0 -80 10 -112 28v-236h-113v643h109v-40c36 31 78 48 135 48c111 0 194 -91 194 -218zM382 216c0 75 -42 129 -109 129c-44 0 -75 -15 -103 -45v-179c23 -26 61 -39 99 -39c64 0 113 50 113 134z" />
    <glyph glyph-name="q" unicode="q" horiz-adv-x="531" 
d="M477 -217h-113v247c-31 -25 -68 -38 -120 -38c-116 0 -205 85 -205 216c0 128 98 227 208 227c56 0 90 -17 121 -41v33h109v-644zM364 129v166c-21 27 -56 50 -98 50c-67 0 -114 -54 -114 -135c0 -79 43 -127 119 -127c35 0 72 17 93 46z" />
    <glyph glyph-name="r" unicode="r" horiz-adv-x="334" 
d="M319 323c-66 7 -122 -5 -148 -42v-281h-114v427h110v-70c40 53 86 78 152 78v-112z" />
    <glyph glyph-name="s" unicode="s" horiz-adv-x="384" 
d="M357 128c0 -78 -70 -136 -165 -136c-65 0 -121 22 -169 56l44 81c38 -30 87 -50 123 -50c42 0 61 17 61 44c0 68 -203 41 -203 177c0 77 66 135 163 135c49 0 102 -18 140 -40l-35 -83c-36 22 -74 37 -110 37c-38 0 -56 -18 -56 -40c0 -63 207 -39 207 -181z" />
    <glyph glyph-name="t" unicode="t" horiz-adv-x="339" 
d="M321 335h-119v-196c0 -38 18 -52 51 -52c12 0 23 2 37 5l21 -88c-32 -7 -61 -12 -91 -12c-80 0 -131 39 -131 153v190h-81v15l81 81v69l113 71v-144h119v-92z" />
    <glyph glyph-name="u" unicode="u" horiz-adv-x="511" 
d="M459 0h-110v66c-42 -42 -100 -74 -155 -74c-94 0 -141 59 -141 143v292h114v-264c0 -53 24 -76 68 -76c39 0 78 21 110 56v284h114v-427z" />
    <glyph glyph-name="v" unicode="v" horiz-adv-x="456" 
d="M461 427l-225 -438h-20l-221 438h127l108 -254l108 254h123z" />
    <glyph glyph-name="w" unicode="w" horiz-adv-x="635" 
d="M636 427l-165 -438h-20l-131 260l-132 -260h-20l-166 438h126l71 -240l110 241h20l113 -241l69 240h125z" />
    <glyph glyph-name="x" unicode="x" horiz-adv-x="458" 
d="M446 0h-125l-92 142l-95 -142h-121l153 212l-153 215h125l93 -143l94 143h121l-151 -213z" />
    <glyph glyph-name="y" unicode="y" horiz-adv-x="461" 
d="M463 427l-302 -643h-113l130 259l-180 384h126l109 -271l107 271h123z" />
    <glyph glyph-name="z" unicode="z" horiz-adv-x="424" 
d="M405 412l-224 -318h219v-94h-378l-5 15l223 318h-204v94h364z" />
    <glyph glyph-name="Aacute" unicode="&#xc1;" horiz-adv-x="687" 
d="M690 0h-132l-71 168h-290l-71 -168h-129l338 743h18zM446 267l-104 245l-104 -245h208zM514 880l-202 -89l-29 55l182 134z" />
    <glyph glyph-name="aacute" unicode="&#xe1;" 
d="M412 0h-108v41c-32 -31 -70 -49 -124 -49c-83 0 -150 49 -150 135c0 76 61 133 155 133c52 0 83 -12 115 -27v18c0 66 -35 95 -103 95c-35 0 -73 -8 -106 -18l-13 85c39 12 95 22 137 22c134 0 197 -63 197 -188v-247zM300 107v53c-30 20 -51 29 -88 29
c-43 0 -75 -23 -75 -61c0 -39 28 -62 77 -62c38 0 66 16 86 41zM407 568l-202 -89l-29 55l182 134z" />
    <glyph glyph-name="Abreve" unicode="&#x102;" horiz-adv-x="687" 
d="M690 0h-132l-71 168h-290l-71 -168h-129l338 743h18zM446 267l-104 245l-104 -245h208zM486 938c0 -75 -53 -138 -143 -138c-89 0 -142 63 -142 138l88 7c0 -44 20 -69 54 -69c35 0 55 25 55 69z" />
    <glyph glyph-name="abreve" unicode="&#x103;" 
d="M412 0h-108v41c-32 -31 -70 -49 -124 -49c-83 0 -150 49 -150 135c0 76 61 133 155 133c52 0 83 -12 115 -27v18c0 66 -35 95 -103 95c-35 0 -73 -8 -106 -18l-13 85c39 12 95 22 137 22c134 0 197 -63 197 -188v-247zM300 107v53c-30 20 -51 29 -88 29
c-43 0 -75 -23 -75 -61c0 -39 28 -62 77 -62c38 0 66 16 86 41zM379 626c0 -75 -53 -138 -143 -138c-89 0 -142 63 -142 138l88 7c0 -44 20 -69 54 -69c35 0 55 25 55 69z" />
    <glyph glyph-name="Acircumflex" unicode="&#xc2;" horiz-adv-x="687" 
d="M690 0h-132l-71 168h-290l-71 -168h-129l338 743h18zM446 267l-104 245l-104 -245h208zM512 805h-107l-65 84l-64 -84h-101l148 177h45z" />
    <glyph glyph-name="acircumflex" unicode="&#xe2;" 
d="M412 0h-108v41c-32 -31 -70 -49 -124 -49c-83 0 -150 49 -150 135c0 76 61 133 155 133c52 0 83 -12 115 -27v18c0 66 -35 95 -103 95c-35 0 -73 -8 -106 -18l-13 85c39 12 95 22 137 22c134 0 197 -63 197 -188v-247zM300 107v53c-30 20 -51 29 -88 29
c-43 0 -75 -23 -75 -61c0 -39 28 -62 77 -62c38 0 66 16 86 41zM405 493h-107l-65 84l-64 -84h-101l148 177h45z" />
    <glyph glyph-name="Adieresis" unicode="&#xc4;" horiz-adv-x="687" 
d="M690 0h-132l-71 168h-290l-71 -168h-129l338 743h18zM446 267l-104 245l-104 -245h208zM497 869c0 -34 -28 -63 -62 -63c-35 0 -63 29 -63 63c0 35 28 63 63 63c34 0 62 -28 62 -63zM315 869c0 -34 -28 -63 -63 -63c-34 0 -63 29 -63 63c0 35 29 63 63 63
c35 0 63 -28 63 -63z" />
    <glyph glyph-name="adieresis" unicode="&#xe4;" 
d="M412 0h-108v41c-32 -31 -70 -49 -124 -49c-83 0 -150 49 -150 135c0 76 61 133 155 133c52 0 83 -12 115 -27v18c0 66 -35 95 -103 95c-35 0 -73 -8 -106 -18l-13 85c39 12 95 22 137 22c134 0 197 -63 197 -188v-247zM300 107v53c-30 20 -51 29 -88 29
c-43 0 -75 -23 -75 -61c0 -39 28 -62 77 -62c38 0 66 16 86 41zM390 557c0 -34 -28 -63 -62 -63c-35 0 -63 29 -63 63c0 35 28 63 63 63c34 0 62 -28 62 -63zM208 557c0 -34 -28 -63 -63 -63c-34 0 -63 29 -63 63c0 35 29 63 63 63c35 0 63 -28 63 -63z" />
    <glyph glyph-name="Agrave" unicode="&#xc0;" horiz-adv-x="687" 
d="M690 0h-132l-71 168h-290l-71 -168h-129l338 743h18zM446 267l-104 245l-104 -245h208zM399 844l-33 -53l-204 91l53 97z" />
    <glyph glyph-name="agrave" unicode="&#xe0;" 
d="M412 0h-108v41c-32 -31 -70 -49 -124 -49c-83 0 -150 49 -150 135c0 76 61 133 155 133c52 0 83 -12 115 -27v18c0 66 -35 95 -103 95c-35 0 -73 -8 -106 -18l-13 85c39 12 95 22 137 22c134 0 197 -63 197 -188v-247zM300 107v53c-30 20 -51 29 -88 29
c-43 0 -75 -23 -75 -61c0 -39 28 -62 77 -62c38 0 66 16 86 41zM293 532l-33 -53l-204 91l53 97z" />
    <glyph glyph-name="Amacron" unicode="&#x100;" horiz-adv-x="687" 
d="M690 0h-132l-71 168h-290l-71 -168h-129l338 743h18zM446 267l-104 245l-104 -245h208zM487 816h-287v86h287v-86z" />
    <glyph glyph-name="amacron" unicode="&#x101;" 
d="M412 0h-108v41c-32 -31 -70 -49 -124 -49c-83 0 -150 49 -150 135c0 76 61 133 155 133c52 0 83 -12 115 -27v18c0 66 -35 95 -103 95c-35 0 -73 -8 -106 -18l-13 85c39 12 95 22 137 22c134 0 197 -63 197 -188v-247zM300 107v53c-30 20 -51 29 -88 29
c-43 0 -75 -23 -75 -61c0 -39 28 -62 77 -62c38 0 66 16 86 41zM380 504h-287v86h287v-86z" />
    <glyph glyph-name="Aogonek" unicode="&#x104;" horiz-adv-x="687" 
d="M693 -173c-26 -29 -58 -48 -103 -49c-56 0 -91 36 -90 88c0 45 24 82 72 134h-14l-71 168h-290l-71 -168h-129l338 743h18l337 -743h-48c-40 -50 -61 -84 -61 -116c0 -23 13 -36 33 -36c18 0 31 8 47 24zM446 267l-104 245l-104 -245h208z" />
    <glyph glyph-name="aogonek" unicode="&#x105;" 
d="M428 -168c-26 -29 -58 -48 -103 -49c-56 0 -91 36 -90 88c0 44 23 81 69 131v39c-32 -31 -70 -49 -124 -49c-83 0 -150 49 -150 135c0 76 61 133 155 133c52 0 83 -12 115 -27v18c0 66 -35 95 -103 95c-35 0 -73 -8 -106 -18l-13 85c39 12 95 22 137 22
c134 0 197 -63 197 -188v-247h-39c-38 -47 -57 -80 -57 -111c0 -23 13 -36 33 -36c18 0 31 8 47 24zM300 107v53c-30 20 -51 29 -88 29c-43 0 -75 -23 -75 -61c0 -39 28 -62 77 -62c38 0 66 16 86 41z" />
    <glyph glyph-name="Aring" unicode="&#xc5;" horiz-adv-x="687" 
d="M461 811c0 -54 -34 -100 -90 -111l319 -700h-132l-71 168h-290l-71 -168h-129l318 700c-55 12 -89 58 -89 111c0 61 46 114 117 114c72 0 118 -53 118 -114zM446 267l-104 245l-104 -245h208zM394 811c0 33 -22 57 -51 57c-28 0 -49 -23 -49 -57s21 -57 49 -57
c29 0 51 23 51 57z" />
    <glyph glyph-name="aring" unicode="&#xe5;" 
d="M412 0h-108v41c-32 -31 -70 -49 -124 -49c-83 0 -150 49 -150 135c0 76 61 133 155 133c52 0 83 -12 115 -27v18c0 66 -35 95 -103 95c-35 0 -73 -8 -106 -18l-13 85c39 12 95 22 137 22c134 0 197 -63 197 -188v-247zM300 107v53c-30 20 -51 29 -88 29
c-43 0 -75 -23 -75 -61c0 -39 28 -62 77 -62c38 0 66 16 86 41zM354 601c0 -62 -47 -114 -118 -114s-118 52 -118 114c0 61 47 114 118 114s118 -53 118 -114zM286 601c0 33 -22 57 -50 57s-50 -23 -50 -57s22 -57 50 -57s50 23 50 57z" />
    <glyph glyph-name="Aringacute" unicode="&#x1fa;" horiz-adv-x="687" 
d="M510 1047l-202 -89l-29 55l182 134zM461 811c0 -54 -34 -100 -90 -111l319 -700h-132l-71 168h-290l-71 -168h-129l318 700c-55 12 -89 58 -89 111c0 61 46 114 117 114c72 0 118 -53 118 -114zM446 267l-104 245l-104 -245h208zM394 811c0 33 -22 57 -51 57
c-28 0 -49 -23 -49 -57s21 -57 49 -57c29 0 51 23 51 57z" />
    <glyph glyph-name="aringacute" unicode="&#x1fb;" 
d="M412 0h-108v41c-32 -31 -70 -49 -124 -49c-83 0 -150 49 -150 135c0 76 61 133 155 133c52 0 83 -12 115 -27v18c0 66 -35 95 -103 95c-35 0 -73 -8 -106 -18l-13 85c39 12 95 22 137 22c134 0 197 -63 197 -188v-247zM300 107v53c-30 20 -51 29 -88 29
c-43 0 -75 -23 -75 -61c0 -39 28 -62 77 -62c38 0 66 16 86 41zM400 841l-202 -89l-29 55l182 134zM351 601c0 -62 -47 -114 -118 -114s-118 52 -118 114c0 61 47 114 118 114s118 -53 118 -114zM283 601c0 33 -22 57 -50 57s-50 -23 -50 -57s22 -57 50 -57s50 23 50 57z
" />
    <glyph glyph-name="Atilde" unicode="&#xc3;" horiz-adv-x="687" 
d="M690 0h-132l-71 168h-290l-71 -168h-129l338 743h18zM446 267l-104 245l-104 -245h208zM516 866c-29 -35 -70 -59 -107 -59c-26 0 -45 7 -66 19c-23 14 -38 19 -57 19c-25 0 -47 -13 -68 -38l-40 64c29 36 70 59 107 59c26 0 45 -7 66 -19c21 -13 37 -18 55 -18
c24 0 46 13 67 38z" />
    <glyph glyph-name="atilde" unicode="&#xe3;" 
d="M412 0h-108v41c-32 -31 -70 -49 -124 -49c-83 0 -150 49 -150 135c0 76 61 133 155 133c52 0 83 -12 115 -27v18c0 66 -35 95 -103 95c-35 0 -73 -8 -106 -18l-13 85c39 12 95 22 137 22c134 0 197 -63 197 -188v-247zM300 107v53c-30 20 -51 29 -88 29
c-43 0 -75 -23 -75 -61c0 -39 28 -62 77 -62c38 0 66 16 86 41zM409 554c-29 -35 -70 -59 -107 -59c-26 0 -45 7 -66 19c-23 14 -38 19 -57 19c-25 0 -47 -13 -68 -38l-40 64c29 36 70 59 107 59c26 0 45 -7 66 -19c21 -13 37 -18 55 -18c24 0 46 13 67 38z" />
    <glyph glyph-name="AE" unicode="&#xc6;" horiz-adv-x="1017" 
d="M950 0h-446v180h-245l-122 -180h-143l510 733h446v-114h-321v-192h290v-110h-290v-203h321v-114zM504 283v266l-178 -266h178z" />
    <glyph glyph-name="ae" unicode="&#xe6;" horiz-adv-x="740" 
d="M301 232v19c0 66 -35 95 -104 95c-35 0 -72 -8 -106 -18l-13 85c39 12 92 22 135 22c78 0 128 -22 157 -68c35 41 86 68 149 68c125 0 192 -91 192 -205c0 -14 -1 -36 -3 -51h-296c9 -60 45 -98 134 -98c35 0 81 10 123 23l14 -88c-51 -14 -103 -24 -146 -24
c-84 0 -145 33 -182 82c-43 -52 -101 -82 -168 -82c-89 0 -157 49 -157 135c0 76 61 133 154 133c52 0 85 -12 117 -28zM610 250c-4 58 -38 96 -96 96c-56 0 -91 -35 -99 -96h195zM314 145c-22 28 -59 47 -104 47c-42 0 -73 -23 -73 -62s29 -61 77 -61c38 0 82 22 100 76z
" />
    <glyph glyph-name="AEacute" unicode="&#x1fc;" horiz-adv-x="1017" 
d="M835 880l-202 -89l-29 55l182 134zM950 0h-446v180h-245l-122 -180h-143l510 733h446v-114h-321v-192h290v-110h-290v-203h321v-114zM504 283v266l-178 -266h178z" />
    <glyph glyph-name="aeacute" unicode="&#x1fd;" horiz-adv-x="740" 
d="M544 568l-202 -89l-29 55l182 134zM301 232v19c0 66 -35 95 -104 95c-35 0 -72 -8 -106 -18l-13 85c39 12 92 22 135 22c78 0 128 -22 157 -68c35 41 86 68 149 68c125 0 192 -91 192 -205c0 -14 -1 -36 -3 -51h-296c9 -60 45 -98 134 -98c35 0 81 10 123 23l14 -88
c-51 -14 -103 -24 -146 -24c-84 0 -145 33 -182 82c-43 -52 -101 -82 -168 -82c-89 0 -157 49 -157 135c0 76 61 133 154 133c52 0 85 -12 117 -28zM610 250c-4 58 -38 96 -96 96c-56 0 -91 -35 -99 -96h195zM314 145c-22 28 -59 47 -104 47c-42 0 -73 -23 -73 -62
s29 -61 77 -61c38 0 82 22 100 76z" />
    <glyph glyph-name="Cacute" unicode="&#x106;" horiz-adv-x="719" 
d="M594 880l-202 -89l-29 55l182 134zM689 57c-61 -39 -148 -69 -239 -69c-232 0 -395 160 -395 378c0 217 165 379 395 379c91 0 174 -29 236 -67l-43 -106c-58 33 -130 56 -195 56c-161 0 -259 -107 -259 -262c0 -154 101 -261 262 -261c65 0 141 23 200 58z" />
    <glyph glyph-name="cacute" unicode="&#x107;" horiz-adv-x="432" 
d="M423 568l-202 -89l-29 55l182 134zM420 35c-38 -24 -91 -43 -143 -43c-151 0 -241 99 -241 220s90 223 241 223c52 0 105 -19 143 -43l-37 -79c-33 18 -68 30 -108 30c-71 0 -127 -44 -127 -130c0 -80 61 -128 133 -128c38 0 76 12 107 30z" />
    <glyph glyph-name="Ccaron" unicode="&#x10c;" horiz-adv-x="719" 
d="M592 976l-149 -178h-44l-144 178h106l65 -85l64 85h102zM689 57c-61 -39 -148 -69 -239 -69c-232 0 -395 160 -395 378c0 217 165 379 395 379c91 0 174 -29 236 -67l-43 -106c-58 33 -130 56 -195 56c-161 0 -259 -107 -259 -262c0 -154 101 -261 262 -261
c65 0 141 23 200 58z" />
    <glyph glyph-name="ccaron" unicode="&#x10d;" horiz-adv-x="432" 
d="M421 664l-149 -178h-44l-144 178h106l65 -85l64 85h102zM420 35c-38 -24 -91 -43 -143 -43c-151 0 -241 99 -241 220s90 223 241 223c52 0 105 -19 143 -43l-37 -79c-33 18 -68 30 -108 30c-71 0 -127 -44 -127 -130c0 -80 61 -128 133 -128c38 0 76 12 107 30z" />
    <glyph glyph-name="Ccedilla" unicode="&#xc7;" horiz-adv-x="719" 
d="M559 -147c0 -54 -38 -102 -114 -102c-39 0 -78 13 -120 38l28 61c35 -22 65 -33 95 -33c23 0 36 12 36 34c0 21 -23 43 -96 45l-4 9l22 85c-208 18 -351 172 -351 376c0 217 165 379 395 379c91 0 174 -29 236 -67l-43 -106c-58 33 -130 56 -195 56
c-161 0 -259 -107 -259 -262c0 -154 101 -261 262 -261c65 0 141 23 200 58l38 -106c-59 -38 -142 -67 -229 -69l-8 -34c80 -19 107 -57 107 -101z" />
    <glyph glyph-name="ccedilla" unicode="&#xe7;" horiz-adv-x="432" 
d="M365 -147c0 -54 -38 -102 -114 -102c-39 0 -78 13 -120 38l28 61c35 -22 65 -33 95 -33c23 0 36 12 36 34c0 21 -23 43 -96 45l-4 9l24 94c-113 23 -178 110 -178 213c0 121 90 223 241 223c52 0 105 -19 143 -43l-37 -79c-33 18 -68 30 -108 30
c-71 0 -127 -44 -127 -130c0 -80 61 -128 133 -128c38 0 76 12 107 30l32 -80c-38 -24 -91 -43 -143 -43h-10l-9 -38c80 -19 107 -57 107 -101z" />
    <glyph glyph-name="Cdotaccent" unicode="&#x10a;" horiz-adv-x="719" 
d="M689 57c-61 -39 -148 -69 -239 -69c-232 0 -395 160 -395 378c0 217 165 379 395 379c91 0 174 -29 236 -67l-43 -106c-58 33 -130 56 -195 56c-161 0 -259 -107 -259 -262c0 -154 101 -261 262 -261c65 0 141 23 200 58zM361 869c0 35 28 63 62 63c35 0 63 -28 63 -63
c0 -34 -28 -63 -63 -63c-34 0 -62 29 -62 63z" />
    <glyph glyph-name="cdotaccent" unicode="&#x10b;" horiz-adv-x="432" 
d="M420 35c-38 -24 -91 -43 -143 -43c-151 0 -241 99 -241 220s90 223 241 223c52 0 105 -19 143 -43l-37 -79c-33 18 -68 30 -108 30c-71 0 -127 -44 -127 -130c0 -80 61 -128 133 -128c38 0 76 12 107 30zM190 557c0 35 28 63 62 63c35 0 63 -28 63 -63
c0 -34 -28 -63 -63 -63c-34 0 -62 29 -62 63z" />
    <glyph glyph-name="Dcaron" unicode="&#x10e;" horiz-adv-x="772" 
d="M536 976l-149 -178h-44l-144 178h106l65 -85l64 85h102zM717 373c0 -206 -136 -379 -426 -379c-80 0 -137 5 -211 12v720c71 8 131 12 204 12c290 0 433 -167 433 -365zM583 373c0 152 -98 255 -284 255c-36 0 -68 -2 -94 -6v-511c31 -5 57 -6 105 -6
c188 0 273 113 273 268z" />
    <glyph glyph-name="dcaron" unicode="&#x10f;" horiz-adv-x="531" 
d="M567 733l90 -17c0 -89 -39 -150 -97 -193l-51 33c36 43 55 97 58 177zM477 0h-109v40c-35 -33 -74 -48 -128 -48c-120 0 -201 93 -201 220c0 123 96 223 207 223c54 0 88 -14 118 -38v336h113v-733zM364 131v164c-21 27 -57 50 -100 50c-64 0 -112 -48 -112 -131
c0 -78 41 -131 114 -131c41 0 72 16 98 48z" />
    <glyph glyph-name="Dcroat" unicode="&#x110;" horiz-adv-x="782" 
d="M737 373c0 -206 -136 -379 -426 -379c-80 0 -137 5 -211 12v315h-81v104h81v301c71 8 131 12 204 12c290 0 433 -167 433 -365zM603 373c0 152 -98 255 -283 255c-37 0 -69 -2 -95 -6v-197h112v-104h-112v-210c31 -5 58 -6 105 -6c188 0 273 113 273 268z" />
    <glyph glyph-name="dcroat" unicode="&#x111;" horiz-adv-x="531" 
d="M477 0h-109v40c-35 -33 -74 -48 -128 -48c-120 0 -201 93 -201 220c0 123 96 223 207 223c54 0 88 -14 118 -38v151h-142v85h142v100h113v-100h54v-85h-54v-548zM364 131v164c-21 27 -57 50 -100 50c-64 0 -112 -48 -112 -131c0 -78 41 -131 114 -131c41 0 72 16 98 48z
" />
    <glyph glyph-name="Eacute" unicode="&#xc9;" horiz-adv-x="594" 
d="M475 880l-202 -89l-29 55l182 134zM527 0h-447v733h447v-114h-322v-192h291v-110h-291v-203h322v-114z" />
    <glyph glyph-name="eacute" unicode="&#xe9;" horiz-adv-x="476" 
d="M421 568l-202 -89l-29 55l182 134zM447 230c0 -14 0 -36 -3 -51h-296c9 -60 45 -98 133 -98c36 0 82 10 124 23l14 -88c-52 -14 -106 -24 -149 -24c-160 0 -234 99 -234 220c0 115 77 223 216 223c128 0 195 -91 195 -205zM150 250h196c-5 58 -39 96 -96 96
c-56 0 -92 -35 -100 -96z" />
    <glyph glyph-name="Ebreve" unicode="&#x114;" horiz-adv-x="594" 
d="M527 0h-447v733h447v-114h-322v-192h291v-110h-291v-203h322v-114zM447 938c0 -75 -53 -138 -143 -138c-89 0 -142 63 -142 138l88 7c0 -44 20 -69 54 -69c35 0 55 25 55 69z" />
    <glyph glyph-name="ebreve" unicode="&#x115;" horiz-adv-x="476" 
d="M447 230c0 -14 0 -36 -3 -51h-296c9 -60 45 -98 133 -98c36 0 82 10 124 23l14 -88c-52 -14 -106 -24 -149 -24c-160 0 -234 99 -234 220c0 115 77 223 216 223c128 0 195 -91 195 -205zM150 250h196c-5 58 -39 96 -96 96c-56 0 -92 -35 -100 -96zM393 626
c0 -75 -53 -138 -143 -138c-89 0 -142 63 -142 138l88 7c0 -44 20 -69 54 -69c35 0 55 25 55 69z" />
    <glyph glyph-name="Ecaron" unicode="&#x11a;" horiz-adv-x="594" 
d="M473 976l-149 -178h-44l-144 178h106l65 -85l64 85h102zM527 0h-447v733h447v-114h-322v-192h291v-110h-291v-203h322v-114z" />
    <glyph glyph-name="ecaron" unicode="&#x11b;" horiz-adv-x="476" 
d="M419 664l-149 -178h-44l-144 178h106l65 -85l64 85h102zM447 230c0 -14 0 -36 -3 -51h-296c9 -60 45 -98 133 -98c36 0 82 10 124 23l14 -88c-52 -14 -106 -24 -149 -24c-160 0 -234 99 -234 220c0 115 77 223 216 223c128 0 195 -91 195 -205zM150 250h196
c-5 58 -39 96 -96 96c-56 0 -92 -35 -100 -96z" />
    <glyph glyph-name="Ecircumflex" unicode="&#xca;" horiz-adv-x="594" 
d="M473 805h-107l-65 84l-64 -84h-101l148 177h45zM527 0h-447v733h447v-114h-322v-192h291v-110h-291v-203h322v-114z" />
    <glyph glyph-name="ecircumflex" unicode="&#xea;" horiz-adv-x="476" 
d="M419 493h-107l-65 84l-64 -84h-101l148 177h45zM447 230c0 -14 0 -36 -3 -51h-296c9 -60 45 -98 133 -98c36 0 82 10 124 23l14 -88c-52 -14 -106 -24 -149 -24c-160 0 -234 99 -234 220c0 115 77 223 216 223c128 0 195 -91 195 -205zM150 250h196c-5 58 -39 96 -96 96
c-56 0 -92 -35 -100 -96z" />
    <glyph glyph-name="Edieresis" unicode="&#xcb;" horiz-adv-x="594" 
d="M458 869c0 -34 -28 -63 -62 -63c-35 0 -63 29 -63 63c0 35 28 63 63 63c34 0 62 -28 62 -63zM276 869c0 -34 -28 -63 -63 -63c-34 0 -63 29 -63 63c0 35 29 63 63 63c35 0 63 -28 63 -63zM527 0h-447v733h447v-114h-322v-192h291v-110h-291v-203h322v-114z" />
    <glyph glyph-name="edieresis" unicode="&#xeb;" horiz-adv-x="476" 
d="M404 557c0 -34 -28 -63 -62 -63c-35 0 -63 29 -63 63c0 35 28 63 63 63c34 0 62 -28 62 -63zM222 557c0 -34 -28 -63 -63 -63c-34 0 -63 29 -63 63c0 35 29 63 63 63c35 0 63 -28 63 -63zM447 230c0 -14 0 -36 -3 -51h-296c9 -60 45 -98 133 -98c36 0 82 10 124 23
l14 -88c-52 -14 -106 -24 -149 -24c-160 0 -234 99 -234 220c0 115 77 223 216 223c128 0 195 -91 195 -205zM150 250h196c-5 58 -39 96 -96 96c-56 0 -92 -35 -100 -96z" />
    <glyph glyph-name="Edotaccent" unicode="&#x116;" horiz-adv-x="594" 
d="M527 0h-447v733h447v-114h-322v-192h291v-110h-291v-203h322v-114zM242 869c0 35 28 63 62 63c35 0 63 -28 63 -63c0 -34 -28 -63 -63 -63c-34 0 -62 29 -62 63z" />
    <glyph glyph-name="edotaccent" unicode="&#x117;" horiz-adv-x="476" 
d="M447 230c0 -14 0 -36 -3 -51h-296c9 -60 45 -98 133 -98c36 0 82 10 124 23l14 -88c-52 -14 -106 -24 -149 -24c-160 0 -234 99 -234 220c0 115 77 223 216 223c128 0 195 -91 195 -205zM150 250h196c-5 58 -39 96 -96 96c-56 0 -92 -35 -100 -96zM188 557
c0 35 28 63 62 63c35 0 63 -28 63 -63c0 -34 -28 -63 -63 -63c-34 0 -62 29 -62 63z" />
    <glyph glyph-name="Egrave" unicode="&#xc8;" horiz-adv-x="594" 
d="M527 0h-447v733h447v-114h-322v-192h291v-110h-291v-203h322v-114zM361 844l-33 -53l-204 91l53 97z" />
    <glyph glyph-name="egrave" unicode="&#xe8;" horiz-adv-x="476" 
d="M447 230c0 -14 0 -36 -3 -51h-296c9 -60 45 -98 133 -98c36 0 82 10 124 23l14 -88c-52 -14 -106 -24 -149 -24c-160 0 -234 99 -234 220c0 115 77 223 216 223c128 0 195 -91 195 -205zM150 250h196c-5 58 -39 96 -96 96c-56 0 -92 -35 -100 -96zM307 532l-33 -53
l-204 91l53 97z" />
    <glyph glyph-name="Emacron" unicode="&#x112;" horiz-adv-x="594" 
d="M527 0h-447v733h447v-114h-322v-192h291v-110h-291v-203h322v-114zM448 816h-287v86h287v-86z" />
    <glyph glyph-name="emacron" unicode="&#x113;" horiz-adv-x="476" 
d="M447 230c0 -14 0 -36 -3 -51h-296c9 -60 45 -98 133 -98c36 0 82 10 124 23l14 -88c-52 -14 -106 -24 -149 -24c-160 0 -234 99 -234 220c0 115 77 223 216 223c128 0 195 -91 195 -205zM150 250h196c-5 58 -39 96 -96 96c-56 0 -92 -35 -100 -96zM394 504h-287v86h287
v-86z" />
    <glyph glyph-name="Eogonek" unicode="&#x118;" horiz-adv-x="594" 
d="M527 0h-40c-40 -50 -61 -84 -61 -116c0 -23 13 -36 33 -36c18 0 31 8 47 24l32 -45c-26 -29 -58 -48 -103 -49c-56 0 -91 36 -90 88c0 45 24 82 72 134h-337v733h447v-114h-322v-192h291v-110h-291v-203h322v-114z" />
    <glyph glyph-name="eogonek" unicode="&#x119;" horiz-adv-x="476" 
d="M447 230c0 -14 0 -36 -3 -51h-296c9 -60 45 -98 133 -98c36 0 82 10 124 23l14 -86c-52 -47 -84 -97 -84 -134c0 -23 13 -36 33 -36c17 0 30 8 46 24l33 -45c-27 -29 -59 -48 -104 -49c-55 0 -90 36 -90 88c0 44 25 84 73 131c-20 -3 -39 -5 -56 -5
c-160 0 -234 99 -234 220c0 115 77 223 216 223c128 0 195 -91 195 -205zM150 250h196c-5 58 -39 96 -96 96c-56 0 -92 -35 -100 -96z" />
    <glyph glyph-name="Eth" unicode="&#xd0;" horiz-adv-x="782" 
d="M737 373c0 -206 -136 -379 -426 -379c-80 0 -137 5 -211 12v315h-81v104h81v301c71 8 131 12 204 12c290 0 433 -167 433 -365zM603 373c0 152 -98 255 -283 255c-37 0 -69 -2 -95 -6v-197h112v-104h-112v-210c31 -5 58 -6 105 -6c188 0 273 113 273 268z" />
    <glyph glyph-name="eth" unicode="&#xf0;" horiz-adv-x="524" 
d="M157 486l-48 59l63 55c-32 21 -65 39 -98 52l44 88c44 -20 88 -43 130 -72l67 59l51 -62l-54 -46c99 -88 173 -210 173 -377c0 -149 -86 -252 -223 -252c-150 0 -223 109 -223 230c0 118 73 215 196 215c49 0 92 -17 121 -45c-22 58 -66 115 -121 163zM377 215
c0 80 -47 134 -116 134c-65 0 -110 -49 -110 -130c0 -77 42 -141 113 -141c72 0 113 58 113 137z" />
    <glyph glyph-name="Gbreve" unicode="&#x11e;" horiz-adv-x="775" 
d="M426 388h291v-320c-78 -51 -163 -80 -273 -80c-209 0 -389 152 -389 378c0 228 183 379 389 379c108 0 185 -30 260 -76l-57 -100c-59 38 -129 61 -197 61c-167 0 -261 -118 -261 -264c0 -156 115 -267 260 -267c63 0 105 11 148 35v144h-171v110zM575 938
c0 -75 -53 -138 -143 -138c-89 0 -142 63 -142 138l88 7c0 -44 20 -69 54 -69c35 0 55 25 55 69z" />
    <glyph glyph-name="Gbreve.alt" horiz-adv-x="825" 
d="M419 377h374c12 -236 -144 -389 -354 -389c-209 0 -384 152 -384 378c0 228 183 379 388 379c109 0 186 -30 261 -76l-56 -100c-61 38 -130 61 -199 61c-166 0 -260 -118 -260 -264c0 -156 112 -267 252 -267c127 0 204 76 222 169h-244v109zM588 938
c0 -75 -53 -138 -143 -138c-89 0 -142 63 -142 138l88 7c0 -44 20 -69 54 -69c35 0 55 25 55 69z" />
    <glyph glyph-name="gbreve" unicode="&#x11f;" horiz-adv-x="529" 
d="M477 -22c0 -149 -75 -202 -199 -202c-42 0 -96 8 -142 21l11 100c38 -13 81 -20 113 -20c71 0 104 28 104 99v52c-28 -22 -66 -36 -115 -36c-120 0 -210 81 -210 216c0 126 96 227 209 227c50 0 90 -15 120 -39v31h109v-449zM364 124v177c-22 24 -56 43 -96 43
c-69 0 -116 -54 -116 -137c0 -72 42 -126 119 -126c38 0 70 16 93 43zM420 626c0 -75 -53 -138 -143 -138c-89 0 -142 63 -142 138l88 7c0 -44 20 -69 54 -69c35 0 55 25 55 69z" />
    <glyph glyph-name="Gcommaaccent" unicode="&#x122;" horiz-adv-x="775" 
d="M498 -151c0 -60 -47 -135 -121 -172l-12 19c40 34 59 67 69 104c-41 2 -66 30 -66 65c0 34 27 62 61 62c45 0 69 -36 69 -78zM426 388h291v-320c-78 -51 -163 -80 -273 -80c-209 0 -389 152 -389 378c0 228 183 379 389 379c108 0 185 -30 260 -76l-57 -100
c-59 38 -129 61 -197 61c-167 0 -261 -118 -261 -264c0 -156 115 -267 260 -267c63 0 105 11 148 35v144h-171v110z" />
    <glyph glyph-name="Gcommaaccent.alt" horiz-adv-x="825" 
d="M511 -151c0 -60 -47 -135 -121 -172l-12 19c40 34 59 67 69 104c-41 2 -66 30 -66 65c0 34 27 62 61 62c45 0 69 -36 69 -78zM419 377h374c12 -236 -144 -389 -354 -389c-209 0 -384 152 -384 378c0 228 183 379 388 379c109 0 186 -30 261 -76l-56 -100
c-61 38 -130 61 -199 61c-166 0 -260 -118 -260 -264c0 -156 112 -267 252 -267c127 0 204 76 222 169h-244v109z" />
    <glyph glyph-name="gcommaaccent" unicode="&#x123;" horiz-adv-x="529" 
d="M212 584c0 60 47 135 121 172l12 -19c-40 -34 -59 -67 -69 -104c41 -2 66 -30 66 -65c0 -34 -27 -62 -61 -62c-45 0 -69 36 -69 78zM477 -22c0 -149 -75 -202 -199 -202c-42 0 -96 8 -142 21l11 100c38 -13 81 -20 113 -20c71 0 104 28 104 99v52
c-28 -22 -66 -36 -115 -36c-120 0 -210 81 -210 216c0 126 96 227 209 227c50 0 90 -15 120 -39v31h109v-449zM364 124v177c-22 24 -56 43 -96 43c-69 0 -116 -54 -116 -137c0 -72 42 -126 119 -126c38 0 70 16 93 43z" />
    <glyph glyph-name="Gdotaccent" unicode="&#x120;" horiz-adv-x="775" 
d="M426 388h291v-320c-78 -51 -163 -80 -273 -80c-209 0 -389 152 -389 378c0 228 183 379 389 379c108 0 185 -30 260 -76l-57 -100c-59 38 -129 61 -197 61c-167 0 -261 -118 -261 -264c0 -156 115 -267 260 -267c63 0 105 11 148 35v144h-171v110zM370 869
c0 35 28 63 62 63c35 0 63 -28 63 -63c0 -34 -28 -63 -63 -63c-34 0 -62 29 -62 63z" />
    <glyph glyph-name="Gdotaccent.alt" horiz-adv-x="825" 
d="M419 377h374c12 -236 -144 -389 -354 -389c-209 0 -384 152 -384 378c0 228 183 379 388 379c109 0 186 -30 261 -76l-56 -100c-61 38 -130 61 -199 61c-166 0 -260 -118 -260 -264c0 -156 112 -267 252 -267c127 0 204 76 222 169h-244v109zM384 869c0 35 28 63 62 63
c35 0 63 -28 63 -63c0 -34 -28 -63 -63 -63c-34 0 -62 29 -62 63z" />
    <glyph glyph-name="gdotaccent" unicode="&#x121;" horiz-adv-x="529" 
d="M477 -22c0 -149 -75 -202 -199 -202c-42 0 -96 8 -142 21l11 100c38 -13 81 -20 113 -20c71 0 104 28 104 99v52c-28 -22 -66 -36 -115 -36c-120 0 -210 81 -210 216c0 126 96 227 209 227c50 0 90 -15 120 -39v31h109v-449zM364 124v177c-22 24 -56 43 -96 43
c-69 0 -116 -54 -116 -137c0 -72 42 -126 119 -126c38 0 70 16 93 43zM215 557c0 35 28 63 62 63c35 0 63 -28 63 -63c0 -34 -28 -63 -63 -63c-34 0 -62 29 -62 63z" />
    <glyph glyph-name="Hbar" unicode="&#x126;" horiz-adv-x="747" 
d="M667 0h-125v305h-337v-305h-125v534h-72v86h72v113h125v-113h337v113h125v-113h73v-86h-73v-534zM205 417h337v117h-337v-117z" />
    <glyph glyph-name="hbar" unicode="&#x127;" horiz-adv-x="515" 
d="M466 0h-114v264c0 54 -22 77 -67 77c-38 0 -82 -25 -114 -60v-281h-114v548h-54v85h54v100h113v-100h142v-85h-142v-190c49 52 100 77 155 77c94 0 141 -59 141 -143v-292z" />
    <glyph glyph-name="Iacute" unicode="&#xcd;" horiz-adv-x="295" 
d="M210 0h-125v733h125v-733zM318 888l-202 -89l-29 55l182 134z" />
    <glyph glyph-name="iacute" unicode="&#xed;" horiz-adv-x="240" 
d="M291 568l-202 -89l-29 55l182 134zM178 0h-114v427h114v-427z" />
    <glyph glyph-name="Ibreve" unicode="&#x12c;" horiz-adv-x="295" 
d="M210 0h-125v733h125v-733zM290 938c0 -75 -53 -138 -143 -138c-89 0 -142 63 -142 138l88 7c0 -44 20 -69 54 -69c35 0 55 25 55 69z" />
    <glyph glyph-name="ibreve" unicode="&#x12d;" horiz-adv-x="240" 
d="M178 0h-114v427h114v-427zM263 626c0 -75 -53 -138 -143 -138c-89 0 -142 63 -142 138l88 7c0 -44 20 -69 54 -69c35 0 55 25 55 69z" />
    <glyph glyph-name="Icircumflex" unicode="&#xce;" horiz-adv-x="295" 
d="M210 0h-125v733h125v-733zM316 805h-107l-65 84l-64 -84h-101l148 177h45z" />
    <glyph glyph-name="icircumflex" unicode="&#xee;" horiz-adv-x="240" 
d="M289 493h-107l-65 84l-64 -84h-101l148 177h45zM178 0h-114v427h114v-427z" />
    <glyph glyph-name="Idieresis" unicode="&#xcf;" horiz-adv-x="295" 
d="M210 0h-125v733h125v-733zM301 869c0 -34 -28 -63 -62 -63c-35 0 -63 29 -63 63c0 35 28 63 63 63c34 0 62 -28 62 -63zM119 869c0 -34 -28 -63 -63 -63c-34 0 -63 29 -63 63c0 35 29 63 63 63c35 0 63 -28 63 -63z" />
    <glyph glyph-name="idieresis" unicode="&#xef;" horiz-adv-x="240" 
d="M274 557c0 -34 -28 -63 -62 -63c-35 0 -63 29 -63 63c0 35 28 63 63 63c34 0 62 -28 62 -63zM92 557c0 -34 -28 -63 -63 -63c-34 0 -63 29 -63 63c0 35 29 63 63 63c35 0 63 -28 63 -63zM178 0h-114v427h114v-427z" />
    <glyph glyph-name="Idotaccent" unicode="&#x130;" horiz-adv-x="295" 
d="M210 0h-125v733h125v-733zM85 869c0 35 28 63 62 63c35 0 63 -28 63 -63c0 -34 -28 -63 -63 -63c-34 0 -62 29 -62 63z" />
    <glyph glyph-name="dotlessi" unicode="&#x131;" horiz-adv-x="241" 
d="M178 0h-114v427h114v-427z" />
    <glyph glyph-name="Igrave" unicode="&#xcc;" horiz-adv-x="295" 
d="M210 0h-125v733h125v-733zM204 844l-33 -53l-204 91l53 97z" />
    <glyph glyph-name="igrave" unicode="&#xec;" horiz-adv-x="240" 
d="M178 0h-114v427h114v-427zM177 532l-33 -53l-204 91l53 97z" />
    <glyph glyph-name="Imacron" unicode="&#x12a;" horiz-adv-x="295" 
d="M210 0h-125v733h125v-733zM291 816h-287v86h287v-86z" />
    <glyph glyph-name="imacron" unicode="&#x12b;" horiz-adv-x="240" 
d="M178 0h-114v427h114v-427zM264 504h-287v86h287v-86z" />
    <glyph glyph-name="Iogonek" unicode="&#x12e;" horiz-adv-x="295" 
d="M236 -173c-26 -29 -58 -48 -103 -49c-56 0 -91 36 -90 88c0 45 24 82 72 134h-30v733h125v-733h-25c-40 -50 -61 -84 -61 -116c0 -23 13 -36 33 -36c18 0 31 8 47 24z" />
    <glyph glyph-name="iogonek" unicode="&#x12f;" horiz-adv-x="236" 
d="M211 -168c-27 -29 -59 -48 -104 -49c-55 0 -90 36 -90 88c1 44 23 80 67 129h-22v427h114v-427h-20c-39 -47 -57 -80 -57 -111c0 -23 13 -36 33 -36c17 0 30 8 46 24zM186 575c0 -37 -30 -67 -67 -67s-66 30 -66 67s29 67 66 67s67 -30 67 -67z" />
    <glyph glyph-name="Kcommaaccent" unicode="&#x136;" horiz-adv-x="672" 
d="M410 -139c0 -60 -47 -135 -121 -172l-12 19c40 34 59 67 69 104c-41 2 -66 30 -66 65c0 34 27 62 61 62c45 0 69 -36 69 -78zM660 0h-155l-300 352v-352h-125v733h125v-330l288 330h151l-320 -352z" />
    <glyph glyph-name="kcommaaccent" unicode="&#x137;" horiz-adv-x="476" 
d="M315 -151c0 -60 -47 -135 -121 -172l-12 19c40 34 59 67 69 104c-41 2 -66 30 -66 65c0 34 27 62 61 62c45 0 69 -36 69 -78zM472 0h-136l-166 202v-202h-113v733h113v-489l158 183h136l-189 -201z" />
    <glyph glyph-name="Lacute" unicode="&#x139;" horiz-adv-x="545" 
d="M360 888l-202 -89l-29 55l182 134zM527 0h-447v733h125v-619h322v-114z" />
    <glyph glyph-name="lacute" unicode="&#x13a;" horiz-adv-x="231" 
d="M303 883l-202 -89l-29 55l182 134zM172 0h-113v733h113v-733z" />
    <glyph glyph-name="Lcaron" unicode="&#x13d;" horiz-adv-x="545" 
d="M323 733l90 -17c0 -89 -39 -150 -97 -193l-51 33c36 43 55 97 58 177zM527 0h-447v733h125v-619h322v-114z" />
    <glyph glyph-name="lcaron" unicode="&#x13e;" horiz-adv-x="231" 
d="M262 733l90 -17c0 -89 -39 -150 -97 -193l-51 33c36 43 55 97 58 177zM172 0h-113v733h113v-733z" />
    <glyph glyph-name="Lcommaaccent" unicode="&#x13b;" horiz-adv-x="545" 
d="M364 -151c0 -60 -47 -135 -121 -172l-12 19c40 34 59 67 69 104c-41 2 -66 30 -66 65c0 34 27 62 61 62c45 0 69 -36 69 -78zM527 0h-447v733h125v-619h322v-114z" />
    <glyph glyph-name="lcommaaccent" unicode="&#x13c;" horiz-adv-x="231" 
d="M181 -151c0 -60 -47 -135 -121 -172l-12 19c40 34 59 67 69 104c-41 2 -66 30 -66 65c0 34 27 62 61 62c45 0 69 -36 69 -78zM172 0h-113v733h113v-733z" />
    <glyph glyph-name="Ldot" unicode="&#x13f;" horiz-adv-x="545" 
d="M527 0h-447v733h125v-619h322v-114zM359 384c0 -34 28 -63 62 -63c35 0 63 29 63 63c0 35 -28 63 -63 63c-34 0 -62 -28 -62 -63z" />
    <glyph glyph-name="ldot" unicode="&#x140;" horiz-adv-x="336" 
d="M172 0h-113v733h113v-733zM221 367c0 -34 28 -63 62 -63c35 0 63 29 63 63c0 35 -28 63 -63 63c-34 0 -62 -28 -62 -63z" />
    <glyph glyph-name="Lslash" unicode="&#x141;" horiz-adv-x="545" 
d="M527 0h-447v273l-58 -26v107l58 27v352h125v-296l103 47v-107s-103 -46 -103 -47v-216h322v-114z" />
    <glyph glyph-name="lslash" unicode="&#x142;" horiz-adv-x="246" 
d="M227 347l-47 -24v-323h-114v267l-43 -22v107l43 22v359h114v-303c0 1 47 24 47 24v-107z" />
    <glyph glyph-name="Nacute" unicode="&#x143;" horiz-adv-x="758" 
d="M549 873l-202 -89l-29 55l182 134zM678 -11l-14 -3l-459 484v-470h-125v743l20 4l453 -477v463h125v-744z" />
    <glyph glyph-name="nacute" unicode="&#x144;" horiz-adv-x="512" 
d="M430 568l-202 -89l-29 55l182 134zM463 0h-114v264c0 54 -20 77 -65 77c-39 0 -81 -25 -113 -60v-281h-114v427h110v-71c50 51 103 79 158 79c94 0 138 -59 138 -143v-292z" />
    <glyph glyph-name="Ncaron" unicode="&#x147;" horiz-adv-x="758" 
d="M547 969l-149 -178h-44l-144 178h106l65 -85l64 85h102zM678 -11l-14 -3l-459 484v-470h-125v743l20 4l453 -477v463h125v-744z" />
    <glyph glyph-name="ncaron" unicode="&#x148;" horiz-adv-x="512" 
d="M428 664l-149 -178h-44l-144 178h106l65 -85l64 85h102zM463 0h-114v264c0 54 -20 77 -65 77c-39 0 -81 -25 -113 -60v-281h-114v427h110v-71c50 51 103 79 158 79c94 0 138 -59 138 -143v-292z" />
    <glyph glyph-name="Ncommaaccent" unicode="&#x145;" horiz-adv-x="758" 
d="M444 -139c0 -60 -47 -135 -121 -172l-12 19c40 34 59 67 69 104c-41 2 -66 30 -66 65c0 34 27 62 61 62c45 0 69 -36 69 -78zM678 -11l-14 -3l-459 484v-470h-125v743l20 4l453 -477v463h125v-744z" />
    <glyph glyph-name="ncommaaccent" unicode="&#x146;" horiz-adv-x="512" 
d="M325 -151c0 -60 -47 -135 -121 -172l-12 19c40 34 59 67 69 104c-41 2 -66 30 -66 65c0 34 27 62 61 62c45 0 69 -36 69 -78zM463 0h-114v264c0 54 -20 77 -65 77c-39 0 -81 -25 -113 -60v-281h-114v427h110v-71c50 51 103 79 158 79c94 0 138 -59 138 -143v-292z" />
    <glyph glyph-name="Ntilde" unicode="&#xd1;" horiz-adv-x="758" 
d="M678 -11l-14 -3l-459 484v-470h-125v743l20 4l453 -477v463h125v-744zM551 859c-29 -35 -70 -59 -107 -59c-26 0 -45 7 -66 19c-23 14 -38 19 -57 19c-25 0 -47 -13 -68 -38l-40 64c29 36 70 59 107 59c26 0 45 -7 66 -19c21 -13 37 -18 55 -18c24 0 46 13 67 38z" />
    <glyph glyph-name="ntilde" unicode="&#xf1;" horiz-adv-x="512" 
d="M463 0h-114v264c0 54 -20 77 -65 77c-39 0 -81 -25 -113 -60v-281h-114v427h110v-71c50 51 103 79 158 79c94 0 138 -59 138 -143v-292zM432 554c-29 -35 -70 -59 -107 -59c-26 0 -45 7 -66 19c-23 14 -38 19 -57 19c-25 0 -47 -13 -68 -38l-40 64c29 36 70 59 107 59
c26 0 45 -7 66 -19c21 -13 37 -18 55 -18c24 0 46 13 67 38z" />
    <glyph glyph-name="Oacute" unicode="&#xd3;" horiz-adv-x="851" 
d="M596 880l-202 -89l-29 55l182 134zM796 366c0 -217 -162 -378 -374 -378s-367 161 -367 378c0 218 162 379 374 379s367 -161 367 -379zM662 366c0 153 -97 267 -236 267c-140 0 -237 -114 -237 -267c0 -152 97 -267 237 -267c139 0 236 115 236 267z" />
    <glyph glyph-name="oacute" unicode="&#xf3;" horiz-adv-x="523" 
d="M432 568l-202 -89l-29 55l182 134zM482 214c0 -121 -85 -222 -222 -222c-138 0 -224 101 -224 222s86 221 224 221c137 0 222 -100 222 -221zM370 214c0 82 -43 134 -110 134c-68 0 -111 -52 -111 -134c0 -83 43 -135 111 -135c67 0 110 52 110 135z" />
    <glyph glyph-name="Obreve" unicode="&#x14e;" horiz-adv-x="851" 
d="M796 366c0 -217 -162 -378 -374 -378s-367 161 -367 378c0 218 162 379 374 379s367 -161 367 -379zM662 366c0 153 -97 267 -236 267c-140 0 -237 -114 -237 -267c0 -152 97 -267 237 -267c139 0 236 115 236 267zM568 938c0 -75 -53 -138 -143 -138
c-89 0 -142 63 -142 138l88 7c0 -44 20 -69 54 -69c35 0 55 25 55 69z" />
    <glyph glyph-name="obreve" unicode="&#x14f;" horiz-adv-x="523" 
d="M482 214c0 -121 -85 -222 -222 -222c-138 0 -224 101 -224 222s86 221 224 221c137 0 222 -100 222 -221zM370 214c0 82 -43 134 -110 134c-68 0 -111 -52 -111 -134c0 -83 43 -135 111 -135c67 0 110 52 110 135zM404 626c0 -75 -53 -138 -143 -138
c-89 0 -142 63 -142 138l88 7c0 -44 20 -69 54 -69c35 0 55 25 55 69z" />
    <glyph glyph-name="Ocircumflex" unicode="&#xd4;" horiz-adv-x="851" 
d="M594 805h-107l-65 84l-64 -84h-101l148 177h45zM796 366c0 -217 -162 -378 -374 -378s-367 161 -367 378c0 218 162 379 374 379s367 -161 367 -379zM662 366c0 153 -97 267 -236 267c-140 0 -237 -114 -237 -267c0 -152 97 -267 237 -267c139 0 236 115 236 267z" />
    <glyph glyph-name="ocircumflex" unicode="&#xf4;" horiz-adv-x="523" 
d="M430 493h-107l-65 84l-64 -84h-101l148 177h45zM482 214c0 -121 -85 -222 -222 -222c-138 0 -224 101 -224 222s86 221 224 221c137 0 222 -100 222 -221zM370 214c0 82 -43 134 -110 134c-68 0 -111 -52 -111 -134c0 -83 43 -135 111 -135c67 0 110 52 110 135z" />
    <glyph glyph-name="Odieresis" unicode="&#xd6;" horiz-adv-x="851" 
d="M579 869c0 -34 -28 -63 -62 -63c-35 0 -63 29 -63 63c0 35 28 63 63 63c34 0 62 -28 62 -63zM397 869c0 -34 -28 -63 -63 -63c-34 0 -63 29 -63 63c0 35 29 63 63 63c35 0 63 -28 63 -63zM796 366c0 -217 -162 -378 -374 -378s-367 161 -367 378c0 218 162 379 374 379
s367 -161 367 -379zM662 366c0 153 -97 267 -236 267c-140 0 -237 -114 -237 -267c0 -152 97 -267 237 -267c139 0 236 115 236 267z" />
    <glyph glyph-name="odieresis" unicode="&#xf6;" horiz-adv-x="523" 
d="M415 557c0 -34 -28 -63 -62 -63c-35 0 -63 29 -63 63c0 35 28 63 63 63c34 0 62 -28 62 -63zM233 557c0 -34 -28 -63 -63 -63c-34 0 -63 29 -63 63c0 35 29 63 63 63c35 0 63 -28 63 -63zM482 214c0 -121 -85 -222 -222 -222c-138 0 -224 101 -224 222s86 221 224 221
c137 0 222 -100 222 -221zM370 214c0 82 -43 134 -110 134c-68 0 -111 -52 -111 -134c0 -83 43 -135 111 -135c67 0 110 52 110 135z" />
    <glyph glyph-name="Ograve" unicode="&#xd2;" horiz-adv-x="851" 
d="M796 366c0 -217 -162 -378 -374 -378s-367 161 -367 378c0 218 162 379 374 379s367 -161 367 -379zM662 366c0 153 -97 267 -236 267c-140 0 -237 -114 -237 -267c0 -152 97 -267 237 -267c139 0 236 115 236 267zM481 844l-33 -53l-204 91l53 97z" />
    <glyph glyph-name="ograve" unicode="&#xf2;" horiz-adv-x="523" 
d="M482 214c0 -121 -85 -222 -222 -222c-138 0 -224 101 -224 222s86 221 224 221c137 0 222 -100 222 -221zM370 214c0 82 -43 134 -110 134c-68 0 -111 -52 -111 -134c0 -83 43 -135 111 -135c67 0 110 52 110 135zM318 532l-33 -53l-204 91l53 97z" />
    <glyph glyph-name="Ohungarumlaut" unicode="&#x150;" horiz-adv-x="851" 
d="M496 953l-145 -155l-42 37l112 182zM655 943l-147 -154l-42 38l113 180zM796 366c0 -217 -162 -378 -374 -378s-367 161 -367 378c0 218 162 379 374 379s367 -161 367 -379zM662 366c0 153 -97 267 -236 267c-140 0 -237 -114 -237 -267c0 -152 97 -267 237 -267
c139 0 236 115 236 267z" />
    <glyph glyph-name="ohungarumlaut" unicode="&#x151;" horiz-adv-x="523" 
d="M332 641l-145 -155l-42 37l112 182zM491 631l-147 -154l-42 38l113 180zM482 214c0 -121 -85 -222 -222 -222c-138 0 -224 101 -224 222s86 221 224 221c137 0 222 -100 222 -221zM370 214c0 82 -43 134 -110 134c-68 0 -111 -52 -111 -134c0 -83 43 -135 111 -135
c67 0 110 52 110 135z" />
    <glyph glyph-name="Omacron" unicode="&#x14c;" horiz-adv-x="851" 
d="M569 816h-287v86h287v-86zM796 366c0 -217 -162 -378 -374 -378s-367 161 -367 378c0 218 162 379 374 379s367 -161 367 -379zM662 366c0 153 -97 267 -236 267c-140 0 -237 -114 -237 -267c0 -152 97 -267 237 -267c139 0 236 115 236 267z" />
    <glyph glyph-name="omacron" unicode="&#x14d;" horiz-adv-x="523" 
d="M405 504h-287v86h287v-86zM482 214c0 -121 -85 -222 -222 -222c-138 0 -224 101 -224 222s86 221 224 221c137 0 222 -100 222 -221zM370 214c0 82 -43 134 -110 134c-68 0 -111 -52 -111 -134c0 -83 43 -135 111 -135c67 0 110 52 110 135z" />
    <glyph glyph-name="Oslash" unicode="&#xd8;" horiz-adv-x="851" 
d="M796 366c0 -217 -162 -378 -374 -378c-90 0 -170 29 -232 79c-17 -18 -73 -73 -73 -73l-68 69l76 74c-44 63 -70 141 -70 229c0 218 162 379 374 379c90 0 170 -29 232 -80c0 1 73 73 73 73l68 -67l-76 -75c45 -63 70 -141 70 -230zM662 366c0 51 -12 97 -33 136
c0 0 -350 -349 -350 -350c39 -33 89 -53 147 -53c139 0 236 115 236 267zM572 580c-39 34 -89 53 -146 53c-140 0 -237 -114 -237 -267c0 -50 12 -97 33 -135z" />
    <glyph glyph-name="oslash" unicode="&#xf8;" horiz-adv-x="518" 
d="M488 394l-48 -46c28 -37 42 -84 42 -134c0 -122 -85 -222 -222 -222c-58 0 -105 17 -143 46c-13 -12 -48 -46 -48 -46l-39 39l49 47c-28 38 -43 85 -43 136c0 122 86 221 224 221c58 0 107 -17 143 -48l47 46zM158 153l175 167c-19 19 -44 28 -73 28
c-69 0 -112 -50 -112 -134c0 -23 3 -43 10 -61zM361 272l-174 -167c19 -17 43 -26 73 -26c68 0 110 50 110 135c0 22 -3 41 -9 58z" />
    <glyph glyph-name="Oslashacute" unicode="&#x1fe;" horiz-adv-x="851" 
d="M796 366c0 -217 -162 -378 -374 -378c-90 0 -170 29 -232 79c-17 -18 -73 -73 -73 -73l-68 69l76 74c-44 63 -70 141 -70 229c0 218 162 379 374 379c90 0 170 -29 232 -80c0 1 73 73 73 73l68 -67l-76 -75c45 -63 70 -141 70 -230zM662 366c0 51 -12 97 -33 136
c0 0 -350 -349 -350 -350c39 -33 89 -53 147 -53c139 0 236 115 236 267zM572 580c-39 34 -89 53 -146 53c-140 0 -237 -114 -237 -267c0 -50 12 -97 33 -135zM596 880l-202 -89l-29 55l182 134z" />
    <glyph glyph-name="oslashacute" unicode="&#x1ff;" horiz-adv-x="523" 
d="M488 394l-48 -46c28 -37 42 -84 42 -134c0 -122 -85 -222 -222 -222c-58 0 -105 17 -143 46c-13 -12 -48 -46 -48 -46l-39 39l49 47c-28 38 -43 85 -43 136c0 122 86 221 224 221c58 0 107 -17 143 -48l47 46zM158 153l175 167c-19 19 -44 28 -73 28
c-69 0 -112 -50 -112 -134c0 -23 3 -43 10 -61zM361 272l-174 -167c19 -17 43 -26 73 -26c68 0 110 50 110 135c0 22 -3 41 -9 58zM432 568l-202 -89l-29 55l182 134z" />
    <glyph glyph-name="Otilde" unicode="&#xd5;" horiz-adv-x="851" 
d="M796 366c0 -217 -162 -378 -374 -378s-367 161 -367 378c0 218 162 379 374 379s367 -161 367 -379zM662 366c0 153 -97 267 -236 267c-140 0 -237 -114 -237 -267c0 -152 97 -267 237 -267c139 0 236 115 236 267zM598 866c-29 -35 -70 -59 -107 -59c-26 0 -45 7 -66 19
c-23 14 -38 19 -57 19c-25 0 -47 -13 -68 -38l-40 64c29 36 70 59 107 59c26 0 45 -7 66 -19c21 -13 37 -18 55 -18c24 0 46 13 67 38z" />
    <glyph glyph-name="otilde" unicode="&#xf5;" horiz-adv-x="523" 
d="M482 214c0 -121 -85 -222 -222 -222c-138 0 -224 101 -224 222s86 221 224 221c137 0 222 -100 222 -221zM370 214c0 82 -43 134 -110 134c-68 0 -111 -52 -111 -134c0 -83 43 -135 111 -135c67 0 110 52 110 135zM434 554c-29 -35 -70 -59 -107 -59c-26 0 -45 7 -66 19
c-23 14 -38 19 -57 19c-25 0 -47 -13 -68 -38l-40 64c29 36 70 59 107 59c26 0 45 -7 66 -19c21 -13 37 -18 55 -18c24 0 46 13 67 38z" />
    <glyph glyph-name="OE" unicode="&#x152;" horiz-adv-x="1076" 
d="M1009 0h-392c-44 -4 -86 -6 -134 -6c-277 0 -428 168 -428 365c0 207 144 379 421 379c50 0 91 -2 134 -5h399v-114h-321v-192h290v-110h-290v-203h321v-114zM563 111v511c-31 5 -58 6 -105 6c-176 0 -269 -112 -269 -269c0 -151 106 -254 279 -254c37 0 69 2 95 6z" />
    <glyph glyph-name="oe" unicode="&#x153;" horiz-adv-x="805" 
d="M780 230c0 -14 -1 -36 -3 -51h-296c8 -60 44 -98 133 -98c35 0 81 10 123 23l14 -88c-51 -14 -103 -24 -146 -24c-86 0 -146 32 -182 80c-37 -48 -93 -80 -166 -80c-134 0 -221 101 -221 222s87 221 221 221c73 0 131 -32 168 -82c34 49 89 82 163 82
c124 0 192 -91 192 -205zM679 250c-5 58 -39 96 -97 96c-56 0 -91 -35 -99 -96h196zM370 214c0 82 -43 134 -111 134c-67 0 -110 -52 -110 -134c0 -83 43 -135 110 -135c68 0 111 52 111 135z" />
    <glyph glyph-name="Racute" unicode="&#x154;" horiz-adv-x="633" 
d="M484 880l-202 -89l-29 55l182 134zM623 0h-145l-160 264c-13 -1 -25 -1 -39 -1c-24 0 -49 1 -73 2v-265h-125v726c58 7 119 12 193 12c208 0 300 -101 300 -231c0 -95 -52 -172 -143 -212zM442 501c0 74 -56 125 -152 125c-30 0 -59 -1 -84 -6v-250c23 -3 48 -4 72 -4
c109 0 164 51 164 135z" />
    <glyph glyph-name="racute" unicode="&#x155;" horiz-adv-x="334" 
d="M354 568l-202 -89l-29 55l182 134zM319 323c-66 7 -122 -5 -148 -42v-281h-114v427h110v-70c40 53 86 78 152 78v-112z" />
    <glyph glyph-name="Rcaron" unicode="&#x158;" horiz-adv-x="633" 
d="M482 976l-149 -178h-44l-144 178h106l65 -85l64 85h102zM623 0h-145l-160 264c-13 -1 -25 -1 -39 -1c-24 0 -49 1 -73 2v-265h-125v726c58 7 119 12 193 12c208 0 300 -101 300 -231c0 -95 -52 -172 -143 -212zM442 501c0 74 -56 125 -152 125c-30 0 -59 -1 -84 -6v-250
c23 -3 48 -4 72 -4c109 0 164 51 164 135z" />
    <glyph glyph-name="rcaron" unicode="&#x159;" horiz-adv-x="334" 
d="M352 664l-149 -178h-44l-144 178h106l65 -85l64 85h102zM319 323c-66 7 -122 -5 -148 -42v-281h-114v427h110v-70c40 53 86 78 152 78v-112z" />
    <glyph glyph-name="Rcommaaccent" unicode="&#x156;" horiz-adv-x="633" 
d="M379 -139c0 -60 -47 -135 -121 -172l-12 19c40 34 59 67 69 104c-41 2 -66 30 -66 65c0 34 27 62 61 62c45 0 69 -36 69 -78zM623 0h-145l-160 264c-13 -1 -25 -1 -39 -1c-24 0 -49 1 -73 2v-265h-125v726c58 7 119 12 193 12c208 0 300 -101 300 -231
c0 -95 -52 -172 -143 -212zM442 501c0 74 -56 125 -152 125c-30 0 -59 -1 -84 -6v-250c23 -3 48 -4 72 -4c109 0 164 51 164 135z" />
    <glyph glyph-name="rcommaaccent" unicode="&#x157;" horiz-adv-x="334" 
d="M183 -151c0 -60 -47 -135 -121 -172l-12 19c40 34 59 67 69 104c-41 2 -66 30 -66 65c0 34 27 62 61 62c45 0 69 -36 69 -78zM319 323c-66 7 -122 -5 -148 -42v-281h-114v427h110v-70c40 53 86 78 152 78v-112z" />
    <glyph glyph-name="Sacute" unicode="&#x15a;" horiz-adv-x="537" 
d="M448 880l-202 -89l-29 55l182 134zM497 207c0 -118 -91 -219 -242 -219c-83 0 -166 30 -230 72l43 112c58 -42 128 -68 191 -68c77 0 111 45 111 96s-22 83 -138 132c-128 54 -174 120 -174 208c0 106 88 205 241 205c71 0 141 -24 184 -53l-40 -110
c-39 27 -97 52 -147 52c-77 0 -113 -42 -113 -91s36 -78 127 -118c145 -63 187 -122 187 -218z" />
    <glyph glyph-name="sacute" unicode="&#x15b;" horiz-adv-x="386" 
d="M374 568l-202 -89l-29 55l182 134zM357 128c0 -78 -70 -136 -165 -136c-65 0 -121 22 -169 56l44 81c38 -30 87 -50 123 -50c42 0 61 17 61 44c0 68 -203 41 -203 177c0 77 66 135 163 135c49 0 102 -18 140 -40l-35 -83c-36 22 -74 37 -110 37c-38 0 -56 -18 -56 -40
c0 -63 207 -39 207 -181z" />
    <glyph glyph-name="Scaron" unicode="&#x160;" horiz-adv-x="537" 
d="M446 976l-149 -178h-44l-144 178h106l65 -85l64 85h102zM497 207c0 -118 -91 -219 -242 -219c-83 0 -166 30 -230 72l43 112c58 -42 128 -68 191 -68c77 0 111 45 111 96s-22 83 -138 132c-128 54 -174 120 -174 208c0 106 88 205 241 205c71 0 141 -24 184 -53l-40 -110
c-39 27 -97 52 -147 52c-77 0 -113 -42 -113 -91s36 -78 127 -118c145 -63 187 -122 187 -218z" />
    <glyph glyph-name="scaron" unicode="&#x161;" horiz-adv-x="386" 
d="M372 664l-149 -178h-44l-144 178h106l65 -85l64 85h102zM357 128c0 -78 -70 -136 -165 -136c-65 0 -121 22 -169 56l44 81c38 -30 87 -50 123 -50c42 0 61 17 61 44c0 68 -203 41 -203 177c0 77 66 135 163 135c49 0 102 -18 140 -40l-35 -83c-36 22 -74 37 -110 37
c-38 0 -56 -18 -56 -40c0 -63 207 -39 207 -181z" />
    <glyph glyph-name="Scedilla" unicode="&#x15e;" horiz-adv-x="537" 
d="M374 -147c0 -54 -38 -102 -114 -102c-39 0 -78 13 -120 38l28 61c35 -22 65 -33 95 -33c23 0 36 12 36 34c0 21 -23 43 -96 45l-4 9l22 85c-71 6 -141 33 -196 70l43 112c58 -42 128 -68 191 -68c77 0 111 45 111 96s-22 83 -138 132c-128 54 -174 120 -174 208
c0 106 88 205 241 205c71 0 141 -24 184 -53l-40 -110c-39 27 -97 52 -147 52c-77 0 -113 -42 -113 -91s36 -78 127 -118c145 -63 187 -122 187 -218c0 -113 -83 -210 -222 -218l-8 -35c80 -19 107 -57 107 -101z" />
    <glyph glyph-name="scedilla" unicode="&#x15f;" horiz-adv-x="386" 
d="M301 -147c0 -54 -38 -102 -114 -102c-39 0 -78 13 -120 38l28 61c35 -22 65 -33 95 -33c23 0 36 12 36 34c0 21 -23 43 -96 45l-4 9l24 90c-48 7 -90 26 -127 53l44 81c38 -30 87 -50 123 -50c42 0 61 17 61 44c0 68 -203 41 -203 177c0 77 66 135 163 135
c49 0 102 -18 140 -40l-35 -83c-36 22 -74 37 -110 37c-38 0 -56 -18 -56 -40c0 -63 207 -39 207 -181c0 -75 -65 -131 -154 -135l-9 -39c80 -19 107 -57 107 -101z" />
    <glyph glyph-name="Scommaaccent" unicode="&#x218;" horiz-adv-x="537" 
d="M328 -151c0 -60 -47 -135 -121 -172l-12 19c40 34 59 67 69 104c-41 2 -66 30 -66 65c0 34 27 62 61 62c45 0 69 -36 69 -78zM497 207c0 -118 -91 -219 -242 -219c-83 0 -166 30 -230 72l43 112c58 -42 128 -68 191 -68c77 0 111 45 111 96s-22 83 -138 132
c-128 54 -174 120 -174 208c0 106 88 205 241 205c71 0 141 -24 184 -53l-40 -110c-39 27 -97 52 -147 52c-77 0 -113 -42 -113 -91s36 -78 127 -118c145 -63 187 -122 187 -218z" />
    <glyph glyph-name="scommaaccent" unicode="&#x219;" horiz-adv-x="386" 
d="M261 -151c0 -60 -47 -135 -121 -172l-12 19c40 34 59 67 69 104c-41 2 -66 30 -66 65c0 34 27 62 61 62c45 0 69 -36 69 -78zM357 128c0 -78 -70 -136 -165 -136c-65 0 -121 22 -169 56l44 81c38 -30 87 -50 123 -50c42 0 61 17 61 44c0 68 -203 41 -203 177
c0 77 66 135 163 135c49 0 102 -18 140 -40l-35 -83c-36 22 -74 37 -110 37c-38 0 -56 -18 -56 -40c0 -63 207 -39 207 -181z" />
    <glyph glyph-name="Tcaron" unicode="&#x164;" horiz-adv-x="640" 
d="M488 976l-149 -178h-44l-144 178h106l65 -85l64 85h102zM615 619h-232v-619h-125v619h-233v114h590v-114z" />
    <glyph glyph-name="tcaron" unicode="&#x165;" horiz-adv-x="339" 
d="M293 696l90 -17c0 -89 -39 -150 -97 -193l-51 33c36 43 55 97 58 177zM321 335h-119v-196c0 -38 18 -52 51 -52c12 0 23 2 37 5l21 -88c-32 -7 -61 -12 -91 -12c-80 0 -131 39 -131 153v190h-81v15l81 81v69l113 71v-144h119v-92z" />
    <glyph glyph-name="Tcommaaccent" unicode="&#x162;" horiz-adv-x="640" 
d="M385 -151c0 -60 -47 -135 -121 -172l-12 19c40 34 59 67 69 104c-41 2 -66 30 -66 65c0 34 27 62 61 62c45 0 69 -36 69 -78zM615 619h-232v-619h-125v619h-233v114h590v-114z" />
    <glyph glyph-name="tcommaaccent" unicode="&#x163;" horiz-adv-x="339" 
d="M256 -151c0 -60 -47 -135 -121 -172l-12 19c40 34 59 67 69 104c-41 2 -66 30 -66 65c0 34 27 62 61 62c45 0 69 -36 69 -78zM321 335h-119v-196c0 -38 18 -52 51 -52c12 0 23 2 37 5l21 -88c-32 -7 -61 -12 -91 -12c-80 0 -131 39 -131 153v190h-81v15l81 81v69l113 71
v-144h119v-92z" />
    <glyph glyph-name="Thorn" unicode="&#xde;" horiz-adv-x="599" 
d="M570 370c0 -149 -105 -256 -292 -256c-24 0 -49 2 -73 3v-117h-125v733h125v-117c15 2 46 2 61 2c201 0 304 -111 304 -248zM440 366c0 72 -51 136 -153 136c-28 0 -56 -2 -82 -6v-268c25 -2 48 -4 70 -4c113 0 165 59 165 142z" />
    <glyph glyph-name="thorn" unicode="&#xfe;" horiz-adv-x="534" 
d="M495 217c0 -123 -88 -225 -213 -225c-43 0 -79 10 -111 28v-236h-114v949h112v-345c35 30 76 47 132 47c111 0 194 -91 194 -218zM382 216c0 75 -42 129 -109 129c-44 0 -75 -15 -103 -45v-179c23 -26 61 -39 99 -39c64 0 113 50 113 134z" />
    <glyph glyph-name="Uacute" unicode="&#xda;" horiz-adv-x="729" 
d="M536 873l-202 -89l-29 55l182 134zM658 281c0 -187 -115 -293 -295 -293c-183 0 -291 103 -291 293v452h125v-443c0 -126 62 -188 168 -188c105 0 168 63 168 188v443h125v-452z" />
    <glyph glyph-name="uacute" unicode="&#xfa;" horiz-adv-x="511" 
d="M426 568l-202 -89l-29 55l182 134zM459 0h-110v66c-42 -42 -100 -74 -155 -74c-94 0 -141 59 -141 143v292h114v-264c0 -53 24 -76 68 -76c39 0 78 21 110 56v284h114v-427z" />
    <glyph glyph-name="Ubreve" unicode="&#x16c;" horiz-adv-x="729" 
d="M658 281c0 -187 -115 -293 -295 -293c-183 0 -291 103 -291 293v452h125v-443c0 -126 62 -188 168 -188c105 0 168 63 168 188v443h125v-452zM508 931c0 -75 -53 -138 -143 -138c-89 0 -142 63 -142 138l88 7c0 -44 20 -69 54 -69c35 0 55 25 55 69z" />
    <glyph glyph-name="ubreve" unicode="&#x16d;" horiz-adv-x="511" 
d="M459 0h-110v66c-42 -42 -100 -74 -155 -74c-94 0 -141 59 -141 143v292h114v-264c0 -53 24 -76 68 -76c39 0 78 21 110 56v284h114v-427zM398 626c0 -75 -53 -138 -143 -138c-89 0 -142 63 -142 138l88 7c0 -44 20 -69 54 -69c35 0 55 25 55 69z" />
    <glyph glyph-name="Ucircumflex" unicode="&#xdb;" horiz-adv-x="729" 
d="M534 798h-107l-65 84l-64 -84h-101l148 177h45zM658 281c0 -187 -115 -293 -295 -293c-183 0 -291 103 -291 293v452h125v-443c0 -126 62 -188 168 -188c105 0 168 63 168 188v443h125v-452z" />
    <glyph glyph-name="ucircumflex" unicode="&#xfb;" horiz-adv-x="511" 
d="M424 493h-107l-65 84l-64 -84h-101l148 177h45zM459 0h-110v66c-42 -42 -100 -74 -155 -74c-94 0 -141 59 -141 143v292h114v-264c0 -53 24 -76 68 -76c39 0 78 21 110 56v284h114v-427z" />
    <glyph glyph-name="Udieresis" unicode="&#xdc;" horiz-adv-x="729" 
d="M519 862c0 -34 -28 -63 -62 -63c-35 0 -63 29 -63 63c0 35 28 63 63 63c34 0 62 -28 62 -63zM337 862c0 -34 -28 -63 -63 -63c-34 0 -63 29 -63 63c0 35 29 63 63 63c35 0 63 -28 63 -63zM658 281c0 -187 -115 -293 -295 -293c-183 0 -291 103 -291 293v452h125v-443
c0 -126 62 -188 168 -188c105 0 168 63 168 188v443h125v-452z" />
    <glyph glyph-name="udieresis" unicode="&#xfc;" horiz-adv-x="511" 
d="M409 557c0 -34 -28 -63 -62 -63c-35 0 -63 29 -63 63c0 35 28 63 63 63c34 0 62 -28 62 -63zM227 557c0 -34 -28 -63 -63 -63c-34 0 -63 29 -63 63c0 35 29 63 63 63c35 0 63 -28 63 -63zM459 0h-110v66c-42 -42 -100 -74 -155 -74c-94 0 -141 59 -141 143v292h114v-264
c0 -53 24 -76 68 -76c39 0 78 21 110 56v284h114v-427z" />
    <glyph glyph-name="Ugrave" unicode="&#xd9;" horiz-adv-x="729" 
d="M658 281c0 -187 -115 -293 -295 -293c-183 0 -291 103 -291 293v452h125v-443c0 -126 62 -188 168 -188c105 0 168 63 168 188v443h125v-452zM421 837l-33 -53l-204 91l53 97z" />
    <glyph glyph-name="ugrave" unicode="&#xf9;" horiz-adv-x="511" 
d="M459 0h-110v66c-42 -42 -100 -74 -155 -74c-94 0 -141 59 -141 143v292h114v-264c0 -53 24 -76 68 -76c39 0 78 21 110 56v284h114v-427zM312 532l-33 -53l-204 91l53 97z" />
    <glyph glyph-name="Uhungarumlaut" unicode="&#x170;" horiz-adv-x="729" 
d="M658 281c0 -187 -115 -293 -295 -293c-183 0 -291 103 -291 293v452h125v-443c0 -126 62 -188 168 -188c105 0 168 63 168 188v443h125v-452zM436 946l-145 -155l-42 37l112 182zM595 936l-147 -154l-42 38l113 180z" />
    <glyph glyph-name="uhungarumlaut" unicode="&#x171;" horiz-adv-x="511" 
d="M459 0h-110v66c-42 -42 -100 -74 -155 -74c-94 0 -141 59 -141 143v292h114v-264c0 -53 24 -76 68 -76c39 0 78 21 110 56v284h114v-427zM327 641l-145 -155l-42 37l112 182zM486 631l-147 -154l-42 38l113 180z" />
    <glyph glyph-name="Umacron" unicode="&#x16a;" horiz-adv-x="729" 
d="M658 281c0 -187 -115 -293 -295 -293c-183 0 -291 103 -291 293v452h125v-443c0 -126 62 -188 168 -188c105 0 168 63 168 188v443h125v-452zM509 809h-287v86h287v-86z" />
    <glyph glyph-name="umacron" unicode="&#x16b;" horiz-adv-x="511" 
d="M459 0h-110v66c-42 -42 -100 -74 -155 -74c-94 0 -141 59 -141 143v292h114v-264c0 -53 24 -76 68 -76c39 0 78 21 110 56v284h114v-427zM399 504h-287v86h287v-86z" />
    <glyph glyph-name="Uogonek" unicode="&#x172;" horiz-adv-x="729" 
d="M658 281c0 -170 -95 -274 -248 -290c-36 -45 -54 -77 -54 -107c0 -23 13 -36 33 -36c18 0 31 8 47 24l32 -45c-26 -29 -58 -48 -103 -49c-56 0 -91 36 -90 88c0 42 21 77 61 123c-167 9 -264 111 -264 292v452h125v-443c0 -126 62 -188 168 -188c105 0 168 63 168 188
v443h125v-452z" />
    <glyph glyph-name="uogonek" unicode="&#x173;" horiz-adv-x="511" 
d="M459 0h-40c-38 -47 -57 -80 -57 -111c0 -23 13 -36 33 -36c18 0 31 8 47 24l32 -45c-26 -29 -58 -48 -103 -49c-56 0 -91 36 -90 88c0 44 23 80 68 130v65c-42 -42 -100 -74 -155 -74c-94 0 -141 59 -141 143v292h114v-264c0 -53 24 -76 68 -76c39 0 78 21 110 56v284
h114v-427z" />
    <glyph glyph-name="Uring" unicode="&#x16e;" horiz-adv-x="729" 
d="M483 906c0 -62 -47 -114 -118 -114s-118 52 -118 114c0 61 47 114 118 114s118 -53 118 -114zM415 906c0 33 -22 57 -50 57s-50 -23 -50 -57s22 -57 50 -57s50 23 50 57zM658 281c0 -187 -115 -293 -295 -293c-183 0 -291 103 -291 293v452h125v-443
c0 -126 62 -188 168 -188c105 0 168 63 168 188v443h125v-452z" />
    <glyph glyph-name="uring" unicode="&#x16f;" horiz-adv-x="511" 
d="M374 601c0 -62 -47 -114 -118 -114s-118 52 -118 114c0 61 47 114 118 114s118 -53 118 -114zM306 601c0 33 -22 57 -50 57s-50 -23 -50 -57s22 -57 50 -57s50 23 50 57zM459 0h-110v66c-42 -42 -100 -74 -155 -74c-94 0 -141 59 -141 143v292h114v-264
c0 -53 24 -76 68 -76c39 0 78 21 110 56v284h114v-427z" />
    <glyph glyph-name="Wacute" unicode="&#x1e82;" horiz-adv-x="969" 
d="M655 880l-202 -89l-29 55l182 134zM964 733l-232 -745l-20 -2l-228 510l-225 -510l-19 2l-235 745h138l132 -462l204 468h14l205 -465l130 459h136z" />
    <glyph glyph-name="wacute" unicode="&#x1e83;" horiz-adv-x="635" 
d="M489 568l-202 -89l-29 55l182 134zM636 427l-165 -438h-20l-131 260l-132 -260h-20l-166 438h126l71 -240l110 241h20l113 -241l69 240h125z" />
    <glyph glyph-name="Wcircumflex" unicode="&#x174;" horiz-adv-x="969" 
d="M653 805h-107l-65 84l-64 -84h-101l148 177h45zM964 733l-232 -745l-20 -2l-228 510l-225 -510l-19 2l-235 745h138l132 -462l204 468h14l205 -465l130 459h136z" />
    <glyph glyph-name="wcircumflex" unicode="&#x175;" horiz-adv-x="635" 
d="M487 493h-107l-65 84l-64 -84h-101l148 177h45zM636 427l-165 -438h-20l-131 260l-132 -260h-20l-166 438h126l71 -240l110 241h20l113 -241l69 240h125z" />
    <glyph glyph-name="Wdieresis" unicode="&#x1e84;" horiz-adv-x="969" 
d="M638 869c0 -34 -28 -63 -62 -63c-35 0 -63 29 -63 63c0 35 28 63 63 63c34 0 62 -28 62 -63zM456 869c0 -34 -28 -63 -63 -63c-34 0 -63 29 -63 63c0 35 29 63 63 63c35 0 63 -28 63 -63zM964 733l-232 -745l-20 -2l-228 510l-225 -510l-19 2l-235 745h138l132 -462
l204 468h14l205 -465l130 459h136z" />
    <glyph glyph-name="wdieresis" unicode="&#x1e85;" horiz-adv-x="635" 
d="M472 557c0 -34 -28 -63 -62 -63c-35 0 -63 29 -63 63c0 35 28 63 63 63c34 0 62 -28 62 -63zM290 557c0 -34 -28 -63 -63 -63c-34 0 -63 29 -63 63c0 35 29 63 63 63c35 0 63 -28 63 -63zM636 427l-165 -438h-20l-131 260l-132 -260h-20l-166 438h126l71 -240l110 241h20
l113 -241l69 240h125z" />
    <glyph glyph-name="Wgrave" unicode="&#x1e80;" horiz-adv-x="969" 
d="M964 733l-232 -745l-20 -2l-228 510l-225 -510l-19 2l-235 745h138l132 -462l204 468h14l205 -465l130 459h136zM541 844l-33 -53l-204 91l53 97z" />
    <glyph glyph-name="wgrave" unicode="&#x1e81;" horiz-adv-x="635" 
d="M636 427l-165 -438h-20l-131 260l-132 -260h-20l-166 438h126l71 -240l110 241h20l113 -241l69 240h125zM375 532l-33 -53l-204 91l53 97z" />
    <glyph glyph-name="Yacute" unicode="&#xdd;" horiz-adv-x="671" 
d="M656 733l-258 -425v-308h-125v309l-258 424h143l180 -310l178 310h140zM506 873l-202 -89l-29 55l182 134z" />
    <glyph glyph-name="yacute" unicode="&#xfd;" horiz-adv-x="461" 
d="M463 427l-302 -643h-113l130 259l-180 384h126l109 -271l107 271h123zM401 568l-202 -89l-29 55l182 134z" />
    <glyph glyph-name="Ycircumflex" unicode="&#x176;" horiz-adv-x="671" 
d="M656 733l-258 -425v-308h-125v309l-258 424h143l180 -310l178 310h140zM504 798h-107l-65 84l-64 -84h-101l148 177h45z" />
    <glyph glyph-name="ycircumflex" unicode="&#x177;" horiz-adv-x="461" 
d="M463 427l-302 -643h-113l130 259l-180 384h126l109 -271l107 271h123zM399 493h-107l-65 84l-64 -84h-101l148 177h45z" />
    <glyph glyph-name="Ydieresis" unicode="&#x178;" horiz-adv-x="671" 
d="M656 733l-258 -425v-308h-125v309l-258 424h143l180 -310l178 310h140zM489 862c0 -34 -28 -63 -62 -63c-35 0 -63 29 -63 63c0 35 28 63 63 63c34 0 62 -28 62 -63zM307 862c0 -34 -28 -63 -63 -63c-34 0 -63 29 -63 63c0 35 29 63 63 63c35 0 63 -28 63 -63z" />
    <glyph glyph-name="ydieresis" unicode="&#xff;" horiz-adv-x="461" 
d="M463 427l-302 -643h-113l130 259l-180 384h126l109 -271l107 271h123zM384 557c0 -34 -28 -63 -62 -63c-35 0 -63 29 -63 63c0 35 28 63 63 63c34 0 62 -28 62 -63zM202 557c0 -34 -28 -63 -63 -63c-34 0 -63 29 -63 63c0 35 29 63 63 63c35 0 63 -28 63 -63z" />
    <glyph glyph-name="Ygrave" unicode="&#x1ef2;" horiz-adv-x="671" 
d="M656 733l-258 -425v-308h-125v309l-258 424h143l180 -310l178 310h140zM391 837l-33 -53l-204 91l53 97z" />
    <glyph glyph-name="ygrave" unicode="&#x1ef3;" horiz-adv-x="461" 
d="M463 427l-302 -643h-113l130 259l-180 384h126l109 -271l107 271h123zM287 532l-33 -53l-204 91l53 97z" />
    <glyph glyph-name="Zacute" unicode="&#x179;" horiz-adv-x="650" 
d="M495 880l-202 -89l-29 55l182 134zM620 718l-389 -604h380v-114h-576l-5 15l389 604h-363v114h559z" />
    <glyph glyph-name="zacute" unicode="&#x17a;" horiz-adv-x="424" 
d="M385 568l-202 -89l-29 55l182 134zM405 412l-224 -318h219v-94h-378l-5 15l223 318h-204v94h364z" />
    <glyph glyph-name="Zcaron" unicode="&#x17d;" horiz-adv-x="650" 
d="M493 976l-149 -178h-44l-144 178h106l65 -85l64 85h102zM620 718l-389 -604h380v-114h-576l-5 15l389 604h-363v114h559z" />
    <glyph glyph-name="zcaron" unicode="&#x17e;" horiz-adv-x="424" 
d="M383 664l-149 -178h-44l-144 178h106l65 -85l64 85h102zM405 412l-224 -318h219v-94h-378l-5 15l223 318h-204v94h364z" />
    <glyph glyph-name="Zdotaccent" unicode="&#x17b;" horiz-adv-x="650" 
d="M620 718l-389 -604h380v-114h-576l-5 15l389 604h-363v114h559zM262 869c0 35 28 63 62 63c35 0 63 -28 63 -63c0 -34 -28 -63 -63 -63c-34 0 -62 29 -62 63z" />
    <glyph glyph-name="zdotaccent" unicode="&#x17c;" horiz-adv-x="424" 
d="M405 412l-224 -318h219v-94h-378l-5 15l223 318h-204v94h364zM152 557c0 35 28 63 62 63c35 0 63 -28 63 -63c0 -34 -28 -63 -63 -63c-34 0 -62 29 -62 63z" />
    <glyph glyph-name="schwa" unicode="&#x259;" horiz-adv-x="476" 
d="M29 197c0 14 0 36 3 51h296c-9 60 -45 98 -133 98c-36 0 -82 -10 -124 -23l-14 88c52 14 106 24 149 24c160 0 234 -99 234 -220c0 -115 -77 -223 -216 -223c-128 0 -195 91 -195 205zM326 177h-196c5 -58 39 -96 96 -96c56 0 92 35 100 96z" />
    <glyph glyph-name="germandbls" unicode="&#xdf;" horiz-adv-x="541" 
d="M531 415l-137 -192c86 -24 117 -78 117 -143c0 -117 -103 -174 -220 -174c-19 0 -40 2 -60 5l11 92c17 -3 34 -4 48 -4c72 0 109 29 109 79c0 40 -28 72 -100 72c-11 0 -23 0 -36 -2l-7 14l113 171h-190v-333h-113v531c0 131 60 209 184 209c27 0 48 -3 70 -9l-13 -96
c-12 3 -28 4 -42 4c-59 0 -86 -25 -86 -108v-104h347z" />
    <glyph glyph-name="zero" unicode="0" horiz-adv-x="562" 
d="M520 292c0 -161 -82 -302 -240 -302c-157 0 -236 141 -236 302c0 162 83 301 240 301s236 -139 236 -301zM403 292c0 119 -39 207 -121 207c-81 0 -121 -88 -121 -207s40 -207 121 -207c82 0 121 88 121 207z" />
    <glyph glyph-name="one" unicode="1" horiz-adv-x="376" 
d="M276 0h-113v455l-101 -39l-36 96l220 84h30v-596z" />
    <glyph glyph-name="two" unicode="2" horiz-adv-x="464" 
d="M417 0h-388l-2 47c91 87 153 152 193 202c48 58 72 101 72 148c0 57 -35 94 -99 94c-38 0 -76 -12 -115 -38l-38 88c49 33 101 52 165 52c125 0 201 -78 201 -177c0 -60 -25 -116 -78 -185c-32 -40 -73 -85 -123 -133h212v-98z" />
    <glyph glyph-name="three" unicode="3" horiz-adv-x="455" 
d="M414 529l-175 -188c121 -13 172 -78 172 -164c0 -98 -83 -187 -217 -187c-61 0 -110 11 -159 27l26 94c45 -15 85 -22 125 -22c67 0 111 31 111 86c0 51 -42 85 -127 85c-26 0 -48 -1 -71 -6l-17 39l174 192h-212v98h368z" />
    <glyph glyph-name="four" unicode="4" horiz-adv-x="499" 
d="M477 147h-87v-149h-108v149h-260v60l312 387h56v-355h87v-92zM282 239v152l-122 -152h122z" />
    <glyph glyph-name="five" unicode="5" horiz-adv-x="485" 
d="M440 189c0 -110 -86 -199 -226 -199c-54 0 -107 10 -156 27l21 96c39 -15 81 -25 126 -25c82 0 124 42 124 95c0 54 -41 89 -128 89c-36 0 -75 -3 -110 -12l-9 11v312h327v-98h-221v-119c15 1 33 2 46 2c142 0 206 -77 206 -179z" />
    <glyph glyph-name="six" unicode="6" horiz-adv-x="503" 
d="M458 193c0 -99 -74 -203 -206 -203c-126 0 -208 91 -208 211c0 145 86 290 328 410l47 -88c-107 -50 -194 -110 -237 -181c27 22 59 33 99 33c112 0 177 -83 177 -182zM348 187c0 63 -36 107 -93 107c-63 0 -100 -39 -100 -106c0 -61 40 -108 97 -108c62 0 96 50 96 107z
" />
    <glyph glyph-name="seven" unicode="7" horiz-adv-x="458" 
d="M447 583l-258 -583h-114l213 482h-246v101h405z" />
    <glyph glyph-name="eight" unicode="8" horiz-adv-x="510" 
d="M455 157c0 -90 -78 -167 -200 -167s-200 77 -200 167c0 61 31 112 95 141c-57 30 -83 73 -83 131c0 91 75 164 188 164s187 -73 187 -164c0 -58 -26 -101 -82 -131c64 -29 95 -80 95 -141zM337 417c0 46 -33 82 -82 82s-82 -36 -82 -82c0 -48 33 -82 82 -82s82 34 82 82z
M341 170c0 50 -34 85 -86 85s-86 -35 -86 -85c0 -49 34 -86 86 -86s86 37 86 86z" />
    <glyph glyph-name="nine" unicode="9" horiz-adv-x="498" 
d="M460 379c0 -139 -86 -286 -329 -406l-47 85c107 54 185 113 232 179c-23 -15 -51 -25 -87 -25c-112 0 -180 81 -180 181c0 102 76 200 205 200c128 0 206 -90 206 -214zM348 399c0 61 -38 105 -95 105c-61 0 -94 -48 -94 -104c0 -63 34 -106 92 -106c63 0 97 39 97 105z
" />
    <glyph glyph-name="zero.lin" horiz-adv-x="704" 
d="M650 366c0 -209 -109 -378 -299 -378c-191 0 -297 169 -297 378c0 208 108 379 299 379s297 -171 297 -379zM514 366c0 170 -64 270 -162 270c-99 0 -161 -100 -161 -270s63 -270 162 -270s161 100 161 270z" />
    <glyph glyph-name="one.lin" horiz-adv-x="441" 
d="M323 0h-125v603l-126 -44l-35 97l246 90h40v-746z" />
    <glyph glyph-name="two.lin" horiz-adv-x="580" 
d="M522 0h-485l-3 63c109 107 168 170 229 239c66 78 109 151 109 218c0 60 -40 114 -125 114c-61 0 -108 -22 -152 -52l-45 101c68 43 132 62 209 62c159 0 244 -93 244 -215c0 -77 -46 -156 -112 -240c-40 -51 -101 -113 -163 -178h294v-112z" />
    <glyph glyph-name="three.lin" horiz-adv-x="569" 
d="M514 230c0 -130 -104 -242 -271 -242c-76 0 -137 14 -199 34l34 102c56 -19 105 -28 156 -28c93 0 150 56 150 125c0 62 -57 113 -164 113c-30 0 -62 -5 -92 -11l-25 58l231 240h-279v112h458l3 -73l-232 -231c142 -7 230 -83 230 -199z" />
    <glyph glyph-name="four.lin" horiz-adv-x="630" 
d="M599 181h-105v-181h-124v181h-342v78l390 486h76v-458h105v-106zM370 287v242l-195 -242h195z" />
    <glyph glyph-name="five.lin" horiz-adv-x="597" 
d="M537 232c0 -137 -107 -244 -284 -244c-67 0 -132 12 -194 33l29 106c48 -19 99 -31 155 -31c109 0 166 52 166 125c0 69 -55 132 -171 132c-37 0 -103 -7 -138 -17l-11 13v384h417v-112h-292v-167c24 2 48 4 68 4c171 0 255 -100 255 -226z" />
    <glyph glyph-name="six.lin" horiz-adv-x="621" 
d="M571 239c0 -125 -92 -252 -258 -252c-156 0 -258 113 -258 265c0 180 107 362 410 511l56 -101c-126 -55 -254 -148 -307 -239c35 29 85 45 130 45c142 0 227 -108 227 -229zM444 233c0 78 -50 141 -127 141c-79 0 -133 -57 -133 -139c0 -79 56 -144 132 -144
c79 0 128 66 128 142z" />
    <glyph glyph-name="seven.lin" horiz-adv-x="563" 
d="M551 733l-316 -733h-134l278 619h-334v114h506z" />
    <glyph glyph-name="eight.lin" horiz-adv-x="598" 
d="M548 194c0 -113 -97 -206 -250 -206c-152 0 -249 93 -249 206c0 77 41 144 118 176c-65 34 -100 97 -100 169c0 115 90 206 231 206s232 -90 232 -205c0 -72 -39 -138 -101 -170c79 -33 119 -99 119 -176zM409 522c0 66 -40 115 -111 115c-70 0 -111 -49 -111 -115
c0 -63 44 -107 111 -107s111 44 111 107zM419 212c0 66 -49 113 -121 113c-71 0 -118 -47 -118 -113c0 -64 47 -115 119 -115c74 0 120 51 120 115z" />
    <glyph glyph-name="nine.lin" horiz-adv-x="627" 
d="M50 494c0 126 95 251 263 251c159 0 260 -119 260 -269c0 -222 -153 -380 -416 -507l-58 100c131 55 248 139 310 231c-28 -21 -76 -39 -130 -39c-134 0 -229 102 -229 233zM179 499c0 -81 52 -143 131 -143c82 0 131 63 131 141s-53 141 -129 141
c-82 0 -133 -65 -133 -139z" />
    <glyph glyph-name="fraction" unicode="&#x2044;" horiz-adv-x="578" 
d="M551 557l-474 -575l-51 44l474 574z" />
    <glyph glyph-name="fraction.lin" horiz-adv-x="705" 
d="M675 707l-590 -722l-55 47l591 721z" />
    <glyph glyph-name="period" unicode="." horiz-adv-x="247" 
d="M59 58c0 36 29 65 65 65s65 -29 65 -65c0 -37 -29 -66 -65 -66s-65 29 -65 66z" />
    <glyph glyph-name="comma" unicode="," horiz-adv-x="247" 
d="M190 43c0 -60 -46 -136 -120 -173l-13 19c40 35 59 68 69 104c-40 3 -66 31 -66 66c0 34 28 62 62 62c44 0 68 -36 68 -78z" />
    <glyph glyph-name="colon" unicode=":" horiz-adv-x="247" 
d="M59 58c0 36 29 65 65 65s65 -29 65 -65c0 -37 -29 -66 -65 -66s-65 29 -65 66zM59 321c0 35 29 65 65 65s65 -30 65 -65c0 -37 -29 -66 -65 -66s-65 29 -65 66z" />
    <glyph glyph-name="semicolon" unicode=";" horiz-adv-x="247" 
d="M190 43c0 -60 -46 -136 -120 -173l-13 19c40 35 59 68 69 104c-40 3 -66 31 -66 66c0 34 28 62 62 62c44 0 68 -36 68 -78zM59 321c0 35 29 65 65 65s65 -30 65 -65c0 -37 -29 -66 -65 -66s-65 29 -65 66z" />
    <glyph glyph-name="ellipsis" unicode="&#x2026;" horiz-adv-x="771" 
d="M69 58c0 36 29 65 65 65s65 -29 65 -65c0 -37 -29 -66 -65 -66s-65 29 -65 66zM321 58c0 36 29 65 65 65s65 -29 65 -65c0 -37 -29 -66 -65 -66s-65 29 -65 66zM573 58c0 36 29 65 65 65s65 -29 65 -65c0 -37 -29 -66 -65 -66s-65 29 -65 66z" />
    <glyph glyph-name="periodcentered" unicode="&#xb7;" horiz-adv-x="287" 
d="M79 366c0 36 29 65 65 65s65 -29 65 -65s-29 -65 -65 -65s-65 29 -65 65z" />
    <glyph glyph-name="bullet" unicode="&#x2022;" horiz-adv-x="431" 
d="M377 366c0 -91 -72 -164 -161 -164c-90 0 -162 73 -162 164c0 92 72 165 162 165c89 0 161 -73 161 -165z" />
    <glyph glyph-name="ampersand" unicode="&#x26;" horiz-adv-x="632" 
d="M524 293l70 -58c-31 -39 -63 -77 -96 -111c25 -22 53 -46 82 -69l-66 -70c-30 25 -62 50 -89 74c-54 -42 -114 -69 -180 -69c-103 0 -195 59 -195 166c0 71 54 131 134 167c-26 41 -40 80 -40 114c0 88 78 161 168 161c101 0 160 -72 160 -141c0 -64 -42 -127 -145 -165
c27 -32 62 -69 104 -107c34 33 65 71 93 108zM374 449c0 35 -26 63 -62 63c-35 0 -63 -32 -63 -73c0 -24 10 -54 32 -86c68 27 93 63 93 96zM357 122c-49 46 -91 90 -125 132c-41 -17 -69 -52 -69 -92c0 -48 37 -80 91 -80c34 0 69 16 103 40z" />
    <glyph glyph-name="ampersand.cap" horiz-adv-x="733" 
d="M367 353c35 -42 82 -88 138 -137c44 44 89 96 127 146l82 -67c-40 -51 -84 -103 -128 -148l106 -85l-76 -79c-39 31 -77 61 -113 91c-68 -51 -141 -86 -219 -86c-135 0 -243 80 -243 207c0 90 66 161 158 200c-32 51 -48 101 -48 149c0 111 95 200 209 200
c126 0 198 -91 198 -179c0 -91 -66 -166 -191 -212zM421 145c-66 59 -123 116 -167 171c-44 -20 -83 -60 -83 -112c0 -63 48 -111 123 -111c40 0 83 19 127 52zM311 428c79 27 131 74 131 131c0 48 -32 84 -81 84c-51 0 -87 -44 -87 -101c0 -36 11 -74 37 -114z" />
    <glyph glyph-name="exclam" unicode="!" horiz-adv-x="262" 
d="M194 733l-24 -528h-78l-24 528h126zM196 58c0 -37 -29 -66 -65 -66s-65 29 -65 66c0 36 29 65 65 65s65 -29 65 -65z" />
    <glyph glyph-name="exclamdown" unicode="&#xa1;" horiz-adv-x="262" 
d="M66 676c0 36 29 65 65 65s65 -29 65 -65s-29 -65 -65 -65s-65 29 -65 65zM69 0l23 528h79l23 -528h-125z" />
    <glyph glyph-name="question" unicode="?" horiz-adv-x="394" 
d="M377 567c0 -147 -183 -177 -183 -293v-57h-101v72c0 136 156 175 156 266c0 53 -37 79 -101 79c-36 0 -69 -7 -103 -20l-22 100c46 16 93 26 146 26c140 0 208 -78 208 -173zM208 58c0 -37 -29 -66 -66 -66c-36 0 -65 29 -65 66c0 36 29 65 65 65c37 0 66 -29 66 -65z
" />
    <glyph glyph-name="questiondown" unicode="&#xbf;" horiz-adv-x="394" 
d="M186 676c0 36 29 65 66 65c36 0 65 -29 65 -65s-29 -65 -65 -65c-37 0 -66 29 -66 65zM17 166c0 147 183 178 183 293v57h101v-72c0 -136 -156 -174 -156 -266c0 -52 37 -79 101 -79c36 0 69 8 103 21l22 -100c-46 -16 -93 -27 -146 -27c-140 0 -208 79 -208 173z" />
    <glyph glyph-name="quotedblleft" unicode="&#x201c;" horiz-adv-x="354" 
d="M316 577c0 -32 -26 -58 -58 -58c-42 0 -65 32 -65 72c0 56 41 121 111 158l12 -18c-33 -29 -52 -62 -62 -93c38 -2 62 -29 62 -61zM155 577c0 -32 -27 -58 -59 -58c-41 0 -65 32 -65 72c0 56 41 121 112 158l11 -18c-33 -29 -52 -62 -62 -93c38 -2 63 -29 63 -61z" />
    <glyph glyph-name="quotedblright" unicode="&#x201d;" horiz-adv-x="354" 
d="M323 673c0 -56 -41 -121 -112 -158l-11 18c33 29 52 62 62 93c-38 2 -63 29 -63 61s27 58 59 58c41 0 65 -32 65 -72zM161 673c0 -56 -41 -121 -111 -158l-12 18c33 29 52 62 62 93c-38 2 -62 29 -62 61s26 58 58 58c42 0 65 -32 65 -72z" />
    <glyph glyph-name="quoteleft" unicode="&#x2018;" horiz-adv-x="192" 
d="M155 577c0 -32 -27 -58 -59 -58c-41 0 -65 32 -65 72c0 56 41 121 112 158l11 -18c-33 -29 -52 -62 -62 -93c38 -2 63 -29 63 -61z" />
    <glyph glyph-name="quoteright" unicode="&#x2019;" horiz-adv-x="192" 
d="M161 673c0 -56 -41 -121 -111 -158l-12 18c33 29 52 62 62 93c-38 2 -62 29 -62 61s26 58 58 58c42 0 65 -32 65 -72z" />
    <glyph glyph-name="quotedblbase" unicode="&#x201e;" horiz-adv-x="378" 
d="M333 48c0 -56 -40 -121 -111 -158l-11 18c33 29 52 62 62 94c-38 2 -63 28 -63 60s27 59 59 59c41 0 64 -32 64 -73zM172 48c0 -56 -41 -121 -111 -158l-12 18c33 29 52 62 62 94c-38 2 -62 28 -62 60s26 59 58 59c42 0 65 -32 65 -73z" />
    <glyph glyph-name="quotesinglbase" unicode="&#x201a;" horiz-adv-x="216" 
d="M172 49c0 -57 -41 -122 -111 -159l-12 18c33 29 52 62 62 94c-38 2 -62 28 -62 60s26 59 58 59c42 0 65 -32 65 -72z" />
    <glyph glyph-name="guillemotleft" unicode="&#xab;" horiz-adv-x="472" 
d="M432 9h-106l-105 164l105 163h106l-109 -163zM259 9h-106l-105 164l105 163h106l-109 -163z" />
    <glyph glyph-name="guillemotright" unicode="&#xbb;" horiz-adv-x="472" 
d="M425 173l-105 -164h-107l110 164l-110 163h107zM252 173l-105 -164h-107l110 164l-110 163h107z" />
    <glyph glyph-name="guilsinglleft" unicode="&#x2039;" horiz-adv-x="303" 
d="M259 9h-106l-105 164l105 163h106l-109 -163z" />
    <glyph glyph-name="guilsinglright" unicode="&#x203a;" horiz-adv-x="303" 
d="M255 173l-105 -164h-106l109 164l-109 163h106z" />
    <glyph glyph-name="guillemotleft.cap" horiz-adv-x="472" 
d="M432 207h-106l-105 164l105 163h106l-109 -163zM259 207h-106l-105 164l105 163h106l-109 -163z" />
    <glyph glyph-name="guillemotright.cap" horiz-adv-x="472" 
d="M425 371l-105 -164h-107l110 164l-110 163h107zM252 371l-105 -164h-107l110 164l-110 163h107z" />
    <glyph glyph-name="guilsinglleft.cap" horiz-adv-x="303" 
d="M259 207h-106l-105 164l105 163h106l-109 -163z" />
    <glyph glyph-name="guilsinglright.cap" horiz-adv-x="303" 
d="M255 371l-105 -164h-106l109 164l-109 163h106z" />
    <glyph glyph-name="hyphen" unicode="-" horiz-adv-x="345" 
d="M297 201h-248v87h248v-87z" />
    <glyph glyph-name="endash" unicode="&#x2013;" horiz-adv-x="500" 
d="M450 206h-400v77h400v-77z" />
    <glyph glyph-name="emdash" unicode="&#x2014;" horiz-adv-x="750" 
d="M700 206h-650v77h650v-77z" />
    <glyph glyph-name="hyphen.cap" horiz-adv-x="345" 
d="M297 327h-248v87h248v-87z" />
    <glyph glyph-name="endash.cap" horiz-adv-x="500" 
d="M450 332h-400v77h400v-77z" />
    <glyph glyph-name="emdash.cap" horiz-adv-x="750" 
d="M700 332h-650v77h650v-77z" />
    <glyph glyph-name="slash" unicode="/" horiz-adv-x="356" 
d="M356 733l-238 -949h-90l239 949h89z" />
    <glyph glyph-name="backslash" unicode="\" horiz-adv-x="356" 
d="M328 -216h-90l-238 949h89z" />
    <glyph glyph-name="bar" unicode="|" horiz-adv-x="267" 
d="M177 -216h-87v949h87v-949z" />
    <glyph glyph-name="slash.cap" horiz-adv-x="356" 
d="M342 839l-238 -949h-90l239 949h89z" />
    <glyph glyph-name="backslash.cap" horiz-adv-x="356" 
d="M342 -110h-90l-238 949h89z" />
    <glyph glyph-name="bar.cap" horiz-adv-x="267" 
d="M177 -110h-87v949h87v-949z" />
    <glyph glyph-name="parenleft" unicode="(" horiz-adv-x="362" 
d="M370 -164l-52 -75c-177 112 -266 304 -266 497c0 194 89 386 266 497l52 -74c-149 -96 -219 -251 -219 -423c0 -171 70 -326 219 -422z" />
    <glyph glyph-name="parenright" unicode=")" horiz-adv-x="362" 
d="M310 258c0 -193 -88 -385 -266 -497l-52 75c149 96 220 251 220 422c0 172 -71 327 -220 423l52 74c178 -111 266 -303 266 -497z" />
    <glyph glyph-name="parenleft.cap" horiz-adv-x="360" 
d="M368 -58l-52 -75c-177 112 -266 304 -266 497c0 194 89 386 266 497l52 -74c-149 -96 -219 -251 -219 -423c0 -171 70 -326 219 -422z" />
    <glyph glyph-name="parenright.cap" horiz-adv-x="360" 
d="M310 364c0 -193 -88 -385 -266 -497l-52 75c149 96 220 251 220 422c0 172 -71 327 -220 423l52 74c178 -111 266 -303 266 -497z" />
    <glyph glyph-name="bracketleft" unicode="[" horiz-adv-x="322" 
d="M300 -216h-221v949h221v-87h-126v-776h126v-86z" />
    <glyph glyph-name="bracketright" unicode="]" horiz-adv-x="322" 
d="M244 -216h-221v86h125v776h-125v87h221v-949z" />
    <glyph glyph-name="bracketleft.cap" horiz-adv-x="322" 
d="M300 -110h-221v949h221v-87h-126v-776h126v-86z" />
    <glyph glyph-name="bracketright.cap" horiz-adv-x="322" 
d="M244 -110h-221v86h125v776h-125v87h221v-949z" />
    <glyph glyph-name="braceleft" unicode="{" horiz-adv-x="311" 
d="M299 -223c-123 0 -189 65 -189 182v194c0 43 -13 65 -62 65h-23v81h23c49 0 62 22 62 65v193c0 117 66 183 189 183v-93c-62 0 -92 -25 -92 -100v-176c0 -63 -16 -87 -73 -113c57 -26 73 -49 73 -113v-175c0 -76 30 -101 92 -101v-92z" />
    <glyph glyph-name="braceright" unicode="}" horiz-adv-x="311" 
d="M286 218h-23c-49 0 -62 -22 -62 -65v-194c0 -117 -65 -182 -189 -182v92c62 0 93 25 93 101v175c0 64 15 87 72 113c-57 26 -72 50 -72 113v176c0 75 -31 100 -93 100v93c124 0 189 -66 189 -183v-193c0 -43 13 -65 62 -65h23v-81z" />
    <glyph glyph-name="braceleft.cap" horiz-adv-x="311" 
d="M299 -117c-123 0 -189 65 -189 182v194c0 43 -13 65 -62 65h-23v81h23c49 0 62 22 62 65v193c0 117 66 183 189 183v-93c-62 0 -92 -25 -92 -100v-176c0 -63 -16 -87 -73 -113c57 -26 73 -49 73 -113v-175c0 -76 30 -101 92 -101v-92z" />
    <glyph glyph-name="braceright.cap" horiz-adv-x="311" 
d="M286 324h-23c-49 0 -62 -22 -62 -65v-194c0 -117 -65 -182 -189 -182v92c62 0 93 25 93 101v175c0 64 15 87 72 113c-57 26 -72 50 -72 113v176c0 75 -31 100 -93 100v93c124 0 189 -66 189 -183v-193c0 -43 13 -65 62 -65h23v-81z" />
    <glyph glyph-name="at" unicode="@" horiz-adv-x="687" 
d="M640 315c0 -62 -22 -117 -67 -150c-19 -14 -44 -21 -68 -21c-34 0 -68 16 -84 49c-26 -28 -59 -44 -100 -44c-51 0 -92 30 -92 83c0 46 37 80 95 80c31 0 50 -6 68 -15v9c0 39 -21 55 -61 55c-20 0 -42 -4 -64 -10l-8 56c24 8 59 14 85 14c85 0 119 -40 119 -118v-64
c0 -34 23 -47 45 -47c13 0 26 4 35 11c24 18 39 59 39 105c0 98 -65 229 -236 229c-128 0 -235 -112 -235 -247s96 -248 266 -248c36 0 81 10 119 23l14 -53c-47 -14 -98 -24 -136 -24c-199 0 -324 137 -324 302s135 301 296 301c196 0 294 -151 294 -276zM392 220v31
c-15 11 -27 16 -47 16c-24 0 -43 -13 -43 -34c0 -23 16 -36 43 -36c21 0 36 9 47 23z" />
    <glyph glyph-name="at.cap" horiz-adv-x="862" 
d="M802 398c0 -77 -28 -147 -84 -188c-24 -18 -56 -26 -85 -26c-41 0 -85 17 -102 65c-33 -40 -77 -60 -122 -60c-67 0 -118 39 -118 103c0 60 44 102 119 102c39 0 63 -8 88 -19v10c0 47 -19 72 -82 72c-25 0 -52 -5 -79 -14l-10 71c30 8 73 16 105 16
c108 0 147 -51 147 -147v-80c0 -43 29 -59 58 -59c16 0 34 4 45 14c30 22 51 74 51 131c0 129 -79 293 -300 293c-166 0 -302 -142 -302 -317s120 -314 340 -314c46 0 102 12 149 29l18 -62c-60 -18 -123 -30 -170 -30c-250 0 -408 170 -408 377s170 381 373 381
c245 0 369 -185 369 -348zM498 284v32c-19 14 -38 21 -63 21c-29 0 -55 -17 -55 -43s21 -43 54 -43c27 0 50 14 64 33z" />
    <glyph glyph-name="copyright" unicode="&#xa9;" horiz-adv-x="842" 
d="M792 366c0 -209 -166 -378 -371 -378s-371 169 -371 378s166 379 371 379s371 -170 371 -379zM725 366c0 177 -136 320 -304 320s-304 -143 -304 -320c0 -176 136 -319 304 -319s304 143 304 319zM560 212c-32 -20 -77 -35 -121 -35c-119 0 -202 81 -202 192
c0 110 83 192 202 192c45 0 86 -14 118 -33l-24 -63c-28 16 -62 27 -94 27c-76 0 -121 -49 -121 -123c0 -73 46 -122 122 -122c32 0 68 11 97 28z" />
    <glyph glyph-name="published" unicode="&#x2117;" horiz-adv-x="842" 
d="M495 426c0 33 -24 61 -71 61c-12 0 -23 -1 -36 -3v-121c12 -1 21 -1 30 -1c52 0 77 25 77 64zM572 427c0 -76 -53 -130 -150 -130c-12 0 -22 1 -34 1v-116h-75v369c35 3 68 6 99 6c105 0 160 -57 160 -130zM792 366c0 -209 -166 -378 -371 -378s-371 169 -371 378
s166 379 371 379s371 -170 371 -379zM725 366c0 177 -136 320 -304 320s-304 -143 -304 -320c0 -176 136 -319 304 -319s304 143 304 319z" />
    <glyph glyph-name="registered.alt" horiz-adv-x="842" 
d="M421 -12c-205 0 -371 169 -371 378s166 379 371 379s371 -170 371 -379s-166 -378 -371 -378zM421 47c168 0 304 143 304 319c0 177 -136 320 -304 320s-304 -143 -304 -320c0 -176 136 -319 304 -319zM299 182v369c31 3 63 6 103 6c111 0 158 -54 158 -121
c0 -46 -26 -86 -69 -108l93 -146h-86l-72 127h-18c-12 0 -22 0 -34 1v-128h-75zM374 487v-115c11 -1 20 -2 32 -2c47 0 75 23 75 63c0 34 -26 57 -69 57c-14 0 -26 -1 -38 -3z" />
    <glyph glyph-name="registered" unicode="&#xae;" horiz-adv-x="386" 
d="M135 487v170c14 2 32 3 50 3c51 0 74 -24 74 -56c0 -21 -11 -41 -31 -50l42 -67h-43l-33 58c-4 -1 -7 -1 -9 -1c-3 0 -7 0 -13 1v-58h-37zM172 626v-50c6 -1 10 -1 14 -1c21 0 33 10 33 28c0 15 -11 24 -31 24c-6 0 -11 0 -16 -1zM193 427c77 0 138 66 138 144
c0 80 -61 146 -138 146c-76 0 -138 -66 -138 -146c0 -79 62 -144 138 -144zM193 398c-94 0 -170 78 -170 173c0 97 76 175 170 175c95 0 171 -78 171 -175c0 -94 -76 -173 -171 -173z" />
    <glyph glyph-name="trademark" unicode="&#x2122;" horiz-adv-x="503" 
d="M477 511h-49l-3 109l-61 -78h-6l-62 78l-2 -109h-50l11 224h7l100 -126l98 126h7zM210 683h-66v-172h-54v172h-66v50h186v-50z" />
    <glyph glyph-name="servicemark" unicode="&#x2120;" horiz-adv-x="473" 
d="M26 530l16 44c17 -11 37 -20 59 -20c18 0 26 9 26 20c0 13 -8 19 -41 34c-35 16 -52 35 -52 66c0 37 29 63 77 63c25 0 50 -8 64 -17l-14 -44c-13 8 -32 17 -49 17c-16 0 -26 -6 -26 -18c0 -13 10 -19 42 -33c38 -16 52 -37 52 -66c0 -36 -27 -68 -79 -68
c-27 0 -56 9 -75 22zM447 511h-49l-3 109l-61 -78h-6l-62 78l-2 -109h-50l11 224h7l100 -126l98 126h7z" />
    <glyph glyph-name="asterisk" unicode="*" horiz-adv-x="395" 
d="M355 591l-108 -27l72 -84l-63 -45l-59 93l-59 -93l-63 45l72 84l-108 27l24 73l103 -41l-8 109h78l-8 -109l103 41z" />
    <glyph glyph-name="dagger" unicode="&#x2020;" horiz-adv-x="460" 
d="M428 474h-144v-327h-103v327h-148v95h148v164h103v-164h144v-95z" />
    <glyph glyph-name="daggerdbl" unicode="&#x2021;" horiz-adv-x="460" 
d="M433 283h-149v-136h-103v136h-143v96h143v123h-148v95h148v136h103v-136h144v-95h-144v-123h149v-96z" />
    <glyph glyph-name="dollar" unicode="$" horiz-adv-x="480" 
d="M247 665l67 -3l-7 -72c49 -7 90 -24 120 -43l-37 -93c-24 16 -57 32 -91 40l-14 -156c106 -41 152 -85 152 -170c0 -100 -77 -172 -184 -179l-6 -71l-67 3l6 71c-61 8 -113 33 -153 60l42 95c35 -26 77 -48 119 -57l15 168c-101 39 -148 83 -148 164c0 89 70 163 180 171
zM330 159c0 33 -17 54 -56 73l-13 -146c44 6 69 31 69 73zM167 432c0 -29 18 -49 54 -67l11 133c-43 -6 -65 -31 -65 -66z" />
    <glyph glyph-name="dollar.lin" horiz-adv-x="545" 
d="M282 835l71 -3l-8 -89c55 -8 108 -29 148 -55l-50 -101c-28 19 -69 37 -109 45l-19 -206c141 -63 186 -120 186 -216c0 -115 -84 -213 -226 -221l-8 -92l-70 3l8 92c-67 9 -132 36 -184 71l51 103c41 -29 92 -51 143 -59l20 222c-2 0 -4 1 -5 2
c-130 54 -175 111 -175 209c0 100 80 195 219 205zM373 200c0 39 -15 65 -72 97l-16 -192c60 9 88 50 88 95zM181 546c0 -38 19 -62 68 -88l15 175c-56 -10 -83 -46 -83 -87z" />
    <glyph glyph-name="sterling" unicode="&#xa3;" horiz-adv-x="474" 
d="M457 551l-38 -98c-36 25 -69 37 -108 37c-59 0 -86 -43 -86 -103v-54h120v-93h-120v-140h228v-100h-416v100h75v140h-73v7l73 74v73c0 112 69 200 204 200c50 0 99 -18 141 -43z" />
    <glyph glyph-name="sterling.lin" horiz-adv-x="603" 
d="M561 0h-512v106h94v208h-88v15l88 82v91c0 141 77 243 240 243c66 0 127 -23 170 -55l-51 -104c-36 27 -77 45 -122 45c-74 0 -116 -47 -116 -135v-82h170v-100h-170v-208h297v-106z" />
    <glyph glyph-name="Euro" unicode="&#x20ac;" horiz-adv-x="649" 
d="M92 323h-64v75h81c42 115 152 196 296 196c71 0 139 -24 189 -55l-40 -88c-45 25 -100 43 -152 43c-84 0 -144 -36 -174 -96h252v-75h-274c-1 -10 -2 -21 -2 -33s1 -22 2 -32h274v-74h-250c31 -59 93 -96 177 -96c52 0 108 18 153 44l36 -88c-50 -31 -120 -56 -191 -56
c-146 0 -256 80 -297 196h-80v74h64c-1 10 -1 20 -1 32s0 23 1 33z" />
    <glyph glyph-name="Euro.lin" horiz-adv-x="774" 
d="M124 410h-84v78h99c46 149 182 257 370 257c93 0 173 -31 232 -66l-48 -94c-58 34 -123 54 -188 54c-122 0 -203 -63 -241 -151h341v-78h-362c-3 -14 -4 -29 -4 -43c0 -17 1 -33 3 -49h363v-79h-339c39 -83 123 -144 246 -144c63 0 131 24 189 57l43 -94
c-59 -37 -144 -70 -239 -70c-183 0 -316 105 -365 251h-100v79h84c-3 16 -2 32 -2 47c0 16 -1 30 2 45z" />
    <glyph glyph-name="yen" unicode="&#xa5;" horiz-adv-x="547" 
d="M522 583l-153 -248h112v-82h-148v-62h148v-79h-148v-112h-114v112h-152v79h152v62h-152v82h116l-158 248h130l123 -211l118 211h126z" />
    <glyph glyph-name="yen.lin" horiz-adv-x="705" 
d="M676 736c0 0 -225 -361 -224 -361h160v-85h-199v-81h199v-83h-199v-126h-120v126h-199v83h199v81h-199v85h161l-226 361h140l185 -321l186 321h136z" />
    <glyph glyph-name="cent" unicode="&#xa2;" horiz-adv-x="437" 
d="M205 -80l6 79c-105 22 -175 105 -175 213c0 123 91 212 212 222l6 75l68 -3l-7 -74c41 -7 76 -22 105 -40l-37 -81c-23 13 -48 24 -75 29l-22 -256c35 1 69 14 101 32l33 -81c-44 -27 -90 -41 -141 -43l-6 -75zM145 213c0 -56 29 -98 74 -118l21 246
c-56 -12 -95 -54 -95 -128z" />
    <glyph glyph-name="cent.lin" horiz-adv-x="442" 
d="M205 78l6 78c-105 23 -175 106 -175 214c0 123 91 212 212 222l6 75l68 -3l-7 -74c41 -7 76 -22 105 -40l-37 -81c-23 13 -48 24 -75 29l-22 -256c35 1 69 14 101 32l33 -81c-44 -27 -90 -42 -141 -43l-6 -75zM145 371c0 -56 29 -98 74 -118l21 246
c-56 -12 -95 -54 -95 -128z" />
    <glyph glyph-name="numbersign" unicode="#" horiz-adv-x="613" 
d="M588 440l-18 -82h-106l-30 -132h107l-18 -82h-107l-31 -144h-89l32 144h-107l-31 -144h-90l32 144h-107l19 82h106l29 132h-106l18 82h105l32 143h89l-31 -143h106l32 143h89l-32 -143h107zM374 358h-106l-29 -132h106z" />
    <glyph glyph-name="numbersign.lin" horiz-adv-x="781" 
d="M724 451h-129l-37 -170h129l-23 -99h-128l-41 -182h-108l40 182h-153l-41 -182h-109l40 182h-129l23 99h128l37 170h-128l22 99h127l41 183h109l-40 -183h153l41 183h108l-39 -183h129zM328 453l-40 -174h165l38 174h-163z" />
    <glyph glyph-name="paragraph" unicode="&#xb6;" horiz-adv-x="625" 
d="M550 0h-86v486c-18 2 -40 4 -65 5v-491h-86v150c-135 -7 -256 69 -256 205c0 138 127 239 325 239c60 0 112 -5 168 -12v-582zM313 251v237c-87 -12 -132 -60 -132 -126c0 -76 59 -113 132 -111z" />
    <glyph glyph-name="paragraph.lin" horiz-adv-x="715" 
d="M635 0h-102v628c-24 4 -53 5 -88 6v-634h-102v195c-165 -2 -313 84 -313 256c0 170 145 292 396 292c76 0 141 -6 209 -15v-728zM343 306v321c-122 -14 -184 -81 -184 -173c0 -96 80 -151 184 -148z" />
    <glyph glyph-name="section" unicode="&#xa7;" horiz-adv-x="476" 
d="M427 292c0 -40 -23 -70 -58 -91c22 -17 36 -43 36 -77c0 -76 -70 -135 -171 -135c-64 0 -125 22 -172 55l43 82c38 -30 93 -50 132 -50c41 0 61 15 61 42c0 70 -231 40 -231 175c0 41 23 72 59 92c-21 17 -36 40 -36 73c0 77 72 136 169 136c52 0 107 -18 144 -41
l-35 -82c-35 21 -77 37 -113 37c-38 0 -60 -19 -60 -41c0 -61 232 -42 232 -175zM321 281c0 28 -32 43 -105 64c-28 -4 -45 -20 -45 -40c0 -33 51 -42 115 -64c22 6 35 21 35 40z" />
    <glyph glyph-name="section.lin" horiz-adv-x="556" 
d="M501 368c0 -51 -32 -86 -75 -112c26 -21 48 -55 48 -101c0 -94 -80 -167 -211 -167c-80 0 -157 28 -216 70l44 97c49 -34 121 -64 173 -64c56 0 84 24 84 56c0 87 -292 57 -292 221c0 50 29 89 74 114c-27 21 -45 51 -45 93c0 97 84 170 207 170c65 0 134 -22 181 -51
l-41 -98c-44 27 -101 48 -146 48c-49 0 -79 -23 -79 -55c0 -84 294 -55 294 -221zM391 351c0 51 -80 68 -169 96c-35 -9 -55 -33 -55 -62c0 -52 78 -67 171 -95c32 10 53 33 53 61z" />
    <glyph glyph-name="ordfeminine" unicode="&#xaa;" horiz-adv-x="370" 
d="M333 410h-94v31c-23 -24 -52 -37 -92 -37c-65 0 -116 37 -116 103c0 58 46 102 120 102c38 0 61 -8 86 -20v12c0 50 -28 70 -78 70c-25 0 -53 -6 -80 -13l-10 70c30 10 74 17 106 17c107 0 158 -50 158 -147v-188zM237 493v39c-18 13 -36 20 -61 20
c-30 0 -53 -15 -53 -43s20 -44 53 -44c27 0 46 11 61 28z" />
    <glyph glyph-name="ordmasculine" unicode="&#xba;" horiz-adv-x="388" 
d="M368 575c0 -93 -66 -171 -174 -171s-174 78 -174 171s66 170 174 170s174 -77 174 -170zM272 575c0 60 -30 96 -78 96c-49 0 -78 -36 -78 -96s29 -97 78 -97c48 0 78 37 78 97z" />
    <glyph glyph-name="degree" unicode="&#xb0;" horiz-adv-x="410" 
d="M317 581c0 -60 -46 -107 -112 -107s-112 47 -112 107s46 109 112 109s112 -49 112 -109zM252 582c0 30 -19 53 -47 53c-27 0 -46 -22 -46 -53c0 -32 19 -53 46 -53c28 0 47 21 47 53z" />
    <glyph glyph-name="degree.lin" horiz-adv-x="391" 
d="M335 609c0 -73 -55 -136 -139 -136s-140 63 -140 136c0 74 56 136 140 136s139 -62 139 -136zM260 609c0 44 -28 74 -64 74c-37 0 -65 -29 -65 -74c0 -44 28 -73 65 -73c36 0 64 29 64 73z" />
    <glyph glyph-name="percent" unicode="%" horiz-adv-x="706" 
d="M316 443c0 -80 -48 -151 -134 -151c-85 0 -132 71 -132 151s48 150 134 150s132 -70 132 -150zM616 557l-474 -575l-52 44l474 574zM656 141c0 -80 -48 -151 -134 -151s-131 71 -131 151c0 79 47 150 133 150s132 -71 132 -150zM236 443c0 49 -18 84 -53 84
c-34 0 -53 -35 -53 -84s19 -84 53 -84c35 0 53 35 53 84zM576 141c0 49 -18 84 -53 84s-53 -35 -53 -84s18 -85 53 -85s53 36 53 85z" />
    <glyph glyph-name="perthousand" unicode="&#x2030;" horiz-adv-x="1010" 
d="M236 443c0 49 -18 84 -53 84c-34 0 -53 -35 -53 -84s19 -84 53 -84c35 0 53 35 53 84zM316 443c0 -80 -48 -151 -134 -151c-85 0 -132 71 -132 151s48 150 134 150s132 -70 132 -150zM616 557l-474 -575l-52 44l474 574zM576 141c0 49 -18 84 -53 84s-53 -35 -53 -84
s18 -85 53 -85s53 36 53 85zM656 141c0 -80 -48 -151 -134 -151s-131 71 -131 151c0 79 47 150 133 150s132 -71 132 -150zM880 141c0 49 -18 84 -52 84c-35 0 -53 -35 -53 -84s18 -85 53 -85c34 0 52 36 52 85zM960 141c0 -80 -48 -151 -133 -151c-86 0 -132 71 -132 151
c0 79 48 150 134 150c85 0 131 -71 131 -150z" />
    <glyph glyph-name="percent.lin" horiz-adv-x="875" 
d="M388 557c0 -100 -60 -188 -167 -188s-166 88 -166 188s59 188 167 188s166 -88 166 -188zM299 558c0 62 -24 112 -77 112c-52 0 -78 -50 -78 -112s25 -112 78 -112c52 0 77 50 77 112zM756 704l-591 -721l-53 46l589 721zM813 177c0 -100 -60 -189 -168 -189
c-107 0 -165 89 -165 189s59 188 167 188c107 0 166 -88 166 -188zM723 176c0 62 -24 112 -77 112c-52 0 -78 -50 -78 -112s25 -112 78 -112c52 0 77 50 77 112z" />
    <glyph glyph-name="perthousand.lin" horiz-adv-x="1253" 
d="M299 558c0 62 -24 112 -77 112c-52 0 -78 -50 -78 -112s25 -112 78 -112c52 0 77 50 77 112zM388 557c0 -100 -60 -188 -167 -188s-166 88 -166 188s59 188 167 188s166 -88 166 -188zM756 704l-591 -721l-53 46l589 721zM723 176c0 62 -24 112 -77 112
c-52 0 -78 -50 -78 -112s25 -112 78 -112c52 0 77 50 77 112zM813 177c0 -100 -60 -189 -168 -189c-107 0 -165 89 -165 189s59 188 167 188c107 0 166 -88 166 -188zM1103 176c0 62 -24 112 -78 112c-51 0 -77 -50 -77 -112s24 -112 77 -112c52 0 78 50 78 112zM1192 177
c0 -100 -59 -189 -167 -189s-166 89 -166 189s60 188 167 188s166 -88 166 -188z" />
    <glyph glyph-name="quotedbl" unicode="&#x22;" horiz-adv-x="426" 
d="M234 638l-148 -196l-49 33l110 220zM408 628l-148 -197l-50 33l111 221z" />
    <glyph glyph-name="quotedbl.cap" horiz-adv-x="415" 
d="M229 709l-148 -196l-49 33l110 220zM403 699l-148 -197l-50 33l111 221z" />
    <glyph glyph-name="quotesingle" unicode="'" horiz-adv-x="252" 
d="M234 638l-148 -196l-49 33l110 220z" />
    <glyph glyph-name="quotesingle.cap" horiz-adv-x="252" 
d="M229 709l-148 -196l-49 33l110 220z" />
    <glyph glyph-name="plus" unicode="+" 
d="M399 245h-124v-131h-91v131h-124v87h124v131h91v-131h124v-87z" />
    <glyph glyph-name="plus.lin" 
d="M399 328h-124v-131h-91v131h-124v87h124v131h91v-131h124v-87z" />
    <glyph glyph-name="minus" unicode="&#x2212;" 
d="M60 245v87h339v-87h-339z" />
    <glyph glyph-name="minus.lin" 
d="M60 328v87h339v-87h-339z" />
    <glyph glyph-name="divide" unicode="&#xf7;" 
d="M60 246v84h339v-84h-339zM172 429c0 32 26 58 58 58s57 -26 57 -58c0 -31 -25 -57 -57 -57s-58 26 -58 57zM172 147c0 32 26 58 58 58s57 -26 57 -58s-25 -58 -57 -58s-58 26 -58 58z" />
    <glyph glyph-name="divide.lin" 
d="M60 329v84h339v-84h-339zM172 512c0 32 26 58 58 58s57 -26 57 -58c0 -31 -25 -57 -57 -57s-58 26 -58 57zM172 230c0 32 26 58 58 58s57 -26 57 -58s-25 -58 -57 -58s-58 26 -58 58z" />
    <glyph glyph-name="equal" unicode="=" horiz-adv-x="431" 
d="M371 326h-311v85h311v-85zM371 166h-311v84h311v-84z" />
    <glyph glyph-name="equal.lin" horiz-adv-x="431" 
d="M371 409h-311v85h311v-85zM371 249h-311v84h311v-84z" />
    <glyph glyph-name="multiply" unicode="&#xd7;" horiz-adv-x="449" 
d="M62 393l60 61l102 -105l103 105l61 -61l-104 -105l104 -105l-61 -60l-103 104l-102 -104l-60 60l103 105z" />
    <glyph glyph-name="multiply.lin" horiz-adv-x="449" 
d="M62 476l60 61l102 -105l103 105l61 -61l-104 -105l104 -105l-61 -60l-103 104l-102 -104l-60 60l103 105z" />
    <glyph glyph-name="less" unicode="&#x3c;" horiz-adv-x="394" 
d="M355 113l-65 -68l-252 243l252 244l65 -69l-185 -176z" />
    <glyph glyph-name="less.lin" horiz-adv-x="394" 
d="M355 195l-65 -68l-252 243l252 244l65 -69l-185 -176z" />
    <glyph glyph-name="greater" unicode="&#x3e;" horiz-adv-x="394" 
d="M356 289l-251 -244l-66 70l185 175l-185 175l66 67z" />
    <glyph glyph-name="greater.lin" horiz-adv-x="394" 
d="M356 371l-251 -244l-66 70l185 175l-185 175l66 67z" />
    <glyph glyph-name="florin" unicode="&#x192;" horiz-adv-x="420" 
d="M401 580l-15 -101c-12 3 -27 5 -40 5c-59 0 -85 -30 -94 -104l-4 -38h93v-92h-104l-29 -250h-112s29 250 28 250h-81v7l93 90l3 29c16 135 77 212 200 212c25 0 42 -2 62 -8z" />
    <glyph glyph-name="florin.lin" horiz-adv-x="525" 
d="M500 730l-21 -107c-19 5 -36 9 -53 9c-79 0 -119 -50 -131 -150l-7 -65h138v-101h-150l-37 -316h-120l37 316h-89l-1 9l101 91l8 70c19 164 100 256 245 256c32 0 59 -4 80 -12z" />
    <glyph glyph-name="underscore" unicode="_" horiz-adv-x="520" 
d="M520 0h-520v68h520v-68z" />
    <glyph glyph-name="arrowleft" unicode="&#x2190;" horiz-adv-x="708" 
d="M658 222h-456l148 -129l-63 -69l-254 237v13l254 237l63 -69l-148 -129h456v-91z" />
    <glyph glyph-name="arrowright" unicode="&#x2192;" horiz-adv-x="708" 
d="M50 313h456l-147 129l63 69l254 -237v-13l-254 -237l-63 69l147 129h-456v91z" />
    <glyph glyph-name="arrowleft.cap" horiz-adv-x="708" 
d="M658 325h-456l148 -129l-63 -69l-254 237v13l254 237l63 -69l-148 -129h456v-91z" />
    <glyph glyph-name="arrowright.cap" horiz-adv-x="708" 
d="M50 416h456l-147 129l63 69l254 -237v-13l-254 -237l-63 69l147 129h-456v91z" />
    <glyph glyph-name="asciicircum" unicode="^" horiz-adv-x="470" 
d="M407 491h-107l-65 84l-64 -84h-101l148 177h45z" />
    <glyph glyph-name="asciitilde" unicode="~" horiz-adv-x="470" 
d="M406 364c-29 -35 -70 -59 -107 -59c-26 0 -45 7 -66 19c-23 14 -38 19 -57 19c-25 0 -47 -13 -68 -38l-40 64c29 36 70 59 107 59c26 0 45 -7 66 -19c21 -13 37 -18 55 -18c24 0 46 13 67 38z" />
    <glyph glyph-name="hcoslug" horiz-adv-x="694" 
d="M273 18h-26c0 -9 3 -12 10 -12c5 0 8 2 9 7h7c-2 -8 -7 -14 -18 -14c-13 0 -21 8 -21 20s9 21 20 21c14 0 20 -9 19 -22zM254 35c-4 0 -7 -3 -7 -12h14c0 8 -2 12 -7 12zM195 78c5 0 8 4 8 16c0 11 -3 15 -8 15s-8 -4 -8 -15c0 -12 3 -16 8 -16zM210 4c5 0 8 4 8 16
c0 11 -3 15 -8 15s-8 -4 -8 -15c0 -12 3 -16 8 -16zM210 -1c-12 0 -21 8 -21 21c0 12 9 20 21 20s21 -8 21 -20s-9 -21 -21 -21zM546 4c5 0 8 4 8 16c0 11 -3 15 -8 15s-8 -4 -8 -15c0 -12 3 -16 8 -16zM546 -1c-12 0 -21 8 -21 21c0 12 9 20 21 20s21 -8 21 -20
s-9 -21 -21 -21zM125 74v7h7v41h-7v7h51v-20h-8c-2 11 -4 13 -11 13h-12v-18h4c5 0 5 1 6 8h7v-23h-7c-1 7 -1 8 -6 8h-4v-16h10v-7h-30zM195 73c-12 0 -21 8 -21 21c0 12 9 20 21 20s21 -8 21 -20s-9 -21 -21 -21zM644 -100v800h-594v-800h594zM498 -1c-18 0 -29 11 -29 28
c0 18 13 30 27 30c7 0 12 -3 16 -7l1 6h8v-22h-8c-4 12 -7 16 -15 16s-14 -6 -14 -22c0 -15 6 -22 16 -22c8 0 13 7 14 16h8c-1 -14 -9 -23 -24 -23zM372 80c5 0 7 5 7 13s-2 13 -7 13c-6 0 -8 -6 -8 -13c0 -8 2 -13 8 -13zM276 0v7h6v25h-7v7h7v1c0 13 9 19 19 19
c3 0 7 -1 9 -2l10 2v-52h6v-7h-23v7h5v25h-14v-25h5v-7h-23zM368 0v7h6v25h-6v7h18v-10c3 8 7 11 12 11s8 -3 8 -8c0 -4 -3 -7 -7 -7c-3 0 -6 2 -6 6v1c-2 0 -5 -4 -7 -9v-16h8v-7h-26zM352 73v52h-6v7h18v-27c2 6 7 9 13 9c9 0 15 -8 15 -20c0 -9 -4 -21 -16 -21
c-7 0 -11 3 -14 8l-4 -8h-6zM400 75c7 0 8 -7 5 -10c4 0 7 3 8 8c-4 10 -16 33 -16 33h-5v7h25v-7h-6l9 -20l8 20h-5v7h17v-7h-5l-13 -31c-4 -10 -9 -16 -18 -16c-7 0 -11 4 -11 9c0 4 3 7 7 7zM247 428c0 17 11 29 27 29c17 0 29 -15 29 -38c0 -17 -7 -33 -18 -50
c-23 22 -38 36 -38 59zM302 74v14h7c4 -6 7 -9 12 -9c3 0 5 2 5 4c0 8 -24 3 -24 19c0 6 5 12 14 12c5 0 9 -2 11 -5l2 5h6v-13h-7c-3 4 -6 7 -10 7c-3 0 -5 -2 -5 -4c0 -8 24 -2 24 -18c0 -7 -5 -13 -14 -13c-7 0 -10 3 -13 5l-1 -4h-7zM261 219c-30 0 -52 23 -52 54
c0 15 5 29 16 40c18 -17 46 -47 74 -82c-11 -9 -23 -12 -38 -12zM274 122l12 2v-11h13v-7h-13v-20c0 -3 1 -5 4 -5c2 0 4 2 5 7l5 -2c-2 -9 -6 -13 -14 -13s-12 5 -12 13v20h-7v7h7v9zM428 306c-15 -9 -31 -22 -46 -42c25 -29 42 -41 62 -41c21 0 33 12 43 29l7 -2
c-2 -58 -37 -94 -80 -94c-30 0 -52 11 -85 45c-28 -31 -62 -45 -104 -45c-60 0 -109 40 -109 93c0 42 29 73 82 91c-21 22 -31 40 -31 69c0 43 42 85 109 85c62 0 95 -39 95 -74c0 -13 -3 -24 -9 -34c27 1 47 -10 49 -37c16 24 35 38 60 38c28 0 50 -21 50 -52
s-22 -54 -50 -54c-18 0 -34 10 -43 25zM219 74v7h6v25h-6v7h17v-10c3 7 7 11 14 11c9 0 12 -6 12 -14v-19h6v-7h-22v7h4v18c0 4 -2 7 -6 7s-7 -4 -7 -10v-15h4v-7h-22zM446 33h18v-7h-5c-3 -6 -6 -10 -9 -14c2 -3 4 -5 6 -5s3 1 4 5l5 -1c-2 -7 -5 -12 -13 -12
c-5 0 -8 1 -12 6c-4 -4 -9 -6 -15 -6c-12 0 -18 6 -18 14s6 13 13 15c-4 4 -6 7 -6 12c0 7 7 14 17 14c9 0 14 -6 14 -12s-4 -9 -11 -12c5 -5 8 -9 12 -13c2 2 5 6 6 9h-6v7zM429 6c2 0 5 1 8 3c-5 6 -9 11 -14 16c-2 -2 -4 -5 -4 -9c0 -6 4 -10 10 -10zM294 42v-3h14v5
c-3 0 -6 2 -6 6c0 2 1 3 1 3s-1 1 -3 1c-3 0 -6 -2 -6 -12zM425 43c0 -3 2 -6 6 -10c3 2 5 5 5 9c0 3 -2 6 -6 6c-3 0 -5 -2 -5 -5zM312 342c19 13 33 24 42 34c23 -23 18 -47 -1 -80c-13 15 -25 30 -41 46zM366 18h-26c0 -9 3 -12 10 -12c5 0 8 2 9 7h7
c-2 -8 -7 -14 -18 -14c-13 0 -21 8 -21 20s9 21 20 21c14 0 20 -9 19 -22zM347 35c-4 0 -7 -3 -7 -12h14c0 8 -2 12 -7 12zM124 0v7h8v41h-8v7h29v-7h-8v-16h22v16h-8v7h29v-7h-8v-41h8v-7h-29v7h8v18h-22v-18h8v-7h-29zM576 13c4 0 7 -3 7 -7s-3 -7 -7 -7s-7 3 -7 7
s3 7 7 7z" />
    <glyph glyph-name="acute" unicode="&#xb4;" horiz-adv-x="470" 
d="M350 568l-202 -89l-29 55l182 134z" />
    <glyph glyph-name="hungarumlaut" unicode="&#x2dd;" horiz-adv-x="470" 
d="M264 641l-145 -155l-42 37l112 182zM423 631l-147 -154l-42 38l113 180z" />
    <glyph glyph-name="caron.alt" horiz-adv-x="213" 
d="M96 739l90 -17c0 -89 -39 -150 -97 -193l-51 33c36 43 55 97 58 177z" />
    <glyph glyph-name="grave" unicode="`" horiz-adv-x="470" 
d="M368 532l-33 -53l-204 91l53 97z" />
    <glyph glyph-name="circumflex" unicode="&#x2c6;" horiz-adv-x="470" 
d="M407 493h-107l-65 84l-64 -84h-101l148 177h45z" />
    <glyph glyph-name="caron" unicode="&#x2c7;" horiz-adv-x="470" 
d="M401 664l-149 -178h-44l-144 178h106l65 -85l64 85h102z" />
    <glyph glyph-name="breve" unicode="&#x2d8;" horiz-adv-x="470" 
d="M378 626c0 -75 -53 -138 -143 -138c-89 0 -142 63 -142 138l88 7c0 -44 20 -69 54 -69c35 0 55 25 55 69z" />
    <glyph glyph-name="tilde" unicode="&#x2dc;" horiz-adv-x="470" 
d="M406 554c-29 -35 -70 -59 -107 -59c-26 0 -45 7 -66 19c-23 14 -38 19 -57 19c-25 0 -47 -13 -68 -38l-40 64c29 36 70 59 107 59c26 0 45 -7 66 -19c21 -13 37 -18 55 -18c24 0 46 13 67 38z" />
    <glyph glyph-name="macron" unicode="&#xaf;" horiz-adv-x="470" 
d="M379 504h-287v86h287v-86z" />
    <glyph glyph-name="dieresis" unicode="&#xa8;" horiz-adv-x="470" 
d="M389 557c0 -34 -28 -63 -62 -63c-35 0 -63 29 -63 63c0 35 28 63 63 63c34 0 62 -28 62 -63zM207 557c0 -34 -28 -63 -63 -63c-34 0 -63 29 -63 63c0 35 29 63 63 63c35 0 63 -28 63 -63z" />
    <glyph glyph-name="dotaccent" unicode="&#x2d9;" horiz-adv-x="440" 
d="M158 557c0 35 28 63 62 63c35 0 63 -28 63 -63c0 -34 -28 -63 -63 -63c-34 0 -62 29 -62 63z" />
    <glyph glyph-name="ring" unicode="&#x2da;" horiz-adv-x="470" 
d="M353 601c0 -62 -47 -114 -118 -114s-118 52 -118 114c0 61 47 114 118 114s118 -53 118 -114zM285 601c0 33 -22 57 -50 57s-50 -23 -50 -57s22 -57 50 -57s50 23 50 57z" />
    <glyph glyph-name="commaaccent" unicode="&#x326;" horiz-adv-x="189" 
d="M161 -151c0 -60 -47 -135 -121 -172l-12 19c40 34 59 67 69 104c-41 2 -66 30 -66 65c0 34 27 62 61 62c45 0 69 -36 69 -78z" />
    <glyph glyph-name="cedilla" unicode="&#xb8;" horiz-adv-x="470" 
d="M357 -152c0 -54 -38 -102 -114 -102c-39 0 -78 13 -120 38l28 61c35 -22 65 -33 95 -33c23 0 36 12 36 34c0 21 -23 43 -96 45l-4 9l31 117l50 -13l-13 -55c80 -19 107 -57 107 -101z" />
    <glyph glyph-name="ogonek" unicode="&#x2db;" horiz-adv-x="470" 
d="M343 -173c-26 -29 -58 -48 -103 -49c-56 0 -91 36 -90 88c0 55 36 98 107 171l41 -30c-44 -54 -67 -90 -67 -123c0 -23 13 -36 33 -36c18 0 31 8 47 24z" />
    <glyph glyph-name="space" unicode=" " horiz-adv-x="215" 
 />
    <glyph glyph-name="uni00A0" unicode="&#xa0;" horiz-adv-x="0" 
 />
    <glyph glyph-name="emspace" unicode="&#x2003;" horiz-adv-x="1000" 
 />
    <glyph glyph-name="enspace" unicode="&#x2002;" horiz-adv-x="500" 
 />
    <glyph glyph-name="threeperemspace" unicode="&#x2004;" horiz-adv-x="333" 
 />
    <glyph glyph-name="fourperemspace" unicode="&#x2005;" horiz-adv-x="250" 
 />
    <glyph glyph-name="thinspace" unicode="&#x2009;" horiz-adv-x="133" 
 />
    <glyph glyph-name="hairspace" unicode="&#x200a;" horiz-adv-x="75" 
 />
    <glyph glyph-name="NUL" horiz-adv-x="0" 
 />
    <glyph glyph-name="figurespace" unicode="&#x2007;" horiz-adv-x="520" 
 />
    </font>
</defs>
</svg>
